G04 #@! TF.FileFunction,Copper,L2,Bot,Signal*
%FSLAX46Y46*%
G04 Gerber Fmt 4.6, Leading zero omitted, Abs format (unit mm)*
G04 Created by KiCad (PCBNEW 4.0.7-e2-6376~61~ubuntu18.04.1) date Sat Nov  7 22:51:51 2020*
%MOMM*%
%LPD*%
G01*
G04 APERTURE LIST*
%ADD10C,0.100000*%
%ADD11C,1.700000*%
%ADD12C,3.200000*%
%ADD13C,1.524000*%
%ADD14C,1.800000*%
%ADD15C,4.200000*%
%ADD16C,0.600000*%
%ADD17C,0.500000*%
%ADD18C,0.250000*%
%ADD19C,0.254000*%
G04 APERTURE END LIST*
D10*
D11*
X141790000Y-122470000D03*
X139290000Y-122470000D03*
X144290000Y-122470000D03*
X144290000Y-124970000D03*
X141790000Y-124970000D03*
X146790000Y-124970000D03*
X146790000Y-122470000D03*
X139290000Y-124970000D03*
X136790000Y-124970000D03*
X134290000Y-124970000D03*
X134290000Y-122470000D03*
X136790000Y-122470000D03*
D12*
X131240000Y-119820000D03*
X131240000Y-127620000D03*
D13*
X212547200Y-67183000D03*
X212547200Y-69723000D03*
X212547200Y-72263000D03*
X212547200Y-74803000D03*
X212547200Y-77343000D03*
X212547200Y-79883000D03*
X212547200Y-82423000D03*
X212547200Y-84963000D03*
X212547200Y-87503000D03*
X212547200Y-90043000D03*
X212547200Y-92583000D03*
X212547200Y-95123000D03*
X212547200Y-97663000D03*
X212547200Y-100203000D03*
X212547200Y-102743000D03*
X212547200Y-105283000D03*
X212547200Y-107823000D03*
X212547200Y-110363000D03*
X212547200Y-112903000D03*
X212547200Y-115443000D03*
X212547200Y-117983000D03*
X212547200Y-120523000D03*
X212547200Y-123063000D03*
X212547200Y-125603000D03*
X212547200Y-128143000D03*
X212547200Y-130683000D03*
X212547200Y-133223000D03*
X212547200Y-135763000D03*
X212547200Y-138303000D03*
X212547200Y-140843000D03*
X212547200Y-143383000D03*
X212547200Y-145923000D03*
X215087200Y-67183000D03*
X215087200Y-69723000D03*
X215087200Y-72263000D03*
X215087200Y-74803000D03*
X215087200Y-77343000D03*
X215087200Y-79883000D03*
X215087200Y-82423000D03*
X215087200Y-84963000D03*
X215087200Y-87503000D03*
X215087200Y-90043000D03*
X215087200Y-92583000D03*
X215087200Y-95123000D03*
X215087200Y-97663000D03*
X215087200Y-100203000D03*
X215087200Y-102743000D03*
X215087200Y-105283000D03*
X215087200Y-107823000D03*
X215087200Y-110363000D03*
X215087200Y-112903000D03*
X215087200Y-115443000D03*
X215087200Y-117983000D03*
X215087200Y-120523000D03*
X215087200Y-123063000D03*
X215087200Y-125603000D03*
X215087200Y-128143000D03*
X215087200Y-130683000D03*
X215087200Y-133223000D03*
X215087200Y-135763000D03*
X215087200Y-138303000D03*
X215087200Y-140843000D03*
X215087200Y-143383000D03*
X215087200Y-145923000D03*
X193967100Y-134112000D03*
X191427100Y-134112000D03*
X188887100Y-134112000D03*
X186347100Y-134112000D03*
X183807100Y-134112000D03*
X181267100Y-134112000D03*
X178727100Y-134112000D03*
X176187100Y-134112000D03*
X173647100Y-134112000D03*
X171107100Y-134112000D03*
X168567100Y-134112000D03*
X166027100Y-134112000D03*
X163487100Y-134112000D03*
X160947100Y-134112000D03*
X158407100Y-134112000D03*
X158407100Y-149352000D03*
X160947100Y-149352000D03*
X163487100Y-149352000D03*
X166027100Y-149352000D03*
X168567100Y-149352000D03*
X171107100Y-149352000D03*
X173647100Y-149352000D03*
X176187100Y-149352000D03*
X178727100Y-149352000D03*
X181267100Y-149352000D03*
X183807100Y-149352000D03*
X186347100Y-149352000D03*
X188887100Y-149352000D03*
X191427100Y-149352000D03*
X193967100Y-149352000D03*
D14*
X135090000Y-85356000D03*
X130010000Y-85356000D03*
X130010000Y-87647080D03*
X130010000Y-89938160D03*
X130010000Y-83064920D03*
X130010000Y-80773840D03*
X132550000Y-81927000D03*
X132550000Y-84218080D03*
X132550000Y-86509160D03*
X132550000Y-88800240D03*
X132550000Y-91091320D03*
X135090000Y-83064920D03*
X135090000Y-80773840D03*
X135090000Y-87647080D03*
X135090000Y-89938160D03*
D15*
X132550000Y-98101720D03*
X132550000Y-73118280D03*
D16*
X140100000Y-134950000D03*
X191750000Y-106650000D03*
X177850000Y-107600000D03*
X177800000Y-105300000D03*
X177800000Y-103050000D03*
X165506400Y-97307400D03*
X157632400Y-108102400D03*
X163525200Y-108737400D03*
X169138600Y-130111500D03*
X123900000Y-131400000D03*
X183100000Y-110250000D03*
X185350000Y-102250000D03*
X182900000Y-107100000D03*
X192000000Y-107500000D03*
X192600000Y-102250000D03*
X198755000Y-98501200D03*
X203911200Y-133146800D03*
X200990200Y-128803400D03*
X188000000Y-114000000D03*
X189150000Y-109500000D03*
X185850000Y-104900000D03*
X189150000Y-104950000D03*
X188150000Y-111600000D03*
X185648600Y-123698000D03*
X170535600Y-126085600D03*
X196875400Y-128397000D03*
X196900800Y-126060200D03*
X196926200Y-123723400D03*
X197446900Y-138239500D03*
X168402000Y-123571000D03*
X170535600Y-128930400D03*
X172389800Y-130759200D03*
X185623200Y-126060200D03*
X173710600Y-127381000D03*
X144740000Y-99300000D03*
X126400000Y-117800000D03*
D17*
X127800000Y-132270000D02*
X124770000Y-132270000D01*
X182560000Y-110250000D02*
X175800000Y-117010000D01*
X175800000Y-117010000D02*
X166310000Y-117010000D01*
X166310000Y-117010000D02*
X151050000Y-132270000D01*
X151050000Y-132270000D02*
X127800000Y-132270000D01*
X183100000Y-110250000D02*
X182560000Y-110250000D01*
X124770000Y-132270000D02*
X123900000Y-131400000D01*
X182900000Y-107100000D02*
X182900000Y-110050000D01*
X182900000Y-110050000D02*
X183100000Y-110250000D01*
X185350000Y-102250000D02*
X182900000Y-104700000D01*
X182900000Y-104700000D02*
X182900000Y-107100000D01*
X192000000Y-107500000D02*
X192600000Y-106900000D01*
X192600000Y-106900000D02*
X192600000Y-102250000D01*
X207467200Y-84963000D02*
X212547200Y-79883000D01*
X207467200Y-89789000D02*
X207467200Y-84963000D01*
X198755000Y-98501200D02*
X207467200Y-89789000D01*
X215011000Y-79819500D02*
X212598000Y-79819500D01*
D18*
X203911200Y-133146800D02*
X212471000Y-133146800D01*
X212471000Y-133146800D02*
X212547200Y-133223000D01*
X203923900Y-133159500D02*
X203911200Y-133146800D01*
X215087200Y-143383000D02*
X215036400Y-143383000D01*
X215036400Y-143383000D02*
X213893400Y-142240000D01*
X213893400Y-142240000D02*
X213893400Y-135026400D01*
X213893400Y-135026400D02*
X213283800Y-134416800D01*
X213283800Y-134416800D02*
X203479400Y-134416800D01*
X200990200Y-131927600D02*
X200990200Y-128803400D01*
X203479400Y-134416800D02*
X200990200Y-131927600D01*
X188000000Y-114000000D02*
X188000000Y-123850000D01*
X182409100Y-125350000D02*
X173647100Y-134112000D01*
X186500000Y-125350000D02*
X182409100Y-125350000D01*
X188000000Y-123850000D02*
X186500000Y-125350000D01*
X189150000Y-109500000D02*
X189150000Y-112850000D01*
X189150000Y-112850000D02*
X188000000Y-114000000D01*
X189150000Y-104950000D02*
X189150000Y-109500000D01*
X189100000Y-104900000D02*
X185850000Y-104900000D01*
X189150000Y-104950000D02*
X189100000Y-104900000D01*
X171107100Y-134112000D02*
X171107100Y-133892900D01*
X171107100Y-133892900D02*
X180500000Y-124500000D01*
X186650000Y-113100000D02*
X188150000Y-111600000D01*
X186650000Y-123850000D02*
X186650000Y-113100000D01*
X186000000Y-124500000D02*
X186650000Y-123850000D01*
X180500000Y-124500000D02*
X186000000Y-124500000D01*
X171107100Y-134112000D02*
X170865800Y-134112000D01*
X172923200Y-123698000D02*
X185648600Y-123698000D01*
X170535600Y-126085600D02*
X172923200Y-123698000D01*
D17*
X196875400Y-128397000D02*
X196900800Y-128397000D01*
X196900800Y-128397000D02*
X196875400Y-128397000D01*
X196875400Y-128397000D02*
X196900800Y-128397000D01*
X196926200Y-123723400D02*
X196900800Y-123723400D01*
X196900800Y-123723400D02*
X196900800Y-126060200D01*
X196900800Y-128397000D02*
X196900800Y-137693400D01*
X196900800Y-137693400D02*
X197446900Y-138239500D01*
X196900800Y-126060200D02*
X196900800Y-128397000D01*
D18*
X158407100Y-134112000D02*
X158407100Y-133565900D01*
X158407100Y-133565900D02*
X168402000Y-123571000D01*
X170561000Y-128930400D02*
X170535600Y-128930400D01*
X172389800Y-130759200D02*
X170561000Y-128930400D01*
X183807100Y-134112000D02*
X183807100Y-127876300D01*
X183807100Y-127876300D02*
X185623200Y-126060200D01*
X163487100Y-134112000D02*
X170218100Y-127381000D01*
X170218100Y-127381000D02*
X173710600Y-127381000D01*
X135090000Y-87647080D02*
X137597080Y-87647080D01*
X143100000Y-97660000D02*
X144740000Y-99300000D01*
X143100000Y-93150000D02*
X143100000Y-97660000D01*
X137597080Y-87647080D02*
X143100000Y-93150000D01*
X141790000Y-124970000D02*
X141790000Y-124810000D01*
X141790000Y-124810000D02*
X142900000Y-123700000D01*
X142900000Y-123700000D02*
X145560000Y-123700000D01*
X145560000Y-123700000D02*
X146790000Y-122470000D01*
X137660000Y-126600000D02*
X139290000Y-124970000D01*
X133400000Y-126600000D02*
X137660000Y-126600000D01*
X126400000Y-119600000D02*
X133400000Y-126600000D01*
X126400000Y-117800000D02*
X126400000Y-119600000D01*
X130010000Y-83064920D02*
X129615080Y-83064920D01*
D19*
G36*
X225540500Y-150674000D02*
X191917780Y-150674000D01*
X192158243Y-150574397D01*
X192227708Y-150332213D01*
X191427100Y-149531605D01*
X190626492Y-150332213D01*
X190695957Y-150574397D01*
X190975141Y-150674000D01*
X121487000Y-150674000D01*
X121487000Y-149578359D01*
X157263902Y-149578359D01*
X157437546Y-149998612D01*
X157758797Y-150320423D01*
X158178746Y-150494801D01*
X158633459Y-150495198D01*
X159053712Y-150321554D01*
X159375523Y-150000303D01*
X159549901Y-149580354D01*
X159549902Y-149578359D01*
X159803902Y-149578359D01*
X159977546Y-149998612D01*
X160298797Y-150320423D01*
X160718746Y-150494801D01*
X161173459Y-150495198D01*
X161593712Y-150321554D01*
X161915523Y-150000303D01*
X162089901Y-149580354D01*
X162089902Y-149578359D01*
X162343902Y-149578359D01*
X162517546Y-149998612D01*
X162838797Y-150320423D01*
X163258746Y-150494801D01*
X163713459Y-150495198D01*
X164133712Y-150321554D01*
X164455523Y-150000303D01*
X164629901Y-149580354D01*
X164629902Y-149578359D01*
X164883902Y-149578359D01*
X165057546Y-149998612D01*
X165378797Y-150320423D01*
X165798746Y-150494801D01*
X166253459Y-150495198D01*
X166673712Y-150321554D01*
X166995523Y-150000303D01*
X167169901Y-149580354D01*
X167169902Y-149578359D01*
X167423902Y-149578359D01*
X167597546Y-149998612D01*
X167918797Y-150320423D01*
X168338746Y-150494801D01*
X168793459Y-150495198D01*
X169213712Y-150321554D01*
X169535523Y-150000303D01*
X169709901Y-149580354D01*
X169709902Y-149578359D01*
X169963902Y-149578359D01*
X170137546Y-149998612D01*
X170458797Y-150320423D01*
X170878746Y-150494801D01*
X171333459Y-150495198D01*
X171753712Y-150321554D01*
X172075523Y-150000303D01*
X172249901Y-149580354D01*
X172249902Y-149578359D01*
X172503902Y-149578359D01*
X172677546Y-149998612D01*
X172998797Y-150320423D01*
X173418746Y-150494801D01*
X173873459Y-150495198D01*
X174293712Y-150321554D01*
X174615523Y-150000303D01*
X174789901Y-149580354D01*
X174789902Y-149578359D01*
X175043902Y-149578359D01*
X175217546Y-149998612D01*
X175538797Y-150320423D01*
X175958746Y-150494801D01*
X176413459Y-150495198D01*
X176833712Y-150321554D01*
X177155523Y-150000303D01*
X177329901Y-149580354D01*
X177329902Y-149578359D01*
X177583902Y-149578359D01*
X177757546Y-149998612D01*
X178078797Y-150320423D01*
X178498746Y-150494801D01*
X178953459Y-150495198D01*
X179373712Y-150321554D01*
X179695523Y-150000303D01*
X179869901Y-149580354D01*
X179869902Y-149578359D01*
X180123902Y-149578359D01*
X180297546Y-149998612D01*
X180618797Y-150320423D01*
X181038746Y-150494801D01*
X181493459Y-150495198D01*
X181913712Y-150321554D01*
X182235523Y-150000303D01*
X182409901Y-149580354D01*
X182409902Y-149578359D01*
X182663902Y-149578359D01*
X182837546Y-149998612D01*
X183158797Y-150320423D01*
X183578746Y-150494801D01*
X184033459Y-150495198D01*
X184453712Y-150321554D01*
X184775523Y-150000303D01*
X184949901Y-149580354D01*
X184949902Y-149578359D01*
X185203902Y-149578359D01*
X185377546Y-149998612D01*
X185698797Y-150320423D01*
X186118746Y-150494801D01*
X186573459Y-150495198D01*
X186993712Y-150321554D01*
X187315523Y-150000303D01*
X187489901Y-149580354D01*
X187489902Y-149578359D01*
X187743902Y-149578359D01*
X187917546Y-149998612D01*
X188238797Y-150320423D01*
X188658746Y-150494801D01*
X189113459Y-150495198D01*
X189533712Y-150321554D01*
X189855523Y-150000303D01*
X190029901Y-149580354D01*
X190030070Y-149386340D01*
X190045738Y-149699368D01*
X190204703Y-150083143D01*
X190446887Y-150152608D01*
X191247495Y-149352000D01*
X191606705Y-149352000D01*
X192407313Y-150152608D01*
X192649497Y-150083143D01*
X192826952Y-149585742D01*
X192997546Y-149998612D01*
X193318797Y-150320423D01*
X193738746Y-150494801D01*
X194193459Y-150495198D01*
X194613712Y-150321554D01*
X194935523Y-150000303D01*
X195109901Y-149580354D01*
X195110298Y-149125641D01*
X194936654Y-148705388D01*
X194615403Y-148383577D01*
X194195454Y-148209199D01*
X193740741Y-148208802D01*
X193320488Y-148382446D01*
X192998677Y-148703697D01*
X192824299Y-149123646D01*
X192824130Y-149317660D01*
X192808462Y-149004632D01*
X192649497Y-148620857D01*
X192407313Y-148551392D01*
X191606705Y-149352000D01*
X191247495Y-149352000D01*
X190446887Y-148551392D01*
X190204703Y-148620857D01*
X190027248Y-149118258D01*
X189856654Y-148705388D01*
X189535403Y-148383577D01*
X189507010Y-148371787D01*
X190626492Y-148371787D01*
X191427100Y-149172395D01*
X192227708Y-148371787D01*
X192158243Y-148129603D01*
X191634798Y-147942856D01*
X191079732Y-147970638D01*
X190695957Y-148129603D01*
X190626492Y-148371787D01*
X189507010Y-148371787D01*
X189115454Y-148209199D01*
X188660741Y-148208802D01*
X188240488Y-148382446D01*
X187918677Y-148703697D01*
X187744299Y-149123646D01*
X187743902Y-149578359D01*
X187489902Y-149578359D01*
X187490298Y-149125641D01*
X187316654Y-148705388D01*
X186995403Y-148383577D01*
X186575454Y-148209199D01*
X186120741Y-148208802D01*
X185700488Y-148382446D01*
X185378677Y-148703697D01*
X185204299Y-149123646D01*
X185203902Y-149578359D01*
X184949902Y-149578359D01*
X184950298Y-149125641D01*
X184776654Y-148705388D01*
X184455403Y-148383577D01*
X184035454Y-148209199D01*
X183580741Y-148208802D01*
X183160488Y-148382446D01*
X182838677Y-148703697D01*
X182664299Y-149123646D01*
X182663902Y-149578359D01*
X182409902Y-149578359D01*
X182410298Y-149125641D01*
X182236654Y-148705388D01*
X181915403Y-148383577D01*
X181495454Y-148209199D01*
X181040741Y-148208802D01*
X180620488Y-148382446D01*
X180298677Y-148703697D01*
X180124299Y-149123646D01*
X180123902Y-149578359D01*
X179869902Y-149578359D01*
X179870298Y-149125641D01*
X179696654Y-148705388D01*
X179375403Y-148383577D01*
X178955454Y-148209199D01*
X178500741Y-148208802D01*
X178080488Y-148382446D01*
X177758677Y-148703697D01*
X177584299Y-149123646D01*
X177583902Y-149578359D01*
X177329902Y-149578359D01*
X177330298Y-149125641D01*
X177156654Y-148705388D01*
X176835403Y-148383577D01*
X176415454Y-148209199D01*
X175960741Y-148208802D01*
X175540488Y-148382446D01*
X175218677Y-148703697D01*
X175044299Y-149123646D01*
X175043902Y-149578359D01*
X174789902Y-149578359D01*
X174790298Y-149125641D01*
X174616654Y-148705388D01*
X174295403Y-148383577D01*
X173875454Y-148209199D01*
X173420741Y-148208802D01*
X173000488Y-148382446D01*
X172678677Y-148703697D01*
X172504299Y-149123646D01*
X172503902Y-149578359D01*
X172249902Y-149578359D01*
X172250298Y-149125641D01*
X172076654Y-148705388D01*
X171755403Y-148383577D01*
X171335454Y-148209199D01*
X170880741Y-148208802D01*
X170460488Y-148382446D01*
X170138677Y-148703697D01*
X169964299Y-149123646D01*
X169963902Y-149578359D01*
X169709902Y-149578359D01*
X169710298Y-149125641D01*
X169536654Y-148705388D01*
X169215403Y-148383577D01*
X168795454Y-148209199D01*
X168340741Y-148208802D01*
X167920488Y-148382446D01*
X167598677Y-148703697D01*
X167424299Y-149123646D01*
X167423902Y-149578359D01*
X167169902Y-149578359D01*
X167170298Y-149125641D01*
X166996654Y-148705388D01*
X166675403Y-148383577D01*
X166255454Y-148209199D01*
X165800741Y-148208802D01*
X165380488Y-148382446D01*
X165058677Y-148703697D01*
X164884299Y-149123646D01*
X164883902Y-149578359D01*
X164629902Y-149578359D01*
X164630298Y-149125641D01*
X164456654Y-148705388D01*
X164135403Y-148383577D01*
X163715454Y-148209199D01*
X163260741Y-148208802D01*
X162840488Y-148382446D01*
X162518677Y-148703697D01*
X162344299Y-149123646D01*
X162343902Y-149578359D01*
X162089902Y-149578359D01*
X162090298Y-149125641D01*
X161916654Y-148705388D01*
X161595403Y-148383577D01*
X161175454Y-148209199D01*
X160720741Y-148208802D01*
X160300488Y-148382446D01*
X159978677Y-148703697D01*
X159804299Y-149123646D01*
X159803902Y-149578359D01*
X159549902Y-149578359D01*
X159550298Y-149125641D01*
X159376654Y-148705388D01*
X159055403Y-148383577D01*
X158635454Y-148209199D01*
X158180741Y-148208802D01*
X157760488Y-148382446D01*
X157438677Y-148703697D01*
X157264299Y-149123646D01*
X157263902Y-149578359D01*
X121487000Y-149578359D01*
X121487000Y-146903213D01*
X211746592Y-146903213D01*
X211816057Y-147145397D01*
X212339502Y-147332144D01*
X212894568Y-147304362D01*
X213278343Y-147145397D01*
X213347808Y-146903213D01*
X214286592Y-146903213D01*
X214356057Y-147145397D01*
X214879502Y-147332144D01*
X215434568Y-147304362D01*
X215818343Y-147145397D01*
X215887808Y-146903213D01*
X215087200Y-146102605D01*
X214286592Y-146903213D01*
X213347808Y-146903213D01*
X212547200Y-146102605D01*
X211746592Y-146903213D01*
X121487000Y-146903213D01*
X121487000Y-145715302D01*
X211138056Y-145715302D01*
X211165838Y-146270368D01*
X211324803Y-146654143D01*
X211566987Y-146723608D01*
X212367595Y-145923000D01*
X212726805Y-145923000D01*
X213527413Y-146723608D01*
X213769597Y-146654143D01*
X213813653Y-146530656D01*
X213864803Y-146654143D01*
X214106987Y-146723608D01*
X214907595Y-145923000D01*
X215266805Y-145923000D01*
X216067413Y-146723608D01*
X216309597Y-146654143D01*
X216496344Y-146130698D01*
X216468562Y-145575632D01*
X216309597Y-145191857D01*
X216067413Y-145122392D01*
X215266805Y-145923000D01*
X214907595Y-145923000D01*
X214106987Y-145122392D01*
X213864803Y-145191857D01*
X213820747Y-145315344D01*
X213769597Y-145191857D01*
X213527413Y-145122392D01*
X212726805Y-145923000D01*
X212367595Y-145923000D01*
X211566987Y-145122392D01*
X211324803Y-145191857D01*
X211138056Y-145715302D01*
X121487000Y-145715302D01*
X121487000Y-140635302D01*
X211138056Y-140635302D01*
X211165838Y-141190368D01*
X211324803Y-141574143D01*
X211566987Y-141643608D01*
X212367595Y-140843000D01*
X211566987Y-140042392D01*
X211324803Y-140111857D01*
X211138056Y-140635302D01*
X121487000Y-140635302D01*
X121487000Y-134338359D01*
X157263902Y-134338359D01*
X157437546Y-134758612D01*
X157758797Y-135080423D01*
X158178746Y-135254801D01*
X158633459Y-135255198D01*
X159053712Y-135081554D01*
X159375523Y-134760303D01*
X159549901Y-134340354D01*
X159549902Y-134338359D01*
X159803902Y-134338359D01*
X159977546Y-134758612D01*
X160298797Y-135080423D01*
X160718746Y-135254801D01*
X161173459Y-135255198D01*
X161593712Y-135081554D01*
X161915523Y-134760303D01*
X162089901Y-134340354D01*
X162089902Y-134338359D01*
X162343902Y-134338359D01*
X162517546Y-134758612D01*
X162838797Y-135080423D01*
X163258746Y-135254801D01*
X163713459Y-135255198D01*
X164133712Y-135081554D01*
X164455523Y-134760303D01*
X164629901Y-134340354D01*
X164629902Y-134338359D01*
X164883902Y-134338359D01*
X165057546Y-134758612D01*
X165378797Y-135080423D01*
X165798746Y-135254801D01*
X166253459Y-135255198D01*
X166673712Y-135081554D01*
X166995523Y-134760303D01*
X167169901Y-134340354D01*
X167169902Y-134338359D01*
X167423902Y-134338359D01*
X167597546Y-134758612D01*
X167918797Y-135080423D01*
X168338746Y-135254801D01*
X168793459Y-135255198D01*
X169213712Y-135081554D01*
X169535523Y-134760303D01*
X169709901Y-134340354D01*
X169710298Y-133885641D01*
X169536654Y-133465388D01*
X169215403Y-133143577D01*
X168795454Y-132969199D01*
X168340741Y-132968802D01*
X167920488Y-133142446D01*
X167598677Y-133463697D01*
X167424299Y-133883646D01*
X167423902Y-134338359D01*
X167169902Y-134338359D01*
X167170298Y-133885641D01*
X166996654Y-133465388D01*
X166675403Y-133143577D01*
X166255454Y-132969199D01*
X165800741Y-132968802D01*
X165380488Y-133142446D01*
X165058677Y-133463697D01*
X164884299Y-133883646D01*
X164883902Y-134338359D01*
X164629902Y-134338359D01*
X164630298Y-133885641D01*
X164571457Y-133743235D01*
X169249427Y-129065265D01*
X169854482Y-129065265D01*
X169957939Y-129315652D01*
X170149341Y-129507387D01*
X170399546Y-129611282D01*
X170526401Y-129611393D01*
X171708769Y-130793761D01*
X171708682Y-130894065D01*
X171812139Y-131144452D01*
X172003541Y-131336187D01*
X172253746Y-131440082D01*
X172524665Y-131440318D01*
X172775052Y-131336861D01*
X172966787Y-131145459D01*
X173070682Y-130895254D01*
X173070918Y-130624335D01*
X172967461Y-130373948D01*
X172776059Y-130182213D01*
X172525854Y-130078318D01*
X172424422Y-130078230D01*
X171216653Y-128870461D01*
X171216718Y-128795535D01*
X171113261Y-128545148D01*
X170921859Y-128353413D01*
X170671654Y-128249518D01*
X170400735Y-128249282D01*
X170150348Y-128352739D01*
X169958613Y-128544141D01*
X169854718Y-128794346D01*
X169854482Y-129065265D01*
X169249427Y-129065265D01*
X170427692Y-127887000D01*
X173253477Y-127887000D01*
X173324341Y-127957987D01*
X173574546Y-128061882D01*
X173845465Y-128062118D01*
X174095852Y-127958661D01*
X174287587Y-127767259D01*
X174391482Y-127517054D01*
X174391718Y-127246135D01*
X174288261Y-126995748D01*
X174096859Y-126804013D01*
X173846654Y-126700118D01*
X173575735Y-126699882D01*
X173325348Y-126803339D01*
X173253562Y-126875000D01*
X170218100Y-126875000D01*
X170024462Y-126913517D01*
X169860304Y-127023204D01*
X163855964Y-133027544D01*
X163715454Y-132969199D01*
X163260741Y-132968802D01*
X162840488Y-133142446D01*
X162518677Y-133463697D01*
X162344299Y-133883646D01*
X162343902Y-134338359D01*
X162089902Y-134338359D01*
X162090298Y-133885641D01*
X161916654Y-133465388D01*
X161595403Y-133143577D01*
X161175454Y-132969199D01*
X160720741Y-132968802D01*
X160300488Y-133142446D01*
X159978677Y-133463697D01*
X159804299Y-133883646D01*
X159803902Y-134338359D01*
X159549902Y-134338359D01*
X159550298Y-133885641D01*
X159376654Y-133465388D01*
X159299996Y-133388596D01*
X166468127Y-126220465D01*
X169854482Y-126220465D01*
X169957939Y-126470852D01*
X170149341Y-126662587D01*
X170399546Y-126766482D01*
X170670465Y-126766718D01*
X170920852Y-126663261D01*
X171112587Y-126471859D01*
X171216482Y-126221654D01*
X171216570Y-126120222D01*
X173132792Y-124204000D01*
X180080408Y-124204000D01*
X171315227Y-132969181D01*
X170880741Y-132968802D01*
X170460488Y-133142446D01*
X170138677Y-133463697D01*
X169964299Y-133883646D01*
X169963902Y-134338359D01*
X170137546Y-134758612D01*
X170458797Y-135080423D01*
X170878746Y-135254801D01*
X171333459Y-135255198D01*
X171753712Y-135081554D01*
X172075523Y-134760303D01*
X172249901Y-134340354D01*
X172250298Y-133885641D01*
X172127397Y-133588195D01*
X180709592Y-125006000D01*
X182037508Y-125006000D01*
X174015964Y-133027544D01*
X173875454Y-132969199D01*
X173420741Y-132968802D01*
X173000488Y-133142446D01*
X172678677Y-133463697D01*
X172504299Y-133883646D01*
X172503902Y-134338359D01*
X172677546Y-134758612D01*
X172998797Y-135080423D01*
X173418746Y-135254801D01*
X173873459Y-135255198D01*
X174293712Y-135081554D01*
X174615523Y-134760303D01*
X174789901Y-134340354D01*
X174789902Y-134338359D01*
X175043902Y-134338359D01*
X175217546Y-134758612D01*
X175538797Y-135080423D01*
X175958746Y-135254801D01*
X176413459Y-135255198D01*
X176833712Y-135081554D01*
X177155523Y-134760303D01*
X177329901Y-134340354D01*
X177329902Y-134338359D01*
X177583902Y-134338359D01*
X177757546Y-134758612D01*
X178078797Y-135080423D01*
X178498746Y-135254801D01*
X178953459Y-135255198D01*
X179373712Y-135081554D01*
X179695523Y-134760303D01*
X179869901Y-134340354D01*
X179869902Y-134338359D01*
X180123902Y-134338359D01*
X180297546Y-134758612D01*
X180618797Y-135080423D01*
X181038746Y-135254801D01*
X181493459Y-135255198D01*
X181913712Y-135081554D01*
X182235523Y-134760303D01*
X182409901Y-134340354D01*
X182410298Y-133885641D01*
X182236654Y-133465388D01*
X181915403Y-133143577D01*
X181495454Y-132969199D01*
X181040741Y-132968802D01*
X180620488Y-133142446D01*
X180298677Y-133463697D01*
X180124299Y-133883646D01*
X180123902Y-134338359D01*
X179869902Y-134338359D01*
X179870298Y-133885641D01*
X179696654Y-133465388D01*
X179375403Y-133143577D01*
X178955454Y-132969199D01*
X178500741Y-132968802D01*
X178080488Y-133142446D01*
X177758677Y-133463697D01*
X177584299Y-133883646D01*
X177583902Y-134338359D01*
X177329902Y-134338359D01*
X177330298Y-133885641D01*
X177156654Y-133465388D01*
X176835403Y-133143577D01*
X176415454Y-132969199D01*
X175960741Y-132968802D01*
X175540488Y-133142446D01*
X175218677Y-133463697D01*
X175044299Y-133883646D01*
X175043902Y-134338359D01*
X174789902Y-134338359D01*
X174790298Y-133885641D01*
X174731457Y-133743235D01*
X182618692Y-125856000D01*
X184970615Y-125856000D01*
X184942318Y-125924146D01*
X184942230Y-126025578D01*
X183449304Y-127518504D01*
X183339617Y-127682662D01*
X183301100Y-127876300D01*
X183301100Y-133084347D01*
X183160488Y-133142446D01*
X182838677Y-133463697D01*
X182664299Y-133883646D01*
X182663902Y-134338359D01*
X182837546Y-134758612D01*
X183158797Y-135080423D01*
X183578746Y-135254801D01*
X184033459Y-135255198D01*
X184427915Y-135092213D01*
X185546492Y-135092213D01*
X185615957Y-135334397D01*
X186139402Y-135521144D01*
X186694468Y-135493362D01*
X187078243Y-135334397D01*
X187147708Y-135092213D01*
X186347100Y-134291605D01*
X185546492Y-135092213D01*
X184427915Y-135092213D01*
X184453712Y-135081554D01*
X184775523Y-134760303D01*
X184949901Y-134340354D01*
X184950070Y-134146340D01*
X184965738Y-134459368D01*
X185124703Y-134843143D01*
X185366887Y-134912608D01*
X186167495Y-134112000D01*
X186526705Y-134112000D01*
X187327313Y-134912608D01*
X187569497Y-134843143D01*
X187746952Y-134345742D01*
X187917546Y-134758612D01*
X188238797Y-135080423D01*
X188658746Y-135254801D01*
X189113459Y-135255198D01*
X189533712Y-135081554D01*
X189855523Y-134760303D01*
X190029901Y-134340354D01*
X190029902Y-134338359D01*
X190283902Y-134338359D01*
X190457546Y-134758612D01*
X190778797Y-135080423D01*
X191198746Y-135254801D01*
X191653459Y-135255198D01*
X192073712Y-135081554D01*
X192395523Y-134760303D01*
X192569901Y-134340354D01*
X192569902Y-134338359D01*
X192823902Y-134338359D01*
X192997546Y-134758612D01*
X193318797Y-135080423D01*
X193738746Y-135254801D01*
X194193459Y-135255198D01*
X194613712Y-135081554D01*
X194935523Y-134760303D01*
X195109901Y-134340354D01*
X195110298Y-133885641D01*
X194936654Y-133465388D01*
X194615403Y-133143577D01*
X194195454Y-132969199D01*
X193740741Y-132968802D01*
X193320488Y-133142446D01*
X192998677Y-133463697D01*
X192824299Y-133883646D01*
X192823902Y-134338359D01*
X192569902Y-134338359D01*
X192570298Y-133885641D01*
X192396654Y-133465388D01*
X192075403Y-133143577D01*
X191655454Y-132969199D01*
X191200741Y-132968802D01*
X190780488Y-133142446D01*
X190458677Y-133463697D01*
X190284299Y-133883646D01*
X190283902Y-134338359D01*
X190029902Y-134338359D01*
X190030298Y-133885641D01*
X189856654Y-133465388D01*
X189535403Y-133143577D01*
X189115454Y-132969199D01*
X188660741Y-132968802D01*
X188240488Y-133142446D01*
X187918677Y-133463697D01*
X187744299Y-133883646D01*
X187744130Y-134077660D01*
X187728462Y-133764632D01*
X187569497Y-133380857D01*
X187327313Y-133311392D01*
X186526705Y-134112000D01*
X186167495Y-134112000D01*
X185366887Y-133311392D01*
X185124703Y-133380857D01*
X184947248Y-133878258D01*
X184776654Y-133465388D01*
X184455403Y-133143577D01*
X184427010Y-133131787D01*
X185546492Y-133131787D01*
X186347100Y-133932395D01*
X187147708Y-133131787D01*
X187078243Y-132889603D01*
X186554798Y-132702856D01*
X185999732Y-132730638D01*
X185615957Y-132889603D01*
X185546492Y-133131787D01*
X184427010Y-133131787D01*
X184313100Y-133084488D01*
X184313100Y-128531865D01*
X196194282Y-128531865D01*
X196269800Y-128714634D01*
X196269800Y-137693400D01*
X196301795Y-137854248D01*
X196317832Y-137934873D01*
X196454616Y-138139584D01*
X196819567Y-138504535D01*
X196869239Y-138624752D01*
X197060641Y-138816487D01*
X197310846Y-138920382D01*
X197581765Y-138920618D01*
X197832152Y-138817161D01*
X198023887Y-138625759D01*
X198127782Y-138375554D01*
X198128018Y-138104635D01*
X198024561Y-137854248D01*
X197833159Y-137662513D01*
X197711950Y-137612182D01*
X197531800Y-137432032D01*
X197531800Y-128938265D01*
X200309082Y-128938265D01*
X200412539Y-129188652D01*
X200484200Y-129260438D01*
X200484200Y-131927600D01*
X200522717Y-132121238D01*
X200632404Y-132285396D01*
X203121604Y-134774596D01*
X203285762Y-134884283D01*
X203479400Y-134922800D01*
X211771009Y-134922800D01*
X211578777Y-135114697D01*
X211404399Y-135534646D01*
X211404002Y-135989359D01*
X211577646Y-136409612D01*
X211898897Y-136731423D01*
X212318846Y-136905801D01*
X212773559Y-136906198D01*
X213193812Y-136732554D01*
X213387400Y-136539303D01*
X213387400Y-137526809D01*
X213195503Y-137334577D01*
X212775554Y-137160199D01*
X212320841Y-137159802D01*
X211900588Y-137333446D01*
X211578777Y-137654697D01*
X211404399Y-138074646D01*
X211404002Y-138529359D01*
X211577646Y-138949612D01*
X211898897Y-139271423D01*
X212318846Y-139445801D01*
X212512860Y-139445970D01*
X212199832Y-139461638D01*
X211816057Y-139620603D01*
X211746592Y-139862787D01*
X212547200Y-140663395D01*
X212561343Y-140649253D01*
X212740948Y-140828858D01*
X212726805Y-140843000D01*
X212740948Y-140857143D01*
X212561343Y-141036748D01*
X212547200Y-141022605D01*
X211746592Y-141823213D01*
X211816057Y-142065397D01*
X212313458Y-142242852D01*
X211900588Y-142413446D01*
X211578777Y-142734697D01*
X211404399Y-143154646D01*
X211404002Y-143609359D01*
X211577646Y-144029612D01*
X211898897Y-144351423D01*
X212318846Y-144525801D01*
X212512860Y-144525970D01*
X212199832Y-144541638D01*
X211816057Y-144700603D01*
X211746592Y-144942787D01*
X212547200Y-145743395D01*
X213347808Y-144942787D01*
X213278343Y-144700603D01*
X212780942Y-144523148D01*
X213193812Y-144352554D01*
X213515623Y-144031303D01*
X213690001Y-143611354D01*
X213690398Y-143156641D01*
X213516754Y-142736388D01*
X213195503Y-142414577D01*
X212775554Y-142240199D01*
X212581540Y-142240030D01*
X212894568Y-142224362D01*
X213278343Y-142065397D01*
X213347807Y-141823215D01*
X213387400Y-141862808D01*
X213387400Y-142240000D01*
X213425917Y-142433638D01*
X213535604Y-142597796D01*
X213987839Y-143050031D01*
X213944399Y-143154646D01*
X213944002Y-143609359D01*
X214117646Y-144029612D01*
X214438897Y-144351423D01*
X214858846Y-144525801D01*
X215052860Y-144525970D01*
X214739832Y-144541638D01*
X214356057Y-144700603D01*
X214286592Y-144942787D01*
X215087200Y-145743395D01*
X215887808Y-144942787D01*
X215818343Y-144700603D01*
X215320942Y-144523148D01*
X215733812Y-144352554D01*
X216055623Y-144031303D01*
X216230001Y-143611354D01*
X216230398Y-143156641D01*
X216056754Y-142736388D01*
X215735503Y-142414577D01*
X215315554Y-142240199D01*
X215121540Y-142240030D01*
X215434568Y-142224362D01*
X215818343Y-142065397D01*
X215887808Y-141823213D01*
X215087200Y-141022605D01*
X215073058Y-141036748D01*
X214893453Y-140857143D01*
X214907595Y-140843000D01*
X215266805Y-140843000D01*
X216067413Y-141643608D01*
X216309597Y-141574143D01*
X216496344Y-141050698D01*
X216468562Y-140495632D01*
X216309597Y-140111857D01*
X216067413Y-140042392D01*
X215266805Y-140843000D01*
X214907595Y-140843000D01*
X214893453Y-140828858D01*
X215073058Y-140649253D01*
X215087200Y-140663395D01*
X215887808Y-139862787D01*
X215818343Y-139620603D01*
X215320942Y-139443148D01*
X215733812Y-139272554D01*
X216055623Y-138951303D01*
X216230001Y-138531354D01*
X216230398Y-138076641D01*
X216056754Y-137656388D01*
X215735503Y-137334577D01*
X215315554Y-137160199D01*
X214860841Y-137159802D01*
X214440588Y-137333446D01*
X214399400Y-137374562D01*
X214399400Y-136691857D01*
X214438897Y-136731423D01*
X214858846Y-136905801D01*
X215313559Y-136906198D01*
X215733812Y-136732554D01*
X216055623Y-136411303D01*
X216230001Y-135991354D01*
X216230398Y-135536641D01*
X216056754Y-135116388D01*
X215735503Y-134794577D01*
X215315554Y-134620199D01*
X214860841Y-134619802D01*
X214440588Y-134793446D01*
X214367563Y-134866344D01*
X214360883Y-134832762D01*
X214251196Y-134668604D01*
X213641596Y-134059004D01*
X213477438Y-133949317D01*
X213444113Y-133942688D01*
X213515623Y-133871303D01*
X213690001Y-133451354D01*
X213690002Y-133449359D01*
X213944002Y-133449359D01*
X214117646Y-133869612D01*
X214438897Y-134191423D01*
X214858846Y-134365801D01*
X215313559Y-134366198D01*
X215733812Y-134192554D01*
X216055623Y-133871303D01*
X216230001Y-133451354D01*
X216230398Y-132996641D01*
X216056754Y-132576388D01*
X215735503Y-132254577D01*
X215315554Y-132080199D01*
X214860841Y-132079802D01*
X214440588Y-132253446D01*
X214118777Y-132574697D01*
X213944399Y-132994646D01*
X213944002Y-133449359D01*
X213690002Y-133449359D01*
X213690398Y-132996641D01*
X213516754Y-132576388D01*
X213195503Y-132254577D01*
X212775554Y-132080199D01*
X212320841Y-132079802D01*
X211900588Y-132253446D01*
X211578777Y-132574697D01*
X211551329Y-132640800D01*
X204368323Y-132640800D01*
X204297459Y-132569813D01*
X204047254Y-132465918D01*
X203776335Y-132465682D01*
X203525948Y-132569139D01*
X203334213Y-132760541D01*
X203230318Y-133010746D01*
X203230082Y-133281665D01*
X203333539Y-133532052D01*
X203524941Y-133723787D01*
X203775146Y-133827682D01*
X204046065Y-133827918D01*
X204296452Y-133724461D01*
X204368238Y-133652800D01*
X211488062Y-133652800D01*
X211577646Y-133869612D01*
X211618762Y-133910800D01*
X203688992Y-133910800D01*
X201496200Y-131718008D01*
X201496200Y-130909359D01*
X211404002Y-130909359D01*
X211577646Y-131329612D01*
X211898897Y-131651423D01*
X212318846Y-131825801D01*
X212773559Y-131826198D01*
X213193812Y-131652554D01*
X213515623Y-131331303D01*
X213690001Y-130911354D01*
X213690002Y-130909359D01*
X213944002Y-130909359D01*
X214117646Y-131329612D01*
X214438897Y-131651423D01*
X214858846Y-131825801D01*
X215313559Y-131826198D01*
X215733812Y-131652554D01*
X216055623Y-131331303D01*
X216230001Y-130911354D01*
X216230398Y-130456641D01*
X216056754Y-130036388D01*
X215735503Y-129714577D01*
X215315554Y-129540199D01*
X214860841Y-129539802D01*
X214440588Y-129713446D01*
X214118777Y-130034697D01*
X213944399Y-130454646D01*
X213944002Y-130909359D01*
X213690002Y-130909359D01*
X213690398Y-130456641D01*
X213516754Y-130036388D01*
X213195503Y-129714577D01*
X212775554Y-129540199D01*
X212320841Y-129539802D01*
X211900588Y-129713446D01*
X211578777Y-130034697D01*
X211404399Y-130454646D01*
X211404002Y-130909359D01*
X201496200Y-130909359D01*
X201496200Y-129260523D01*
X201567187Y-129189659D01*
X201671082Y-128939454D01*
X201671318Y-128668535D01*
X201567861Y-128418148D01*
X201519157Y-128369359D01*
X211404002Y-128369359D01*
X211577646Y-128789612D01*
X211898897Y-129111423D01*
X212318846Y-129285801D01*
X212773559Y-129286198D01*
X213193812Y-129112554D01*
X213515623Y-128791303D01*
X213690001Y-128371354D01*
X213690002Y-128369359D01*
X213944002Y-128369359D01*
X214117646Y-128789612D01*
X214438897Y-129111423D01*
X214858846Y-129285801D01*
X215313559Y-129286198D01*
X215733812Y-129112554D01*
X216055623Y-128791303D01*
X216230001Y-128371354D01*
X216230398Y-127916641D01*
X216056754Y-127496388D01*
X215735503Y-127174577D01*
X215315554Y-127000199D01*
X215121540Y-127000030D01*
X215434568Y-126984362D01*
X215818343Y-126825397D01*
X215887808Y-126583213D01*
X215087200Y-125782605D01*
X214286592Y-126583213D01*
X214356057Y-126825397D01*
X214853458Y-127002852D01*
X214440588Y-127173446D01*
X214118777Y-127494697D01*
X213944399Y-127914646D01*
X213944002Y-128369359D01*
X213690002Y-128369359D01*
X213690398Y-127916641D01*
X213516754Y-127496388D01*
X213195503Y-127174577D01*
X212775554Y-127000199D01*
X212320841Y-126999802D01*
X211900588Y-127173446D01*
X211578777Y-127494697D01*
X211404399Y-127914646D01*
X211404002Y-128369359D01*
X201519157Y-128369359D01*
X201376459Y-128226413D01*
X201126254Y-128122518D01*
X200855335Y-128122282D01*
X200604948Y-128225739D01*
X200413213Y-128417141D01*
X200309318Y-128667346D01*
X200309082Y-128938265D01*
X197531800Y-128938265D01*
X197531800Y-128592013D01*
X197556282Y-128533054D01*
X197556518Y-128262135D01*
X197531800Y-128202312D01*
X197531800Y-126316382D01*
X197581682Y-126196254D01*
X197581918Y-125925335D01*
X197542262Y-125829359D01*
X211404002Y-125829359D01*
X211577646Y-126249612D01*
X211898897Y-126571423D01*
X212318846Y-126745801D01*
X212773559Y-126746198D01*
X213193812Y-126572554D01*
X213515623Y-126251303D01*
X213690001Y-125831354D01*
X213690170Y-125637340D01*
X213705838Y-125950368D01*
X213864803Y-126334143D01*
X214106987Y-126403608D01*
X214907595Y-125603000D01*
X215266805Y-125603000D01*
X216067413Y-126403608D01*
X216309597Y-126334143D01*
X216496344Y-125810698D01*
X216468562Y-125255632D01*
X216309597Y-124871857D01*
X216067413Y-124802392D01*
X215266805Y-125603000D01*
X214907595Y-125603000D01*
X214106987Y-124802392D01*
X213864803Y-124871857D01*
X213687348Y-125369258D01*
X213516754Y-124956388D01*
X213195503Y-124634577D01*
X212775554Y-124460199D01*
X212320841Y-124459802D01*
X211900588Y-124633446D01*
X211578777Y-124954697D01*
X211404399Y-125374646D01*
X211404002Y-125829359D01*
X197542262Y-125829359D01*
X197531800Y-125804039D01*
X197531800Y-124040752D01*
X197607082Y-123859454D01*
X197607318Y-123588535D01*
X197503861Y-123338148D01*
X197455157Y-123289359D01*
X211404002Y-123289359D01*
X211577646Y-123709612D01*
X211898897Y-124031423D01*
X212318846Y-124205801D01*
X212773559Y-124206198D01*
X213168015Y-124043213D01*
X214286592Y-124043213D01*
X214356057Y-124285397D01*
X214479544Y-124329453D01*
X214356057Y-124380603D01*
X214286592Y-124622787D01*
X215087200Y-125423395D01*
X215887808Y-124622787D01*
X215818343Y-124380603D01*
X215694856Y-124336547D01*
X215818343Y-124285397D01*
X215887808Y-124043213D01*
X215087200Y-123242605D01*
X214286592Y-124043213D01*
X213168015Y-124043213D01*
X213193812Y-124032554D01*
X213515623Y-123711303D01*
X213690001Y-123291354D01*
X213690170Y-123097340D01*
X213705838Y-123410368D01*
X213864803Y-123794143D01*
X214106987Y-123863608D01*
X214907595Y-123063000D01*
X215266805Y-123063000D01*
X216067413Y-123863608D01*
X216309597Y-123794143D01*
X216496344Y-123270698D01*
X216468562Y-122715632D01*
X216309597Y-122331857D01*
X216067413Y-122262392D01*
X215266805Y-123063000D01*
X214907595Y-123063000D01*
X214106987Y-122262392D01*
X213864803Y-122331857D01*
X213687348Y-122829258D01*
X213516754Y-122416388D01*
X213195503Y-122094577D01*
X212775554Y-121920199D01*
X212320841Y-121919802D01*
X211900588Y-122093446D01*
X211578777Y-122414697D01*
X211404399Y-122834646D01*
X211404002Y-123289359D01*
X197455157Y-123289359D01*
X197312459Y-123146413D01*
X197062254Y-123042518D01*
X196791335Y-123042282D01*
X196540948Y-123145739D01*
X196349213Y-123337141D01*
X196245318Y-123587346D01*
X196245082Y-123858265D01*
X196269800Y-123918088D01*
X196269800Y-125804018D01*
X196219918Y-125924146D01*
X196219682Y-126195065D01*
X196269800Y-126316361D01*
X196269800Y-128079648D01*
X196194518Y-128260946D01*
X196194282Y-128531865D01*
X184313100Y-128531865D01*
X184313100Y-128085892D01*
X185657761Y-126741231D01*
X185758065Y-126741318D01*
X186008452Y-126637861D01*
X186200187Y-126446459D01*
X186304082Y-126196254D01*
X186304318Y-125925335D01*
X186275670Y-125856000D01*
X186500000Y-125856000D01*
X186693638Y-125817483D01*
X186857796Y-125707796D01*
X188357796Y-124207796D01*
X188467483Y-124043638D01*
X188506000Y-123850000D01*
X188506000Y-120749359D01*
X211404002Y-120749359D01*
X211577646Y-121169612D01*
X211898897Y-121491423D01*
X212318846Y-121665801D01*
X212773559Y-121666198D01*
X213193812Y-121492554D01*
X213515623Y-121171303D01*
X213690001Y-120751354D01*
X213690002Y-120749359D01*
X213944002Y-120749359D01*
X214117646Y-121169612D01*
X214438897Y-121491423D01*
X214858846Y-121665801D01*
X215052860Y-121665970D01*
X214739832Y-121681638D01*
X214356057Y-121840603D01*
X214286592Y-122082787D01*
X215087200Y-122883395D01*
X215887808Y-122082787D01*
X215818343Y-121840603D01*
X215320942Y-121663148D01*
X215733812Y-121492554D01*
X216055623Y-121171303D01*
X216230001Y-120751354D01*
X216230398Y-120296641D01*
X216056754Y-119876388D01*
X215735503Y-119554577D01*
X215315554Y-119380199D01*
X214860841Y-119379802D01*
X214440588Y-119553446D01*
X214118777Y-119874697D01*
X213944399Y-120294646D01*
X213944002Y-120749359D01*
X213690002Y-120749359D01*
X213690398Y-120296641D01*
X213516754Y-119876388D01*
X213195503Y-119554577D01*
X212775554Y-119380199D01*
X212320841Y-119379802D01*
X211900588Y-119553446D01*
X211578777Y-119874697D01*
X211404399Y-120294646D01*
X211404002Y-120749359D01*
X188506000Y-120749359D01*
X188506000Y-118209359D01*
X211404002Y-118209359D01*
X211577646Y-118629612D01*
X211898897Y-118951423D01*
X212318846Y-119125801D01*
X212773559Y-119126198D01*
X213193812Y-118952554D01*
X213515623Y-118631303D01*
X213690001Y-118211354D01*
X213690002Y-118209359D01*
X213944002Y-118209359D01*
X214117646Y-118629612D01*
X214438897Y-118951423D01*
X214858846Y-119125801D01*
X215313559Y-119126198D01*
X215733812Y-118952554D01*
X216055623Y-118631303D01*
X216230001Y-118211354D01*
X216230398Y-117756641D01*
X216056754Y-117336388D01*
X215735503Y-117014577D01*
X215315554Y-116840199D01*
X214860841Y-116839802D01*
X214440588Y-117013446D01*
X214118777Y-117334697D01*
X213944399Y-117754646D01*
X213944002Y-118209359D01*
X213690002Y-118209359D01*
X213690398Y-117756641D01*
X213516754Y-117336388D01*
X213195503Y-117014577D01*
X212775554Y-116840199D01*
X212320841Y-116839802D01*
X211900588Y-117013446D01*
X211578777Y-117334697D01*
X211404399Y-117754646D01*
X211404002Y-118209359D01*
X188506000Y-118209359D01*
X188506000Y-115669359D01*
X211404002Y-115669359D01*
X211577646Y-116089612D01*
X211898897Y-116411423D01*
X212318846Y-116585801D01*
X212773559Y-116586198D01*
X213193812Y-116412554D01*
X213515623Y-116091303D01*
X213690001Y-115671354D01*
X213690002Y-115669359D01*
X213944002Y-115669359D01*
X214117646Y-116089612D01*
X214438897Y-116411423D01*
X214858846Y-116585801D01*
X215313559Y-116586198D01*
X215733812Y-116412554D01*
X216055623Y-116091303D01*
X216230001Y-115671354D01*
X216230398Y-115216641D01*
X216056754Y-114796388D01*
X215735503Y-114474577D01*
X215315554Y-114300199D01*
X214860841Y-114299802D01*
X214440588Y-114473446D01*
X214118777Y-114794697D01*
X213944399Y-115214646D01*
X213944002Y-115669359D01*
X213690002Y-115669359D01*
X213690398Y-115216641D01*
X213516754Y-114796388D01*
X213195503Y-114474577D01*
X212775554Y-114300199D01*
X212320841Y-114299802D01*
X211900588Y-114473446D01*
X211578777Y-114794697D01*
X211404399Y-115214646D01*
X211404002Y-115669359D01*
X188506000Y-115669359D01*
X188506000Y-114457123D01*
X188576987Y-114386259D01*
X188680882Y-114136054D01*
X188680970Y-114034622D01*
X189507796Y-113207796D01*
X189560205Y-113129359D01*
X211404002Y-113129359D01*
X211577646Y-113549612D01*
X211898897Y-113871423D01*
X212318846Y-114045801D01*
X212773559Y-114046198D01*
X213193812Y-113872554D01*
X213515623Y-113551303D01*
X213690001Y-113131354D01*
X213690002Y-113129359D01*
X213944002Y-113129359D01*
X214117646Y-113549612D01*
X214438897Y-113871423D01*
X214858846Y-114045801D01*
X215313559Y-114046198D01*
X215733812Y-113872554D01*
X216055623Y-113551303D01*
X216230001Y-113131354D01*
X216230398Y-112676641D01*
X216056754Y-112256388D01*
X215735503Y-111934577D01*
X215315554Y-111760199D01*
X214860841Y-111759802D01*
X214440588Y-111933446D01*
X214118777Y-112254697D01*
X213944399Y-112674646D01*
X213944002Y-113129359D01*
X213690002Y-113129359D01*
X213690398Y-112676641D01*
X213516754Y-112256388D01*
X213195503Y-111934577D01*
X212775554Y-111760199D01*
X212320841Y-111759802D01*
X211900588Y-111933446D01*
X211578777Y-112254697D01*
X211404399Y-112674646D01*
X211404002Y-113129359D01*
X189560205Y-113129359D01*
X189579823Y-113100000D01*
X189617483Y-113043638D01*
X189656000Y-112850000D01*
X189656000Y-110589359D01*
X211404002Y-110589359D01*
X211577646Y-111009612D01*
X211898897Y-111331423D01*
X212318846Y-111505801D01*
X212773559Y-111506198D01*
X213193812Y-111332554D01*
X213515623Y-111011303D01*
X213690001Y-110591354D01*
X213690002Y-110589359D01*
X213944002Y-110589359D01*
X214117646Y-111009612D01*
X214438897Y-111331423D01*
X214858846Y-111505801D01*
X215313559Y-111506198D01*
X215733812Y-111332554D01*
X216055623Y-111011303D01*
X216230001Y-110591354D01*
X216230398Y-110136641D01*
X216056754Y-109716388D01*
X215735503Y-109394577D01*
X215315554Y-109220199D01*
X214860841Y-109219802D01*
X214440588Y-109393446D01*
X214118777Y-109714697D01*
X213944399Y-110134646D01*
X213944002Y-110589359D01*
X213690002Y-110589359D01*
X213690398Y-110136641D01*
X213516754Y-109716388D01*
X213195503Y-109394577D01*
X212775554Y-109220199D01*
X212581540Y-109220030D01*
X212894568Y-109204362D01*
X213278343Y-109045397D01*
X213347808Y-108803213D01*
X212547200Y-108002605D01*
X211746592Y-108803213D01*
X211816057Y-109045397D01*
X212313458Y-109222852D01*
X211900588Y-109393446D01*
X211578777Y-109714697D01*
X211404399Y-110134646D01*
X211404002Y-110589359D01*
X189656000Y-110589359D01*
X189656000Y-109957123D01*
X189726987Y-109886259D01*
X189830882Y-109636054D01*
X189831118Y-109365135D01*
X189727661Y-109114748D01*
X189656000Y-109042962D01*
X189656000Y-107634865D01*
X191318882Y-107634865D01*
X191422339Y-107885252D01*
X191613741Y-108076987D01*
X191863946Y-108180882D01*
X192134865Y-108181118D01*
X192385252Y-108077661D01*
X192576987Y-107886259D01*
X192627318Y-107765050D01*
X192777066Y-107615302D01*
X211138056Y-107615302D01*
X211165838Y-108170368D01*
X211324803Y-108554143D01*
X211566987Y-108623608D01*
X212367595Y-107823000D01*
X212726805Y-107823000D01*
X213527413Y-108623608D01*
X213769597Y-108554143D01*
X213947052Y-108056742D01*
X214117646Y-108469612D01*
X214438897Y-108791423D01*
X214858846Y-108965801D01*
X215313559Y-108966198D01*
X215733812Y-108792554D01*
X216055623Y-108471303D01*
X216230001Y-108051354D01*
X216230398Y-107596641D01*
X216056754Y-107176388D01*
X215735503Y-106854577D01*
X215315554Y-106680199D01*
X215121540Y-106680030D01*
X215434568Y-106664362D01*
X215818343Y-106505397D01*
X215887808Y-106263213D01*
X215087200Y-105462605D01*
X214286592Y-106263213D01*
X214356057Y-106505397D01*
X214853458Y-106682852D01*
X214440588Y-106853446D01*
X214118777Y-107174697D01*
X213944399Y-107594646D01*
X213944230Y-107788660D01*
X213928562Y-107475632D01*
X213769597Y-107091857D01*
X213527413Y-107022392D01*
X212726805Y-107823000D01*
X212367595Y-107823000D01*
X211566987Y-107022392D01*
X211324803Y-107091857D01*
X211138056Y-107615302D01*
X192777066Y-107615302D01*
X193046184Y-107346184D01*
X193182968Y-107141474D01*
X193200404Y-107053816D01*
X193231000Y-106900000D01*
X193231000Y-105509359D01*
X211404002Y-105509359D01*
X211577646Y-105929612D01*
X211898897Y-106251423D01*
X212318846Y-106425801D01*
X212512860Y-106425970D01*
X212199832Y-106441638D01*
X211816057Y-106600603D01*
X211746592Y-106842787D01*
X212547200Y-107643395D01*
X213347808Y-106842787D01*
X213278343Y-106600603D01*
X212780942Y-106423148D01*
X213193812Y-106252554D01*
X213515623Y-105931303D01*
X213690001Y-105511354D01*
X213690170Y-105317340D01*
X213705838Y-105630368D01*
X213864803Y-106014143D01*
X214106987Y-106083608D01*
X214907595Y-105283000D01*
X215266805Y-105283000D01*
X216067413Y-106083608D01*
X216309597Y-106014143D01*
X216496344Y-105490698D01*
X216468562Y-104935632D01*
X216309597Y-104551857D01*
X216067413Y-104482392D01*
X215266805Y-105283000D01*
X214907595Y-105283000D01*
X214106987Y-104482392D01*
X213864803Y-104551857D01*
X213687348Y-105049258D01*
X213516754Y-104636388D01*
X213195503Y-104314577D01*
X212775554Y-104140199D01*
X212320841Y-104139802D01*
X211900588Y-104313446D01*
X211578777Y-104634697D01*
X211404399Y-105054646D01*
X211404002Y-105509359D01*
X193231000Y-105509359D01*
X193231000Y-102969359D01*
X211404002Y-102969359D01*
X211577646Y-103389612D01*
X211898897Y-103711423D01*
X212318846Y-103885801D01*
X212773559Y-103886198D01*
X213168015Y-103723213D01*
X214286592Y-103723213D01*
X214356057Y-103965397D01*
X214479544Y-104009453D01*
X214356057Y-104060603D01*
X214286592Y-104302787D01*
X215087200Y-105103395D01*
X215887808Y-104302787D01*
X215818343Y-104060603D01*
X215694856Y-104016547D01*
X215818343Y-103965397D01*
X215887808Y-103723213D01*
X215087200Y-102922605D01*
X214286592Y-103723213D01*
X213168015Y-103723213D01*
X213193812Y-103712554D01*
X213515623Y-103391303D01*
X213690001Y-102971354D01*
X213690170Y-102777340D01*
X213705838Y-103090368D01*
X213864803Y-103474143D01*
X214106987Y-103543608D01*
X214907595Y-102743000D01*
X215266805Y-102743000D01*
X216067413Y-103543608D01*
X216309597Y-103474143D01*
X216496344Y-102950698D01*
X216468562Y-102395632D01*
X216309597Y-102011857D01*
X216067413Y-101942392D01*
X215266805Y-102743000D01*
X214907595Y-102743000D01*
X214106987Y-101942392D01*
X213864803Y-102011857D01*
X213687348Y-102509258D01*
X213516754Y-102096388D01*
X213195503Y-101774577D01*
X212775554Y-101600199D01*
X212320841Y-101599802D01*
X211900588Y-101773446D01*
X211578777Y-102094697D01*
X211404399Y-102514646D01*
X211404002Y-102969359D01*
X193231000Y-102969359D01*
X193231000Y-102506182D01*
X193280882Y-102386054D01*
X193281118Y-102115135D01*
X193177661Y-101864748D01*
X192986259Y-101673013D01*
X192736054Y-101569118D01*
X192465135Y-101568882D01*
X192214748Y-101672339D01*
X192023013Y-101863741D01*
X191919118Y-102113946D01*
X191918882Y-102384865D01*
X191969000Y-102506161D01*
X191969000Y-106638632D01*
X191734965Y-106872667D01*
X191614748Y-106922339D01*
X191423013Y-107113741D01*
X191319118Y-107363946D01*
X191318882Y-107634865D01*
X189656000Y-107634865D01*
X189656000Y-105407123D01*
X189726987Y-105336259D01*
X189830882Y-105086054D01*
X189831118Y-104815135D01*
X189727661Y-104564748D01*
X189536259Y-104373013D01*
X189286054Y-104269118D01*
X189015135Y-104268882D01*
X188764748Y-104372339D01*
X188743049Y-104394000D01*
X186307123Y-104394000D01*
X186236259Y-104323013D01*
X185986054Y-104219118D01*
X185715135Y-104218882D01*
X185464748Y-104322339D01*
X185273013Y-104513741D01*
X185169118Y-104763946D01*
X185168882Y-105034865D01*
X185272339Y-105285252D01*
X185463741Y-105476987D01*
X185713946Y-105580882D01*
X185984865Y-105581118D01*
X186235252Y-105477661D01*
X186307038Y-105406000D01*
X188642964Y-105406000D01*
X188644000Y-105407038D01*
X188644000Y-109042877D01*
X188573013Y-109113741D01*
X188469118Y-109363946D01*
X188468882Y-109634865D01*
X188572339Y-109885252D01*
X188644000Y-109957038D01*
X188644000Y-111130941D01*
X188536259Y-111023013D01*
X188286054Y-110919118D01*
X188015135Y-110918882D01*
X187764748Y-111022339D01*
X187573013Y-111213741D01*
X187469118Y-111463946D01*
X187469030Y-111565378D01*
X186292204Y-112742204D01*
X186182517Y-112906362D01*
X186144000Y-113100000D01*
X186144000Y-123230344D01*
X186034859Y-123121013D01*
X185784654Y-123017118D01*
X185513735Y-123016882D01*
X185263348Y-123120339D01*
X185191562Y-123192000D01*
X172923200Y-123192000D01*
X172729562Y-123230517D01*
X172565404Y-123340204D01*
X170501039Y-125404569D01*
X170400735Y-125404482D01*
X170150348Y-125507939D01*
X169958613Y-125699341D01*
X169854718Y-125949546D01*
X169854482Y-126220465D01*
X166468127Y-126220465D01*
X168436561Y-124252031D01*
X168536865Y-124252118D01*
X168787252Y-124148661D01*
X168978987Y-123957259D01*
X169082882Y-123707054D01*
X169083118Y-123436135D01*
X168979661Y-123185748D01*
X168788259Y-122994013D01*
X168538054Y-122890118D01*
X168267135Y-122889882D01*
X168016748Y-122993339D01*
X167825013Y-123184741D01*
X167721118Y-123434946D01*
X167721030Y-123536378D01*
X158288512Y-132968896D01*
X158180741Y-132968802D01*
X157760488Y-133142446D01*
X157438677Y-133463697D01*
X157264299Y-133883646D01*
X157263902Y-134338359D01*
X121487000Y-134338359D01*
X121487000Y-131534865D01*
X123218882Y-131534865D01*
X123322339Y-131785252D01*
X123513741Y-131976987D01*
X123634949Y-132027317D01*
X124323816Y-132716185D01*
X124528527Y-132852968D01*
X124770000Y-132901000D01*
X151050000Y-132901000D01*
X151291473Y-132852968D01*
X151496184Y-132716184D01*
X166571368Y-117641000D01*
X175800000Y-117641000D01*
X176041473Y-117592968D01*
X176246184Y-117456184D01*
X182821369Y-110881000D01*
X182843818Y-110881000D01*
X182963946Y-110930882D01*
X183234865Y-110931118D01*
X183485252Y-110827661D01*
X183676987Y-110636259D01*
X183780882Y-110386054D01*
X183781118Y-110115135D01*
X183677661Y-109864748D01*
X183531000Y-109717832D01*
X183531000Y-107356182D01*
X183580882Y-107236054D01*
X183581118Y-106965135D01*
X183531000Y-106843839D01*
X183531000Y-104961368D01*
X185615036Y-102877333D01*
X185735252Y-102827661D01*
X185926987Y-102636259D01*
X186030882Y-102386054D01*
X186031118Y-102115135D01*
X185927661Y-101864748D01*
X185736259Y-101673013D01*
X185486054Y-101569118D01*
X185215135Y-101568882D01*
X184964748Y-101672339D01*
X184773013Y-101863741D01*
X184722683Y-101984948D01*
X182453816Y-104253816D01*
X182317032Y-104458527D01*
X182269000Y-104700000D01*
X182269000Y-106843818D01*
X182219118Y-106963946D01*
X182218882Y-107234865D01*
X182269000Y-107356161D01*
X182269000Y-109700125D01*
X182113816Y-109803815D01*
X175538632Y-116379000D01*
X166310000Y-116379000D01*
X166068527Y-116427032D01*
X165863816Y-116563816D01*
X150788632Y-131639000D01*
X125031369Y-131639000D01*
X124527333Y-131134965D01*
X124477661Y-131014748D01*
X124286259Y-130823013D01*
X124036054Y-130719118D01*
X123765135Y-130718882D01*
X123514748Y-130822339D01*
X123323013Y-131013741D01*
X123219118Y-131263946D01*
X123218882Y-131534865D01*
X121487000Y-131534865D01*
X121487000Y-117934865D01*
X125718882Y-117934865D01*
X125822339Y-118185252D01*
X125894000Y-118257038D01*
X125894000Y-119600000D01*
X125932517Y-119793638D01*
X126042204Y-119957796D01*
X131786226Y-125701818D01*
X131635774Y-125639345D01*
X130847684Y-125638657D01*
X130119320Y-125939611D01*
X129561569Y-126496389D01*
X129259345Y-127224226D01*
X129258657Y-128012316D01*
X129559611Y-128740680D01*
X130116389Y-129298431D01*
X130844226Y-129600655D01*
X131632316Y-129601343D01*
X132360680Y-129300389D01*
X132918431Y-128743611D01*
X133220655Y-128015774D01*
X133221343Y-127227684D01*
X133135618Y-127020213D01*
X133206362Y-127067483D01*
X133400000Y-127106000D01*
X137660000Y-127106000D01*
X137853638Y-127067483D01*
X138017796Y-126957796D01*
X138853808Y-126121784D01*
X139044065Y-126200786D01*
X139533787Y-126201213D01*
X139986395Y-126014200D01*
X140332983Y-125668216D01*
X140520786Y-125215935D01*
X140521213Y-124726213D01*
X140334200Y-124273605D01*
X139988216Y-123927017D01*
X139535935Y-123739214D01*
X139046213Y-123738787D01*
X138593605Y-123925800D01*
X138247017Y-124271784D01*
X138183843Y-124423923D01*
X138085259Y-124185920D01*
X137833958Y-124105647D01*
X136969605Y-124970000D01*
X136983748Y-124984143D01*
X136804143Y-125163748D01*
X136790000Y-125149605D01*
X135925647Y-126013958D01*
X135951215Y-126094000D01*
X134793263Y-126094000D01*
X134986395Y-126014200D01*
X135332983Y-125668216D01*
X135396157Y-125516077D01*
X135494741Y-125754080D01*
X135746042Y-125834353D01*
X136610395Y-124970000D01*
X135746042Y-124105647D01*
X135494741Y-124185920D01*
X135402750Y-124439510D01*
X135334200Y-124273605D01*
X134988216Y-123927017D01*
X134535935Y-123739214D01*
X134046213Y-123738787D01*
X133593605Y-123925800D01*
X133247017Y-124271784D01*
X133059214Y-124724065D01*
X133058787Y-125213787D01*
X133245800Y-125666395D01*
X133591784Y-126012983D01*
X133786895Y-126094000D01*
X133609592Y-126094000D01*
X130229379Y-122713787D01*
X133058787Y-122713787D01*
X133245800Y-123166395D01*
X133591784Y-123512983D01*
X134044065Y-123700786D01*
X134533787Y-123701213D01*
X134986395Y-123514200D01*
X135332983Y-123168216D01*
X135520786Y-122715935D01*
X135520787Y-122713787D01*
X135558787Y-122713787D01*
X135745800Y-123166395D01*
X136091784Y-123512983D01*
X136243923Y-123576157D01*
X136005920Y-123674741D01*
X135925647Y-123926042D01*
X136790000Y-124790395D01*
X137654353Y-123926042D01*
X137574080Y-123674741D01*
X137320490Y-123582750D01*
X137486395Y-123514200D01*
X137832983Y-123168216D01*
X138020786Y-122715935D01*
X138020787Y-122713787D01*
X138058787Y-122713787D01*
X138245800Y-123166395D01*
X138591784Y-123512983D01*
X139044065Y-123700786D01*
X139533787Y-123701213D01*
X139986395Y-123514200D01*
X140332983Y-123168216D01*
X140520786Y-122715935D01*
X140520787Y-122713787D01*
X140558787Y-122713787D01*
X140745800Y-123166395D01*
X141091784Y-123512983D01*
X141544065Y-123700786D01*
X142033787Y-123701213D01*
X142288397Y-123596011D01*
X142113137Y-123771271D01*
X142035935Y-123739214D01*
X141546213Y-123738787D01*
X141093605Y-123925800D01*
X140747017Y-124271784D01*
X140559214Y-124724065D01*
X140558787Y-125213787D01*
X140745800Y-125666395D01*
X141091784Y-126012983D01*
X141544065Y-126200786D01*
X142033787Y-126201213D01*
X142486395Y-126014200D01*
X142832983Y-125668216D01*
X143020786Y-125215935D01*
X143021213Y-124726213D01*
X142894953Y-124420639D01*
X143109592Y-124206000D01*
X143312916Y-124206000D01*
X143247017Y-124271784D01*
X143059214Y-124724065D01*
X143058787Y-125213787D01*
X143245800Y-125666395D01*
X143591784Y-126012983D01*
X144044065Y-126200786D01*
X144533787Y-126201213D01*
X144986395Y-126014200D01*
X144986637Y-126013958D01*
X145925647Y-126013958D01*
X146005920Y-126265259D01*
X146561279Y-126466718D01*
X147151458Y-126440315D01*
X147574080Y-126265259D01*
X147654353Y-126013958D01*
X146790000Y-125149605D01*
X145925647Y-126013958D01*
X144986637Y-126013958D01*
X145332983Y-125668216D01*
X145396157Y-125516077D01*
X145494741Y-125754080D01*
X145746042Y-125834353D01*
X146610395Y-124970000D01*
X146969605Y-124970000D01*
X147833958Y-125834353D01*
X148085259Y-125754080D01*
X148286718Y-125198721D01*
X148260315Y-124608542D01*
X148085259Y-124185920D01*
X147833958Y-124105647D01*
X146969605Y-124970000D01*
X146610395Y-124970000D01*
X146596253Y-124955858D01*
X146775858Y-124776253D01*
X146790000Y-124790395D01*
X147654353Y-123926042D01*
X147574080Y-123674741D01*
X147320490Y-123582750D01*
X147486395Y-123514200D01*
X147832983Y-123168216D01*
X148020786Y-122715935D01*
X148021213Y-122226213D01*
X147834200Y-121773605D01*
X147488216Y-121427017D01*
X147035935Y-121239214D01*
X146546213Y-121238787D01*
X146093605Y-121425800D01*
X145747017Y-121771784D01*
X145559214Y-122224065D01*
X145558787Y-122713787D01*
X145638266Y-122906142D01*
X145350408Y-123194000D01*
X145307154Y-123194000D01*
X145332983Y-123168216D01*
X145520786Y-122715935D01*
X145521213Y-122226213D01*
X145334200Y-121773605D01*
X144988216Y-121427017D01*
X144535935Y-121239214D01*
X144046213Y-121238787D01*
X143593605Y-121425800D01*
X143247017Y-121771784D01*
X143059214Y-122224065D01*
X143058787Y-122713787D01*
X143245800Y-123166395D01*
X143273357Y-123194000D01*
X142900000Y-123194000D01*
X142784050Y-123217064D01*
X142832983Y-123168216D01*
X143020786Y-122715935D01*
X143021213Y-122226213D01*
X142834200Y-121773605D01*
X142488216Y-121427017D01*
X142035935Y-121239214D01*
X141546213Y-121238787D01*
X141093605Y-121425800D01*
X140747017Y-121771784D01*
X140559214Y-122224065D01*
X140558787Y-122713787D01*
X140520787Y-122713787D01*
X140521213Y-122226213D01*
X140334200Y-121773605D01*
X139988216Y-121427017D01*
X139535935Y-121239214D01*
X139046213Y-121238787D01*
X138593605Y-121425800D01*
X138247017Y-121771784D01*
X138059214Y-122224065D01*
X138058787Y-122713787D01*
X138020787Y-122713787D01*
X138021213Y-122226213D01*
X137834200Y-121773605D01*
X137488216Y-121427017D01*
X137035935Y-121239214D01*
X136546213Y-121238787D01*
X136093605Y-121425800D01*
X135747017Y-121771784D01*
X135559214Y-122224065D01*
X135558787Y-122713787D01*
X135520787Y-122713787D01*
X135521213Y-122226213D01*
X135334200Y-121773605D01*
X134988216Y-121427017D01*
X134535935Y-121239214D01*
X134046213Y-121238787D01*
X133593605Y-121425800D01*
X133247017Y-121771784D01*
X133059214Y-122224065D01*
X133058787Y-122713787D01*
X130229379Y-122713787D01*
X127727908Y-120212316D01*
X129258657Y-120212316D01*
X129559611Y-120940680D01*
X130116389Y-121498431D01*
X130844226Y-121800655D01*
X131632316Y-121801343D01*
X132360680Y-121500389D01*
X132918431Y-120943611D01*
X133220655Y-120215774D01*
X133221343Y-119427684D01*
X132920389Y-118699320D01*
X132363611Y-118141569D01*
X131635774Y-117839345D01*
X130847684Y-117838657D01*
X130119320Y-118139611D01*
X129561569Y-118696389D01*
X129259345Y-119424226D01*
X129258657Y-120212316D01*
X127727908Y-120212316D01*
X126906000Y-119390408D01*
X126906000Y-118257123D01*
X126976987Y-118186259D01*
X127080882Y-117936054D01*
X127081118Y-117665135D01*
X126977661Y-117414748D01*
X126786259Y-117223013D01*
X126536054Y-117119118D01*
X126265135Y-117118882D01*
X126014748Y-117222339D01*
X125823013Y-117413741D01*
X125719118Y-117663946D01*
X125718882Y-117934865D01*
X121487000Y-117934865D01*
X121487000Y-100048925D01*
X130782400Y-100048925D01*
X131015358Y-100430038D01*
X132023184Y-100840087D01*
X133111214Y-100833245D01*
X134084642Y-100430038D01*
X134085057Y-100429359D01*
X211404002Y-100429359D01*
X211577646Y-100849612D01*
X211898897Y-101171423D01*
X212318846Y-101345801D01*
X212773559Y-101346198D01*
X213168015Y-101183213D01*
X214286592Y-101183213D01*
X214356057Y-101425397D01*
X214479544Y-101469453D01*
X214356057Y-101520603D01*
X214286592Y-101762787D01*
X215087200Y-102563395D01*
X215887808Y-101762787D01*
X215818343Y-101520603D01*
X215694856Y-101476547D01*
X215818343Y-101425397D01*
X215887808Y-101183213D01*
X215087200Y-100382605D01*
X214286592Y-101183213D01*
X213168015Y-101183213D01*
X213193812Y-101172554D01*
X213515623Y-100851303D01*
X213690001Y-100431354D01*
X213690170Y-100237340D01*
X213705838Y-100550368D01*
X213864803Y-100934143D01*
X214106987Y-101003608D01*
X214907595Y-100203000D01*
X215266805Y-100203000D01*
X216067413Y-101003608D01*
X216309597Y-100934143D01*
X216496344Y-100410698D01*
X216468562Y-99855632D01*
X216309597Y-99471857D01*
X216067413Y-99402392D01*
X215266805Y-100203000D01*
X214907595Y-100203000D01*
X214106987Y-99402392D01*
X213864803Y-99471857D01*
X213687348Y-99969258D01*
X213516754Y-99556388D01*
X213195503Y-99234577D01*
X212775554Y-99060199D01*
X212320841Y-99059802D01*
X211900588Y-99233446D01*
X211578777Y-99554697D01*
X211404399Y-99974646D01*
X211404002Y-100429359D01*
X134085057Y-100429359D01*
X134317600Y-100048925D01*
X132550000Y-98281325D01*
X130782400Y-100048925D01*
X121487000Y-100048925D01*
X121487000Y-97574904D01*
X129811633Y-97574904D01*
X129818475Y-98662934D01*
X130221682Y-99636362D01*
X130602795Y-99869320D01*
X132370395Y-98101720D01*
X132729605Y-98101720D01*
X134497205Y-99869320D01*
X134878318Y-99636362D01*
X135288367Y-98628536D01*
X135281525Y-97540506D01*
X134878318Y-96567078D01*
X134497205Y-96334120D01*
X132729605Y-98101720D01*
X132370395Y-98101720D01*
X130602795Y-96334120D01*
X130221682Y-96567078D01*
X129811633Y-97574904D01*
X121487000Y-97574904D01*
X121487000Y-96154515D01*
X130782400Y-96154515D01*
X132550000Y-97922115D01*
X134317600Y-96154515D01*
X134084642Y-95773402D01*
X133076816Y-95363353D01*
X131988786Y-95370195D01*
X131015358Y-95773402D01*
X130782400Y-96154515D01*
X121487000Y-96154515D01*
X121487000Y-92171479D01*
X131649446Y-92171479D01*
X131735852Y-92427963D01*
X132309336Y-92637778D01*
X132919460Y-92612159D01*
X133364148Y-92427963D01*
X133450554Y-92171479D01*
X132550000Y-91270925D01*
X131649446Y-92171479D01*
X121487000Y-92171479D01*
X121487000Y-81027529D01*
X128728778Y-81027529D01*
X128923388Y-81498520D01*
X129283425Y-81859185D01*
X129428164Y-81919286D01*
X129285320Y-81978308D01*
X128924655Y-82338345D01*
X128729223Y-82808996D01*
X128728778Y-83318609D01*
X128923388Y-83789600D01*
X129283425Y-84150265D01*
X129428164Y-84210366D01*
X129285320Y-84269388D01*
X128924655Y-84629425D01*
X128729223Y-85100076D01*
X128728778Y-85609689D01*
X128923388Y-86080680D01*
X129283425Y-86441345D01*
X129428164Y-86501446D01*
X129285320Y-86560468D01*
X128924655Y-86920505D01*
X128729223Y-87391156D01*
X128728778Y-87900769D01*
X128923388Y-88371760D01*
X129283425Y-88732425D01*
X129428164Y-88792526D01*
X129285320Y-88851548D01*
X128924655Y-89211585D01*
X128729223Y-89682236D01*
X128728778Y-90191849D01*
X128923388Y-90662840D01*
X129283425Y-91023505D01*
X129754076Y-91218937D01*
X130263689Y-91219382D01*
X130734680Y-91024772D01*
X131057880Y-90702135D01*
X131003542Y-90850656D01*
X131029161Y-91460780D01*
X131213357Y-91905468D01*
X131469841Y-91991874D01*
X132370395Y-91091320D01*
X131469841Y-90190766D01*
X131263256Y-90260362D01*
X131290777Y-90194084D01*
X131291050Y-89880399D01*
X131649446Y-89880399D01*
X131671472Y-89945780D01*
X131649446Y-90011161D01*
X131715878Y-90077593D01*
X131735852Y-90136883D01*
X131797851Y-90159566D01*
X132550000Y-90911715D01*
X133297031Y-90164684D01*
X133364148Y-90136883D01*
X133384122Y-90077593D01*
X133450554Y-90011161D01*
X133428528Y-89945780D01*
X133450554Y-89880399D01*
X133384122Y-89813967D01*
X133364148Y-89754677D01*
X133302149Y-89731994D01*
X132550000Y-88979845D01*
X131802969Y-89726876D01*
X131735852Y-89754677D01*
X131715878Y-89813967D01*
X131649446Y-89880399D01*
X131291050Y-89880399D01*
X131291222Y-89684471D01*
X131270173Y-89633529D01*
X131469841Y-89700794D01*
X132370395Y-88800240D01*
X131469841Y-87899686D01*
X131263256Y-87969282D01*
X131290777Y-87903004D01*
X131291050Y-87589319D01*
X131649446Y-87589319D01*
X131671472Y-87654700D01*
X131649446Y-87720081D01*
X131715878Y-87786513D01*
X131735852Y-87845803D01*
X131797851Y-87868486D01*
X132550000Y-88620635D01*
X133297031Y-87873604D01*
X133364148Y-87845803D01*
X133384122Y-87786513D01*
X133450554Y-87720081D01*
X133428528Y-87654700D01*
X133450554Y-87589319D01*
X133384122Y-87522887D01*
X133364148Y-87463597D01*
X133302149Y-87440914D01*
X132550000Y-86688765D01*
X131802969Y-87435796D01*
X131735852Y-87463597D01*
X131715878Y-87522887D01*
X131649446Y-87589319D01*
X131291050Y-87589319D01*
X131291222Y-87393391D01*
X131270173Y-87342449D01*
X131469841Y-87409714D01*
X132370395Y-86509160D01*
X131469841Y-85608606D01*
X131263256Y-85678202D01*
X131290777Y-85611924D01*
X131291050Y-85298239D01*
X131649446Y-85298239D01*
X131671472Y-85363620D01*
X131649446Y-85429001D01*
X131715878Y-85495433D01*
X131735852Y-85554723D01*
X131797851Y-85577406D01*
X132550000Y-86329555D01*
X133297031Y-85582524D01*
X133364148Y-85554723D01*
X133384122Y-85495433D01*
X133450554Y-85429001D01*
X133428528Y-85363620D01*
X133450554Y-85298239D01*
X133384122Y-85231807D01*
X133364148Y-85172517D01*
X133302149Y-85149834D01*
X132550000Y-84397685D01*
X131802969Y-85144716D01*
X131735852Y-85172517D01*
X131715878Y-85231807D01*
X131649446Y-85298239D01*
X131291050Y-85298239D01*
X131291222Y-85102311D01*
X131270173Y-85051369D01*
X131469841Y-85118634D01*
X132370395Y-84218080D01*
X131469841Y-83317526D01*
X131263256Y-83387122D01*
X131290777Y-83320844D01*
X131291050Y-83007159D01*
X131649446Y-83007159D01*
X131671472Y-83072540D01*
X131649446Y-83137921D01*
X131715878Y-83204353D01*
X131735852Y-83263643D01*
X131797851Y-83286326D01*
X132550000Y-84038475D01*
X133297031Y-83291444D01*
X133364148Y-83263643D01*
X133384122Y-83204353D01*
X133450554Y-83137921D01*
X133428528Y-83072540D01*
X133450554Y-83007159D01*
X133384122Y-82940727D01*
X133364148Y-82881437D01*
X133302149Y-82858754D01*
X132550000Y-82106605D01*
X131802969Y-82853636D01*
X131735852Y-82881437D01*
X131715878Y-82940727D01*
X131649446Y-83007159D01*
X131291050Y-83007159D01*
X131291222Y-82811231D01*
X131270173Y-82760289D01*
X131469841Y-82827554D01*
X132370395Y-81927000D01*
X132729605Y-81927000D01*
X133630159Y-82827554D01*
X133829387Y-82760437D01*
X133809223Y-82808996D01*
X133808778Y-83318609D01*
X133837142Y-83387256D01*
X133630159Y-83317526D01*
X132729605Y-84218080D01*
X133630159Y-85118634D01*
X133829387Y-85051517D01*
X133809223Y-85100076D01*
X133808778Y-85609689D01*
X133837142Y-85678336D01*
X133630159Y-85608606D01*
X132729605Y-86509160D01*
X133630159Y-87409714D01*
X133829387Y-87342597D01*
X133809223Y-87391156D01*
X133808778Y-87900769D01*
X133837142Y-87969416D01*
X133630159Y-87899686D01*
X132729605Y-88800240D01*
X133630159Y-89700794D01*
X133829387Y-89633677D01*
X133809223Y-89682236D01*
X133808778Y-90191849D01*
X133837142Y-90260496D01*
X133630159Y-90190766D01*
X132729605Y-91091320D01*
X133630159Y-91991874D01*
X133886643Y-91905468D01*
X134096458Y-91331984D01*
X134071214Y-90730784D01*
X134363425Y-91023505D01*
X134834076Y-91218937D01*
X135343689Y-91219382D01*
X135814680Y-91024772D01*
X136175345Y-90664735D01*
X136370777Y-90194084D01*
X136371222Y-89684471D01*
X136176612Y-89213480D01*
X135816575Y-88852815D01*
X135671836Y-88792714D01*
X135814680Y-88733692D01*
X136175345Y-88373655D01*
X136266936Y-88153080D01*
X137387488Y-88153080D01*
X142594000Y-93359592D01*
X142594000Y-97660000D01*
X142632517Y-97853638D01*
X142742204Y-98017796D01*
X144058969Y-99334561D01*
X144058882Y-99434865D01*
X144162339Y-99685252D01*
X144353741Y-99876987D01*
X144603946Y-99980882D01*
X144874865Y-99981118D01*
X145125252Y-99877661D01*
X145316987Y-99686259D01*
X145420882Y-99436054D01*
X145421118Y-99165135D01*
X145317661Y-98914748D01*
X145126259Y-98723013D01*
X144916867Y-98636065D01*
X198073882Y-98636065D01*
X198177339Y-98886452D01*
X198368741Y-99078187D01*
X198618946Y-99182082D01*
X198889865Y-99182318D01*
X199140252Y-99078861D01*
X199331987Y-98887459D01*
X199382318Y-98766250D01*
X200259209Y-97889359D01*
X211404002Y-97889359D01*
X211577646Y-98309612D01*
X211898897Y-98631423D01*
X212318846Y-98805801D01*
X212773559Y-98806198D01*
X213168015Y-98643213D01*
X214286592Y-98643213D01*
X214356057Y-98885397D01*
X214479544Y-98929453D01*
X214356057Y-98980603D01*
X214286592Y-99222787D01*
X215087200Y-100023395D01*
X215887808Y-99222787D01*
X215818343Y-98980603D01*
X215694856Y-98936547D01*
X215818343Y-98885397D01*
X215887808Y-98643213D01*
X215087200Y-97842605D01*
X214286592Y-98643213D01*
X213168015Y-98643213D01*
X213193812Y-98632554D01*
X213515623Y-98311303D01*
X213690001Y-97891354D01*
X213690170Y-97697340D01*
X213705838Y-98010368D01*
X213864803Y-98394143D01*
X214106987Y-98463608D01*
X214907595Y-97663000D01*
X215266805Y-97663000D01*
X216067413Y-98463608D01*
X216309597Y-98394143D01*
X216496344Y-97870698D01*
X216468562Y-97315632D01*
X216309597Y-96931857D01*
X216067413Y-96862392D01*
X215266805Y-97663000D01*
X214907595Y-97663000D01*
X214106987Y-96862392D01*
X213864803Y-96931857D01*
X213687348Y-97429258D01*
X213516754Y-97016388D01*
X213195503Y-96694577D01*
X212775554Y-96520199D01*
X212320841Y-96519802D01*
X211900588Y-96693446D01*
X211578777Y-97014697D01*
X211404399Y-97434646D01*
X211404002Y-97889359D01*
X200259209Y-97889359D01*
X202799209Y-95349359D01*
X211404002Y-95349359D01*
X211577646Y-95769612D01*
X211898897Y-96091423D01*
X212318846Y-96265801D01*
X212773559Y-96266198D01*
X213168015Y-96103213D01*
X214286592Y-96103213D01*
X214356057Y-96345397D01*
X214479544Y-96389453D01*
X214356057Y-96440603D01*
X214286592Y-96682787D01*
X215087200Y-97483395D01*
X215887808Y-96682787D01*
X215818343Y-96440603D01*
X215694856Y-96396547D01*
X215818343Y-96345397D01*
X215887808Y-96103213D01*
X215087200Y-95302605D01*
X214286592Y-96103213D01*
X213168015Y-96103213D01*
X213193812Y-96092554D01*
X213515623Y-95771303D01*
X213690001Y-95351354D01*
X213690170Y-95157340D01*
X213705838Y-95470368D01*
X213864803Y-95854143D01*
X214106987Y-95923608D01*
X214907595Y-95123000D01*
X215266805Y-95123000D01*
X216067413Y-95923608D01*
X216309597Y-95854143D01*
X216496344Y-95330698D01*
X216468562Y-94775632D01*
X216309597Y-94391857D01*
X216067413Y-94322392D01*
X215266805Y-95123000D01*
X214907595Y-95123000D01*
X214106987Y-94322392D01*
X213864803Y-94391857D01*
X213687348Y-94889258D01*
X213516754Y-94476388D01*
X213195503Y-94154577D01*
X212775554Y-93980199D01*
X212320841Y-93979802D01*
X211900588Y-94153446D01*
X211578777Y-94474697D01*
X211404399Y-94894646D01*
X211404002Y-95349359D01*
X202799209Y-95349359D01*
X205339209Y-92809359D01*
X211404002Y-92809359D01*
X211577646Y-93229612D01*
X211898897Y-93551423D01*
X212318846Y-93725801D01*
X212773559Y-93726198D01*
X213168015Y-93563213D01*
X214286592Y-93563213D01*
X214356057Y-93805397D01*
X214479544Y-93849453D01*
X214356057Y-93900603D01*
X214286592Y-94142787D01*
X215087200Y-94943395D01*
X215887808Y-94142787D01*
X215818343Y-93900603D01*
X215694856Y-93856547D01*
X215818343Y-93805397D01*
X215887808Y-93563213D01*
X215087200Y-92762605D01*
X214286592Y-93563213D01*
X213168015Y-93563213D01*
X213193812Y-93552554D01*
X213515623Y-93231303D01*
X213690001Y-92811354D01*
X213690170Y-92617340D01*
X213705838Y-92930368D01*
X213864803Y-93314143D01*
X214106987Y-93383608D01*
X214907595Y-92583000D01*
X215266805Y-92583000D01*
X216067413Y-93383608D01*
X216309597Y-93314143D01*
X216496344Y-92790698D01*
X216468562Y-92235632D01*
X216309597Y-91851857D01*
X216067413Y-91782392D01*
X215266805Y-92583000D01*
X214907595Y-92583000D01*
X214106987Y-91782392D01*
X213864803Y-91851857D01*
X213687348Y-92349258D01*
X213516754Y-91936388D01*
X213195503Y-91614577D01*
X212775554Y-91440199D01*
X212320841Y-91439802D01*
X211900588Y-91613446D01*
X211578777Y-91934697D01*
X211404399Y-92354646D01*
X211404002Y-92809359D01*
X205339209Y-92809359D01*
X207879209Y-90269359D01*
X211404002Y-90269359D01*
X211577646Y-90689612D01*
X211898897Y-91011423D01*
X212318846Y-91185801D01*
X212773559Y-91186198D01*
X213168015Y-91023213D01*
X214286592Y-91023213D01*
X214356057Y-91265397D01*
X214479544Y-91309453D01*
X214356057Y-91360603D01*
X214286592Y-91602787D01*
X215087200Y-92403395D01*
X215887808Y-91602787D01*
X215818343Y-91360603D01*
X215694856Y-91316547D01*
X215818343Y-91265397D01*
X215887808Y-91023213D01*
X215087200Y-90222605D01*
X214286592Y-91023213D01*
X213168015Y-91023213D01*
X213193812Y-91012554D01*
X213515623Y-90691303D01*
X213690001Y-90271354D01*
X213690170Y-90077340D01*
X213705838Y-90390368D01*
X213864803Y-90774143D01*
X214106987Y-90843608D01*
X214907595Y-90043000D01*
X215266805Y-90043000D01*
X216067413Y-90843608D01*
X216309597Y-90774143D01*
X216496344Y-90250698D01*
X216468562Y-89695632D01*
X216309597Y-89311857D01*
X216067413Y-89242392D01*
X215266805Y-90043000D01*
X214907595Y-90043000D01*
X214106987Y-89242392D01*
X213864803Y-89311857D01*
X213687348Y-89809258D01*
X213516754Y-89396388D01*
X213195503Y-89074577D01*
X212775554Y-88900199D01*
X212320841Y-88899802D01*
X211900588Y-89073446D01*
X211578777Y-89394697D01*
X211404399Y-89814646D01*
X211404002Y-90269359D01*
X207879209Y-90269359D01*
X207913384Y-90235185D01*
X208050168Y-90030474D01*
X208058137Y-89990411D01*
X208098200Y-89789000D01*
X208098200Y-87729359D01*
X211404002Y-87729359D01*
X211577646Y-88149612D01*
X211898897Y-88471423D01*
X212318846Y-88645801D01*
X212773559Y-88646198D01*
X213168015Y-88483213D01*
X214286592Y-88483213D01*
X214356057Y-88725397D01*
X214479544Y-88769453D01*
X214356057Y-88820603D01*
X214286592Y-89062787D01*
X215087200Y-89863395D01*
X215887808Y-89062787D01*
X215818343Y-88820603D01*
X215694856Y-88776547D01*
X215818343Y-88725397D01*
X215887808Y-88483213D01*
X215087200Y-87682605D01*
X214286592Y-88483213D01*
X213168015Y-88483213D01*
X213193812Y-88472554D01*
X213515623Y-88151303D01*
X213690001Y-87731354D01*
X213690170Y-87537340D01*
X213705838Y-87850368D01*
X213864803Y-88234143D01*
X214106987Y-88303608D01*
X214907595Y-87503000D01*
X215266805Y-87503000D01*
X216067413Y-88303608D01*
X216309597Y-88234143D01*
X216496344Y-87710698D01*
X216468562Y-87155632D01*
X216309597Y-86771857D01*
X216067413Y-86702392D01*
X215266805Y-87503000D01*
X214907595Y-87503000D01*
X214106987Y-86702392D01*
X213864803Y-86771857D01*
X213687348Y-87269258D01*
X213516754Y-86856388D01*
X213195503Y-86534577D01*
X212775554Y-86360199D01*
X212320841Y-86359802D01*
X211900588Y-86533446D01*
X211578777Y-86854697D01*
X211404399Y-87274646D01*
X211404002Y-87729359D01*
X208098200Y-87729359D01*
X208098200Y-85224368D01*
X208133209Y-85189359D01*
X211404002Y-85189359D01*
X211577646Y-85609612D01*
X211898897Y-85931423D01*
X212318846Y-86105801D01*
X212773559Y-86106198D01*
X213168015Y-85943213D01*
X214286592Y-85943213D01*
X214356057Y-86185397D01*
X214479544Y-86229453D01*
X214356057Y-86280603D01*
X214286592Y-86522787D01*
X215087200Y-87323395D01*
X215887808Y-86522787D01*
X215818343Y-86280603D01*
X215694856Y-86236547D01*
X215818343Y-86185397D01*
X215887808Y-85943213D01*
X215087200Y-85142605D01*
X214286592Y-85943213D01*
X213168015Y-85943213D01*
X213193812Y-85932554D01*
X213515623Y-85611303D01*
X213690001Y-85191354D01*
X213690170Y-84997340D01*
X213705838Y-85310368D01*
X213864803Y-85694143D01*
X214106987Y-85763608D01*
X214907595Y-84963000D01*
X215266805Y-84963000D01*
X216067413Y-85763608D01*
X216309597Y-85694143D01*
X216496344Y-85170698D01*
X216468562Y-84615632D01*
X216309597Y-84231857D01*
X216067413Y-84162392D01*
X215266805Y-84963000D01*
X214907595Y-84963000D01*
X214106987Y-84162392D01*
X213864803Y-84231857D01*
X213687348Y-84729258D01*
X213516754Y-84316388D01*
X213195503Y-83994577D01*
X212775554Y-83820199D01*
X212320841Y-83819802D01*
X211900588Y-83993446D01*
X211578777Y-84314697D01*
X211404399Y-84734646D01*
X211404002Y-85189359D01*
X208133209Y-85189359D01*
X210673209Y-82649359D01*
X211404002Y-82649359D01*
X211577646Y-83069612D01*
X211898897Y-83391423D01*
X212318846Y-83565801D01*
X212773559Y-83566198D01*
X213193812Y-83392554D01*
X213515623Y-83071303D01*
X213690001Y-82651354D01*
X213690002Y-82649359D01*
X213944002Y-82649359D01*
X214117646Y-83069612D01*
X214438897Y-83391423D01*
X214858846Y-83565801D01*
X215052860Y-83565970D01*
X214739832Y-83581638D01*
X214356057Y-83740603D01*
X214286592Y-83982787D01*
X215087200Y-84783395D01*
X215887808Y-83982787D01*
X215818343Y-83740603D01*
X215320942Y-83563148D01*
X215733812Y-83392554D01*
X216055623Y-83071303D01*
X216230001Y-82651354D01*
X216230398Y-82196641D01*
X216056754Y-81776388D01*
X215735503Y-81454577D01*
X215315554Y-81280199D01*
X214860841Y-81279802D01*
X214440588Y-81453446D01*
X214118777Y-81774697D01*
X213944399Y-82194646D01*
X213944002Y-82649359D01*
X213690002Y-82649359D01*
X213690398Y-82196641D01*
X213516754Y-81776388D01*
X213195503Y-81454577D01*
X212775554Y-81280199D01*
X212320841Y-81279802D01*
X211900588Y-81453446D01*
X211578777Y-81774697D01*
X211404399Y-82194646D01*
X211404002Y-82649359D01*
X210673209Y-82649359D01*
X212303245Y-81019323D01*
X212318846Y-81025801D01*
X212773559Y-81026198D01*
X213193812Y-80852554D01*
X213515623Y-80531303D01*
X213549175Y-80450500D01*
X214084958Y-80450500D01*
X214117646Y-80529612D01*
X214438897Y-80851423D01*
X214858846Y-81025801D01*
X215313559Y-81026198D01*
X215733812Y-80852554D01*
X216055623Y-80531303D01*
X216230001Y-80111354D01*
X216230398Y-79656641D01*
X216056754Y-79236388D01*
X215735503Y-78914577D01*
X215315554Y-78740199D01*
X214860841Y-78739802D01*
X214440588Y-78913446D01*
X214165055Y-79188500D01*
X213468949Y-79188500D01*
X213195503Y-78914577D01*
X212775554Y-78740199D01*
X212320841Y-78739802D01*
X211900588Y-78913446D01*
X211578777Y-79234697D01*
X211404399Y-79654646D01*
X211404002Y-80109359D01*
X211411157Y-80126675D01*
X207021016Y-84516816D01*
X206884232Y-84721527D01*
X206836200Y-84963000D01*
X206836200Y-89527631D01*
X198489965Y-97873867D01*
X198369748Y-97923539D01*
X198178013Y-98114941D01*
X198074118Y-98365146D01*
X198073882Y-98636065D01*
X144916867Y-98636065D01*
X144876054Y-98619118D01*
X144774622Y-98619030D01*
X143606000Y-97450408D01*
X143606000Y-93150000D01*
X143567483Y-92956362D01*
X143457796Y-92792204D01*
X137954876Y-87289284D01*
X137790718Y-87179597D01*
X137597080Y-87141080D01*
X136266969Y-87141080D01*
X136176612Y-86922400D01*
X135816575Y-86561735D01*
X135671836Y-86501634D01*
X135814680Y-86442612D01*
X136175345Y-86082575D01*
X136370777Y-85611924D01*
X136371222Y-85102311D01*
X136176612Y-84631320D01*
X135816575Y-84270655D01*
X135671836Y-84210554D01*
X135814680Y-84151532D01*
X136175345Y-83791495D01*
X136370777Y-83320844D01*
X136371222Y-82811231D01*
X136176612Y-82340240D01*
X135816575Y-81979575D01*
X135671836Y-81919474D01*
X135814680Y-81860452D01*
X136175345Y-81500415D01*
X136370777Y-81029764D01*
X136371222Y-80520151D01*
X136176612Y-80049160D01*
X135816575Y-79688495D01*
X135345924Y-79493063D01*
X134836311Y-79492618D01*
X134365320Y-79687228D01*
X134004655Y-80047265D01*
X133809223Y-80517916D01*
X133808778Y-81027529D01*
X133837142Y-81096176D01*
X133630159Y-81026446D01*
X132729605Y-81927000D01*
X132370395Y-81927000D01*
X131469841Y-81026446D01*
X131263256Y-81096042D01*
X131290777Y-81029764D01*
X131290936Y-80846841D01*
X131649446Y-80846841D01*
X132550000Y-81747395D01*
X133450554Y-80846841D01*
X133364148Y-80590357D01*
X132790664Y-80380542D01*
X132180540Y-80406161D01*
X131735852Y-80590357D01*
X131649446Y-80846841D01*
X131290936Y-80846841D01*
X131291222Y-80520151D01*
X131096612Y-80049160D01*
X130736575Y-79688495D01*
X130265924Y-79493063D01*
X129756311Y-79492618D01*
X129285320Y-79687228D01*
X128924655Y-80047265D01*
X128729223Y-80517916D01*
X128728778Y-81027529D01*
X121487000Y-81027529D01*
X121487000Y-77569359D01*
X211404002Y-77569359D01*
X211577646Y-77989612D01*
X211898897Y-78311423D01*
X212318846Y-78485801D01*
X212773559Y-78486198D01*
X213193812Y-78312554D01*
X213515623Y-77991303D01*
X213690001Y-77571354D01*
X213690002Y-77569359D01*
X213944002Y-77569359D01*
X214117646Y-77989612D01*
X214438897Y-78311423D01*
X214858846Y-78485801D01*
X215313559Y-78486198D01*
X215733812Y-78312554D01*
X216055623Y-77991303D01*
X216230001Y-77571354D01*
X216230398Y-77116641D01*
X216056754Y-76696388D01*
X215735503Y-76374577D01*
X215315554Y-76200199D01*
X214860841Y-76199802D01*
X214440588Y-76373446D01*
X214118777Y-76694697D01*
X213944399Y-77114646D01*
X213944002Y-77569359D01*
X213690002Y-77569359D01*
X213690398Y-77116641D01*
X213516754Y-76696388D01*
X213195503Y-76374577D01*
X212775554Y-76200199D01*
X212320841Y-76199802D01*
X211900588Y-76373446D01*
X211578777Y-76694697D01*
X211404399Y-77114646D01*
X211404002Y-77569359D01*
X121487000Y-77569359D01*
X121487000Y-75065485D01*
X130782400Y-75065485D01*
X131015358Y-75446598D01*
X132023184Y-75856647D01*
X133111214Y-75849805D01*
X134084642Y-75446598D01*
X134317600Y-75065485D01*
X134281474Y-75029359D01*
X211404002Y-75029359D01*
X211577646Y-75449612D01*
X211898897Y-75771423D01*
X212318846Y-75945801D01*
X212773559Y-75946198D01*
X213193812Y-75772554D01*
X213515623Y-75451303D01*
X213690001Y-75031354D01*
X213690002Y-75029359D01*
X213944002Y-75029359D01*
X214117646Y-75449612D01*
X214438897Y-75771423D01*
X214858846Y-75945801D01*
X215313559Y-75946198D01*
X215733812Y-75772554D01*
X216055623Y-75451303D01*
X216230001Y-75031354D01*
X216230398Y-74576641D01*
X216056754Y-74156388D01*
X215735503Y-73834577D01*
X215315554Y-73660199D01*
X215121540Y-73660030D01*
X215434568Y-73644362D01*
X215818343Y-73485397D01*
X215887808Y-73243213D01*
X215087200Y-72442605D01*
X214286592Y-73243213D01*
X214356057Y-73485397D01*
X214853458Y-73662852D01*
X214440588Y-73833446D01*
X214118777Y-74154697D01*
X213944399Y-74574646D01*
X213944002Y-75029359D01*
X213690002Y-75029359D01*
X213690398Y-74576641D01*
X213516754Y-74156388D01*
X213195503Y-73834577D01*
X212775554Y-73660199D01*
X212581540Y-73660030D01*
X212894568Y-73644362D01*
X213278343Y-73485397D01*
X213347808Y-73243213D01*
X212547200Y-72442605D01*
X211746592Y-73243213D01*
X211816057Y-73485397D01*
X212313458Y-73662852D01*
X211900588Y-73833446D01*
X211578777Y-74154697D01*
X211404399Y-74574646D01*
X211404002Y-75029359D01*
X134281474Y-75029359D01*
X132550000Y-73297885D01*
X130782400Y-75065485D01*
X121487000Y-75065485D01*
X121487000Y-72591464D01*
X129811633Y-72591464D01*
X129818475Y-73679494D01*
X130221682Y-74652922D01*
X130602795Y-74885880D01*
X132370395Y-73118280D01*
X132729605Y-73118280D01*
X134497205Y-74885880D01*
X134878318Y-74652922D01*
X135288367Y-73645096D01*
X135281525Y-72557066D01*
X135073688Y-72055302D01*
X211138056Y-72055302D01*
X211165838Y-72610368D01*
X211324803Y-72994143D01*
X211566987Y-73063608D01*
X212367595Y-72263000D01*
X212726805Y-72263000D01*
X213527413Y-73063608D01*
X213769597Y-72994143D01*
X213813653Y-72870656D01*
X213864803Y-72994143D01*
X214106987Y-73063608D01*
X214907595Y-72263000D01*
X215266805Y-72263000D01*
X216067413Y-73063608D01*
X216309597Y-72994143D01*
X216496344Y-72470698D01*
X216468562Y-71915632D01*
X216309597Y-71531857D01*
X216067413Y-71462392D01*
X215266805Y-72263000D01*
X214907595Y-72263000D01*
X214106987Y-71462392D01*
X213864803Y-71531857D01*
X213820747Y-71655344D01*
X213769597Y-71531857D01*
X213527413Y-71462392D01*
X212726805Y-72263000D01*
X212367595Y-72263000D01*
X211566987Y-71462392D01*
X211324803Y-71531857D01*
X211138056Y-72055302D01*
X135073688Y-72055302D01*
X134878318Y-71583638D01*
X134497205Y-71350680D01*
X132729605Y-73118280D01*
X132370395Y-73118280D01*
X130602795Y-71350680D01*
X130221682Y-71583638D01*
X129811633Y-72591464D01*
X121487000Y-72591464D01*
X121487000Y-71171075D01*
X130782400Y-71171075D01*
X132550000Y-72938675D01*
X134317600Y-71171075D01*
X134084642Y-70789962D01*
X133076816Y-70379913D01*
X131988786Y-70386755D01*
X131015358Y-70789962D01*
X130782400Y-71171075D01*
X121487000Y-71171075D01*
X121487000Y-69949359D01*
X211404002Y-69949359D01*
X211577646Y-70369612D01*
X211898897Y-70691423D01*
X212318846Y-70865801D01*
X212512860Y-70865970D01*
X212199832Y-70881638D01*
X211816057Y-71040603D01*
X211746592Y-71282787D01*
X212547200Y-72083395D01*
X213347808Y-71282787D01*
X213278343Y-71040603D01*
X212780942Y-70863148D01*
X213193812Y-70692554D01*
X213515623Y-70371303D01*
X213690001Y-69951354D01*
X213690002Y-69949359D01*
X213944002Y-69949359D01*
X214117646Y-70369612D01*
X214438897Y-70691423D01*
X214858846Y-70865801D01*
X215052860Y-70865970D01*
X214739832Y-70881638D01*
X214356057Y-71040603D01*
X214286592Y-71282787D01*
X215087200Y-72083395D01*
X215887808Y-71282787D01*
X215818343Y-71040603D01*
X215320942Y-70863148D01*
X215733812Y-70692554D01*
X216055623Y-70371303D01*
X216230001Y-69951354D01*
X216230398Y-69496641D01*
X216056754Y-69076388D01*
X215735503Y-68754577D01*
X215315554Y-68580199D01*
X215121540Y-68580030D01*
X215434568Y-68564362D01*
X215818343Y-68405397D01*
X215887808Y-68163213D01*
X215087200Y-67362605D01*
X214286592Y-68163213D01*
X214356057Y-68405397D01*
X214853458Y-68582852D01*
X214440588Y-68753446D01*
X214118777Y-69074697D01*
X213944399Y-69494646D01*
X213944002Y-69949359D01*
X213690002Y-69949359D01*
X213690398Y-69496641D01*
X213516754Y-69076388D01*
X213195503Y-68754577D01*
X212775554Y-68580199D01*
X212581540Y-68580030D01*
X212894568Y-68564362D01*
X213278343Y-68405397D01*
X213347808Y-68163213D01*
X212547200Y-67362605D01*
X211746592Y-68163213D01*
X211816057Y-68405397D01*
X212313458Y-68582852D01*
X211900588Y-68753446D01*
X211578777Y-69074697D01*
X211404399Y-69494646D01*
X211404002Y-69949359D01*
X121487000Y-69949359D01*
X121487000Y-66975302D01*
X211138056Y-66975302D01*
X211165838Y-67530368D01*
X211324803Y-67914143D01*
X211566987Y-67983608D01*
X212367595Y-67183000D01*
X212726805Y-67183000D01*
X213527413Y-67983608D01*
X213769597Y-67914143D01*
X213813653Y-67790656D01*
X213864803Y-67914143D01*
X214106987Y-67983608D01*
X214907595Y-67183000D01*
X215266805Y-67183000D01*
X216067413Y-67983608D01*
X216309597Y-67914143D01*
X216496344Y-67390698D01*
X216468562Y-66835632D01*
X216309597Y-66451857D01*
X216067413Y-66382392D01*
X215266805Y-67183000D01*
X214907595Y-67183000D01*
X214106987Y-66382392D01*
X213864803Y-66451857D01*
X213820747Y-66575344D01*
X213769597Y-66451857D01*
X213527413Y-66382392D01*
X212726805Y-67183000D01*
X212367595Y-67183000D01*
X211566987Y-66382392D01*
X211324803Y-66451857D01*
X211138056Y-66975302D01*
X121487000Y-66975302D01*
X121487000Y-66202787D01*
X211746592Y-66202787D01*
X212547200Y-67003395D01*
X213347808Y-66202787D01*
X214286592Y-66202787D01*
X215087200Y-67003395D01*
X215887808Y-66202787D01*
X215818343Y-65960603D01*
X215294898Y-65773856D01*
X214739832Y-65801638D01*
X214356057Y-65960603D01*
X214286592Y-66202787D01*
X213347808Y-66202787D01*
X213278343Y-65960603D01*
X212754898Y-65773856D01*
X212199832Y-65801638D01*
X211816057Y-65960603D01*
X211746592Y-66202787D01*
X121487000Y-66202787D01*
X121487000Y-62305000D01*
X225540500Y-62305000D01*
X225540500Y-150674000D01*
X225540500Y-150674000D01*
G37*
X225540500Y-150674000D02*
X191917780Y-150674000D01*
X192158243Y-150574397D01*
X192227708Y-150332213D01*
X191427100Y-149531605D01*
X190626492Y-150332213D01*
X190695957Y-150574397D01*
X190975141Y-150674000D01*
X121487000Y-150674000D01*
X121487000Y-149578359D01*
X157263902Y-149578359D01*
X157437546Y-149998612D01*
X157758797Y-150320423D01*
X158178746Y-150494801D01*
X158633459Y-150495198D01*
X159053712Y-150321554D01*
X159375523Y-150000303D01*
X159549901Y-149580354D01*
X159549902Y-149578359D01*
X159803902Y-149578359D01*
X159977546Y-149998612D01*
X160298797Y-150320423D01*
X160718746Y-150494801D01*
X161173459Y-150495198D01*
X161593712Y-150321554D01*
X161915523Y-150000303D01*
X162089901Y-149580354D01*
X162089902Y-149578359D01*
X162343902Y-149578359D01*
X162517546Y-149998612D01*
X162838797Y-150320423D01*
X163258746Y-150494801D01*
X163713459Y-150495198D01*
X164133712Y-150321554D01*
X164455523Y-150000303D01*
X164629901Y-149580354D01*
X164629902Y-149578359D01*
X164883902Y-149578359D01*
X165057546Y-149998612D01*
X165378797Y-150320423D01*
X165798746Y-150494801D01*
X166253459Y-150495198D01*
X166673712Y-150321554D01*
X166995523Y-150000303D01*
X167169901Y-149580354D01*
X167169902Y-149578359D01*
X167423902Y-149578359D01*
X167597546Y-149998612D01*
X167918797Y-150320423D01*
X168338746Y-150494801D01*
X168793459Y-150495198D01*
X169213712Y-150321554D01*
X169535523Y-150000303D01*
X169709901Y-149580354D01*
X169709902Y-149578359D01*
X169963902Y-149578359D01*
X170137546Y-149998612D01*
X170458797Y-150320423D01*
X170878746Y-150494801D01*
X171333459Y-150495198D01*
X171753712Y-150321554D01*
X172075523Y-150000303D01*
X172249901Y-149580354D01*
X172249902Y-149578359D01*
X172503902Y-149578359D01*
X172677546Y-149998612D01*
X172998797Y-150320423D01*
X173418746Y-150494801D01*
X173873459Y-150495198D01*
X174293712Y-150321554D01*
X174615523Y-150000303D01*
X174789901Y-149580354D01*
X174789902Y-149578359D01*
X175043902Y-149578359D01*
X175217546Y-149998612D01*
X175538797Y-150320423D01*
X175958746Y-150494801D01*
X176413459Y-150495198D01*
X176833712Y-150321554D01*
X177155523Y-150000303D01*
X177329901Y-149580354D01*
X177329902Y-149578359D01*
X177583902Y-149578359D01*
X177757546Y-149998612D01*
X178078797Y-150320423D01*
X178498746Y-150494801D01*
X178953459Y-150495198D01*
X179373712Y-150321554D01*
X179695523Y-150000303D01*
X179869901Y-149580354D01*
X179869902Y-149578359D01*
X180123902Y-149578359D01*
X180297546Y-149998612D01*
X180618797Y-150320423D01*
X181038746Y-150494801D01*
X181493459Y-150495198D01*
X181913712Y-150321554D01*
X182235523Y-150000303D01*
X182409901Y-149580354D01*
X182409902Y-149578359D01*
X182663902Y-149578359D01*
X182837546Y-149998612D01*
X183158797Y-150320423D01*
X183578746Y-150494801D01*
X184033459Y-150495198D01*
X184453712Y-150321554D01*
X184775523Y-150000303D01*
X184949901Y-149580354D01*
X184949902Y-149578359D01*
X185203902Y-149578359D01*
X185377546Y-149998612D01*
X185698797Y-150320423D01*
X186118746Y-150494801D01*
X186573459Y-150495198D01*
X186993712Y-150321554D01*
X187315523Y-150000303D01*
X187489901Y-149580354D01*
X187489902Y-149578359D01*
X187743902Y-149578359D01*
X187917546Y-149998612D01*
X188238797Y-150320423D01*
X188658746Y-150494801D01*
X189113459Y-150495198D01*
X189533712Y-150321554D01*
X189855523Y-150000303D01*
X190029901Y-149580354D01*
X190030070Y-149386340D01*
X190045738Y-149699368D01*
X190204703Y-150083143D01*
X190446887Y-150152608D01*
X191247495Y-149352000D01*
X191606705Y-149352000D01*
X192407313Y-150152608D01*
X192649497Y-150083143D01*
X192826952Y-149585742D01*
X192997546Y-149998612D01*
X193318797Y-150320423D01*
X193738746Y-150494801D01*
X194193459Y-150495198D01*
X194613712Y-150321554D01*
X194935523Y-150000303D01*
X195109901Y-149580354D01*
X195110298Y-149125641D01*
X194936654Y-148705388D01*
X194615403Y-148383577D01*
X194195454Y-148209199D01*
X193740741Y-148208802D01*
X193320488Y-148382446D01*
X192998677Y-148703697D01*
X192824299Y-149123646D01*
X192824130Y-149317660D01*
X192808462Y-149004632D01*
X192649497Y-148620857D01*
X192407313Y-148551392D01*
X191606705Y-149352000D01*
X191247495Y-149352000D01*
X190446887Y-148551392D01*
X190204703Y-148620857D01*
X190027248Y-149118258D01*
X189856654Y-148705388D01*
X189535403Y-148383577D01*
X189507010Y-148371787D01*
X190626492Y-148371787D01*
X191427100Y-149172395D01*
X192227708Y-148371787D01*
X192158243Y-148129603D01*
X191634798Y-147942856D01*
X191079732Y-147970638D01*
X190695957Y-148129603D01*
X190626492Y-148371787D01*
X189507010Y-148371787D01*
X189115454Y-148209199D01*
X188660741Y-148208802D01*
X188240488Y-148382446D01*
X187918677Y-148703697D01*
X187744299Y-149123646D01*
X187743902Y-149578359D01*
X187489902Y-149578359D01*
X187490298Y-149125641D01*
X187316654Y-148705388D01*
X186995403Y-148383577D01*
X186575454Y-148209199D01*
X186120741Y-148208802D01*
X185700488Y-148382446D01*
X185378677Y-148703697D01*
X185204299Y-149123646D01*
X185203902Y-149578359D01*
X184949902Y-149578359D01*
X184950298Y-149125641D01*
X184776654Y-148705388D01*
X184455403Y-148383577D01*
X184035454Y-148209199D01*
X183580741Y-148208802D01*
X183160488Y-148382446D01*
X182838677Y-148703697D01*
X182664299Y-149123646D01*
X182663902Y-149578359D01*
X182409902Y-149578359D01*
X182410298Y-149125641D01*
X182236654Y-148705388D01*
X181915403Y-148383577D01*
X181495454Y-148209199D01*
X181040741Y-148208802D01*
X180620488Y-148382446D01*
X180298677Y-148703697D01*
X180124299Y-149123646D01*
X180123902Y-149578359D01*
X179869902Y-149578359D01*
X179870298Y-149125641D01*
X179696654Y-148705388D01*
X179375403Y-148383577D01*
X178955454Y-148209199D01*
X178500741Y-148208802D01*
X178080488Y-148382446D01*
X177758677Y-148703697D01*
X177584299Y-149123646D01*
X177583902Y-149578359D01*
X177329902Y-149578359D01*
X177330298Y-149125641D01*
X177156654Y-148705388D01*
X176835403Y-148383577D01*
X176415454Y-148209199D01*
X175960741Y-148208802D01*
X175540488Y-148382446D01*
X175218677Y-148703697D01*
X175044299Y-149123646D01*
X175043902Y-149578359D01*
X174789902Y-149578359D01*
X174790298Y-149125641D01*
X174616654Y-148705388D01*
X174295403Y-148383577D01*
X173875454Y-148209199D01*
X173420741Y-148208802D01*
X173000488Y-148382446D01*
X172678677Y-148703697D01*
X172504299Y-149123646D01*
X172503902Y-149578359D01*
X172249902Y-149578359D01*
X172250298Y-149125641D01*
X172076654Y-148705388D01*
X171755403Y-148383577D01*
X171335454Y-148209199D01*
X170880741Y-148208802D01*
X170460488Y-148382446D01*
X170138677Y-148703697D01*
X169964299Y-149123646D01*
X169963902Y-149578359D01*
X169709902Y-149578359D01*
X169710298Y-149125641D01*
X169536654Y-148705388D01*
X169215403Y-148383577D01*
X168795454Y-148209199D01*
X168340741Y-148208802D01*
X167920488Y-148382446D01*
X167598677Y-148703697D01*
X167424299Y-149123646D01*
X167423902Y-149578359D01*
X167169902Y-149578359D01*
X167170298Y-149125641D01*
X166996654Y-148705388D01*
X166675403Y-148383577D01*
X166255454Y-148209199D01*
X165800741Y-148208802D01*
X165380488Y-148382446D01*
X165058677Y-148703697D01*
X164884299Y-149123646D01*
X164883902Y-149578359D01*
X164629902Y-149578359D01*
X164630298Y-149125641D01*
X164456654Y-148705388D01*
X164135403Y-148383577D01*
X163715454Y-148209199D01*
X163260741Y-148208802D01*
X162840488Y-148382446D01*
X162518677Y-148703697D01*
X162344299Y-149123646D01*
X162343902Y-149578359D01*
X162089902Y-149578359D01*
X162090298Y-149125641D01*
X161916654Y-148705388D01*
X161595403Y-148383577D01*
X161175454Y-148209199D01*
X160720741Y-148208802D01*
X160300488Y-148382446D01*
X159978677Y-148703697D01*
X159804299Y-149123646D01*
X159803902Y-149578359D01*
X159549902Y-149578359D01*
X159550298Y-149125641D01*
X159376654Y-148705388D01*
X159055403Y-148383577D01*
X158635454Y-148209199D01*
X158180741Y-148208802D01*
X157760488Y-148382446D01*
X157438677Y-148703697D01*
X157264299Y-149123646D01*
X157263902Y-149578359D01*
X121487000Y-149578359D01*
X121487000Y-146903213D01*
X211746592Y-146903213D01*
X211816057Y-147145397D01*
X212339502Y-147332144D01*
X212894568Y-147304362D01*
X213278343Y-147145397D01*
X213347808Y-146903213D01*
X214286592Y-146903213D01*
X214356057Y-147145397D01*
X214879502Y-147332144D01*
X215434568Y-147304362D01*
X215818343Y-147145397D01*
X215887808Y-146903213D01*
X215087200Y-146102605D01*
X214286592Y-146903213D01*
X213347808Y-146903213D01*
X212547200Y-146102605D01*
X211746592Y-146903213D01*
X121487000Y-146903213D01*
X121487000Y-145715302D01*
X211138056Y-145715302D01*
X211165838Y-146270368D01*
X211324803Y-146654143D01*
X211566987Y-146723608D01*
X212367595Y-145923000D01*
X212726805Y-145923000D01*
X213527413Y-146723608D01*
X213769597Y-146654143D01*
X213813653Y-146530656D01*
X213864803Y-146654143D01*
X214106987Y-146723608D01*
X214907595Y-145923000D01*
X215266805Y-145923000D01*
X216067413Y-146723608D01*
X216309597Y-146654143D01*
X216496344Y-146130698D01*
X216468562Y-145575632D01*
X216309597Y-145191857D01*
X216067413Y-145122392D01*
X215266805Y-145923000D01*
X214907595Y-145923000D01*
X214106987Y-145122392D01*
X213864803Y-145191857D01*
X213820747Y-145315344D01*
X213769597Y-145191857D01*
X213527413Y-145122392D01*
X212726805Y-145923000D01*
X212367595Y-145923000D01*
X211566987Y-145122392D01*
X211324803Y-145191857D01*
X211138056Y-145715302D01*
X121487000Y-145715302D01*
X121487000Y-140635302D01*
X211138056Y-140635302D01*
X211165838Y-141190368D01*
X211324803Y-141574143D01*
X211566987Y-141643608D01*
X212367595Y-140843000D01*
X211566987Y-140042392D01*
X211324803Y-140111857D01*
X211138056Y-140635302D01*
X121487000Y-140635302D01*
X121487000Y-134338359D01*
X157263902Y-134338359D01*
X157437546Y-134758612D01*
X157758797Y-135080423D01*
X158178746Y-135254801D01*
X158633459Y-135255198D01*
X159053712Y-135081554D01*
X159375523Y-134760303D01*
X159549901Y-134340354D01*
X159549902Y-134338359D01*
X159803902Y-134338359D01*
X159977546Y-134758612D01*
X160298797Y-135080423D01*
X160718746Y-135254801D01*
X161173459Y-135255198D01*
X161593712Y-135081554D01*
X161915523Y-134760303D01*
X162089901Y-134340354D01*
X162089902Y-134338359D01*
X162343902Y-134338359D01*
X162517546Y-134758612D01*
X162838797Y-135080423D01*
X163258746Y-135254801D01*
X163713459Y-135255198D01*
X164133712Y-135081554D01*
X164455523Y-134760303D01*
X164629901Y-134340354D01*
X164629902Y-134338359D01*
X164883902Y-134338359D01*
X165057546Y-134758612D01*
X165378797Y-135080423D01*
X165798746Y-135254801D01*
X166253459Y-135255198D01*
X166673712Y-135081554D01*
X166995523Y-134760303D01*
X167169901Y-134340354D01*
X167169902Y-134338359D01*
X167423902Y-134338359D01*
X167597546Y-134758612D01*
X167918797Y-135080423D01*
X168338746Y-135254801D01*
X168793459Y-135255198D01*
X169213712Y-135081554D01*
X169535523Y-134760303D01*
X169709901Y-134340354D01*
X169710298Y-133885641D01*
X169536654Y-133465388D01*
X169215403Y-133143577D01*
X168795454Y-132969199D01*
X168340741Y-132968802D01*
X167920488Y-133142446D01*
X167598677Y-133463697D01*
X167424299Y-133883646D01*
X167423902Y-134338359D01*
X167169902Y-134338359D01*
X167170298Y-133885641D01*
X166996654Y-133465388D01*
X166675403Y-133143577D01*
X166255454Y-132969199D01*
X165800741Y-132968802D01*
X165380488Y-133142446D01*
X165058677Y-133463697D01*
X164884299Y-133883646D01*
X164883902Y-134338359D01*
X164629902Y-134338359D01*
X164630298Y-133885641D01*
X164571457Y-133743235D01*
X169249427Y-129065265D01*
X169854482Y-129065265D01*
X169957939Y-129315652D01*
X170149341Y-129507387D01*
X170399546Y-129611282D01*
X170526401Y-129611393D01*
X171708769Y-130793761D01*
X171708682Y-130894065D01*
X171812139Y-131144452D01*
X172003541Y-131336187D01*
X172253746Y-131440082D01*
X172524665Y-131440318D01*
X172775052Y-131336861D01*
X172966787Y-131145459D01*
X173070682Y-130895254D01*
X173070918Y-130624335D01*
X172967461Y-130373948D01*
X172776059Y-130182213D01*
X172525854Y-130078318D01*
X172424422Y-130078230D01*
X171216653Y-128870461D01*
X171216718Y-128795535D01*
X171113261Y-128545148D01*
X170921859Y-128353413D01*
X170671654Y-128249518D01*
X170400735Y-128249282D01*
X170150348Y-128352739D01*
X169958613Y-128544141D01*
X169854718Y-128794346D01*
X169854482Y-129065265D01*
X169249427Y-129065265D01*
X170427692Y-127887000D01*
X173253477Y-127887000D01*
X173324341Y-127957987D01*
X173574546Y-128061882D01*
X173845465Y-128062118D01*
X174095852Y-127958661D01*
X174287587Y-127767259D01*
X174391482Y-127517054D01*
X174391718Y-127246135D01*
X174288261Y-126995748D01*
X174096859Y-126804013D01*
X173846654Y-126700118D01*
X173575735Y-126699882D01*
X173325348Y-126803339D01*
X173253562Y-126875000D01*
X170218100Y-126875000D01*
X170024462Y-126913517D01*
X169860304Y-127023204D01*
X163855964Y-133027544D01*
X163715454Y-132969199D01*
X163260741Y-132968802D01*
X162840488Y-133142446D01*
X162518677Y-133463697D01*
X162344299Y-133883646D01*
X162343902Y-134338359D01*
X162089902Y-134338359D01*
X162090298Y-133885641D01*
X161916654Y-133465388D01*
X161595403Y-133143577D01*
X161175454Y-132969199D01*
X160720741Y-132968802D01*
X160300488Y-133142446D01*
X159978677Y-133463697D01*
X159804299Y-133883646D01*
X159803902Y-134338359D01*
X159549902Y-134338359D01*
X159550298Y-133885641D01*
X159376654Y-133465388D01*
X159299996Y-133388596D01*
X166468127Y-126220465D01*
X169854482Y-126220465D01*
X169957939Y-126470852D01*
X170149341Y-126662587D01*
X170399546Y-126766482D01*
X170670465Y-126766718D01*
X170920852Y-126663261D01*
X171112587Y-126471859D01*
X171216482Y-126221654D01*
X171216570Y-126120222D01*
X173132792Y-124204000D01*
X180080408Y-124204000D01*
X171315227Y-132969181D01*
X170880741Y-132968802D01*
X170460488Y-133142446D01*
X170138677Y-133463697D01*
X169964299Y-133883646D01*
X169963902Y-134338359D01*
X170137546Y-134758612D01*
X170458797Y-135080423D01*
X170878746Y-135254801D01*
X171333459Y-135255198D01*
X171753712Y-135081554D01*
X172075523Y-134760303D01*
X172249901Y-134340354D01*
X172250298Y-133885641D01*
X172127397Y-133588195D01*
X180709592Y-125006000D01*
X182037508Y-125006000D01*
X174015964Y-133027544D01*
X173875454Y-132969199D01*
X173420741Y-132968802D01*
X173000488Y-133142446D01*
X172678677Y-133463697D01*
X172504299Y-133883646D01*
X172503902Y-134338359D01*
X172677546Y-134758612D01*
X172998797Y-135080423D01*
X173418746Y-135254801D01*
X173873459Y-135255198D01*
X174293712Y-135081554D01*
X174615523Y-134760303D01*
X174789901Y-134340354D01*
X174789902Y-134338359D01*
X175043902Y-134338359D01*
X175217546Y-134758612D01*
X175538797Y-135080423D01*
X175958746Y-135254801D01*
X176413459Y-135255198D01*
X176833712Y-135081554D01*
X177155523Y-134760303D01*
X177329901Y-134340354D01*
X177329902Y-134338359D01*
X177583902Y-134338359D01*
X177757546Y-134758612D01*
X178078797Y-135080423D01*
X178498746Y-135254801D01*
X178953459Y-135255198D01*
X179373712Y-135081554D01*
X179695523Y-134760303D01*
X179869901Y-134340354D01*
X179869902Y-134338359D01*
X180123902Y-134338359D01*
X180297546Y-134758612D01*
X180618797Y-135080423D01*
X181038746Y-135254801D01*
X181493459Y-135255198D01*
X181913712Y-135081554D01*
X182235523Y-134760303D01*
X182409901Y-134340354D01*
X182410298Y-133885641D01*
X182236654Y-133465388D01*
X181915403Y-133143577D01*
X181495454Y-132969199D01*
X181040741Y-132968802D01*
X180620488Y-133142446D01*
X180298677Y-133463697D01*
X180124299Y-133883646D01*
X180123902Y-134338359D01*
X179869902Y-134338359D01*
X179870298Y-133885641D01*
X179696654Y-133465388D01*
X179375403Y-133143577D01*
X178955454Y-132969199D01*
X178500741Y-132968802D01*
X178080488Y-133142446D01*
X177758677Y-133463697D01*
X177584299Y-133883646D01*
X177583902Y-134338359D01*
X177329902Y-134338359D01*
X177330298Y-133885641D01*
X177156654Y-133465388D01*
X176835403Y-133143577D01*
X176415454Y-132969199D01*
X175960741Y-132968802D01*
X175540488Y-133142446D01*
X175218677Y-133463697D01*
X175044299Y-133883646D01*
X175043902Y-134338359D01*
X174789902Y-134338359D01*
X174790298Y-133885641D01*
X174731457Y-133743235D01*
X182618692Y-125856000D01*
X184970615Y-125856000D01*
X184942318Y-125924146D01*
X184942230Y-126025578D01*
X183449304Y-127518504D01*
X183339617Y-127682662D01*
X183301100Y-127876300D01*
X183301100Y-133084347D01*
X183160488Y-133142446D01*
X182838677Y-133463697D01*
X182664299Y-133883646D01*
X182663902Y-134338359D01*
X182837546Y-134758612D01*
X183158797Y-135080423D01*
X183578746Y-135254801D01*
X184033459Y-135255198D01*
X184427915Y-135092213D01*
X185546492Y-135092213D01*
X185615957Y-135334397D01*
X186139402Y-135521144D01*
X186694468Y-135493362D01*
X187078243Y-135334397D01*
X187147708Y-135092213D01*
X186347100Y-134291605D01*
X185546492Y-135092213D01*
X184427915Y-135092213D01*
X184453712Y-135081554D01*
X184775523Y-134760303D01*
X184949901Y-134340354D01*
X184950070Y-134146340D01*
X184965738Y-134459368D01*
X185124703Y-134843143D01*
X185366887Y-134912608D01*
X186167495Y-134112000D01*
X186526705Y-134112000D01*
X187327313Y-134912608D01*
X187569497Y-134843143D01*
X187746952Y-134345742D01*
X187917546Y-134758612D01*
X188238797Y-135080423D01*
X188658746Y-135254801D01*
X189113459Y-135255198D01*
X189533712Y-135081554D01*
X189855523Y-134760303D01*
X190029901Y-134340354D01*
X190029902Y-134338359D01*
X190283902Y-134338359D01*
X190457546Y-134758612D01*
X190778797Y-135080423D01*
X191198746Y-135254801D01*
X191653459Y-135255198D01*
X192073712Y-135081554D01*
X192395523Y-134760303D01*
X192569901Y-134340354D01*
X192569902Y-134338359D01*
X192823902Y-134338359D01*
X192997546Y-134758612D01*
X193318797Y-135080423D01*
X193738746Y-135254801D01*
X194193459Y-135255198D01*
X194613712Y-135081554D01*
X194935523Y-134760303D01*
X195109901Y-134340354D01*
X195110298Y-133885641D01*
X194936654Y-133465388D01*
X194615403Y-133143577D01*
X194195454Y-132969199D01*
X193740741Y-132968802D01*
X193320488Y-133142446D01*
X192998677Y-133463697D01*
X192824299Y-133883646D01*
X192823902Y-134338359D01*
X192569902Y-134338359D01*
X192570298Y-133885641D01*
X192396654Y-133465388D01*
X192075403Y-133143577D01*
X191655454Y-132969199D01*
X191200741Y-132968802D01*
X190780488Y-133142446D01*
X190458677Y-133463697D01*
X190284299Y-133883646D01*
X190283902Y-134338359D01*
X190029902Y-134338359D01*
X190030298Y-133885641D01*
X189856654Y-133465388D01*
X189535403Y-133143577D01*
X189115454Y-132969199D01*
X188660741Y-132968802D01*
X188240488Y-133142446D01*
X187918677Y-133463697D01*
X187744299Y-133883646D01*
X187744130Y-134077660D01*
X187728462Y-133764632D01*
X187569497Y-133380857D01*
X187327313Y-133311392D01*
X186526705Y-134112000D01*
X186167495Y-134112000D01*
X185366887Y-133311392D01*
X185124703Y-133380857D01*
X184947248Y-133878258D01*
X184776654Y-133465388D01*
X184455403Y-133143577D01*
X184427010Y-133131787D01*
X185546492Y-133131787D01*
X186347100Y-133932395D01*
X187147708Y-133131787D01*
X187078243Y-132889603D01*
X186554798Y-132702856D01*
X185999732Y-132730638D01*
X185615957Y-132889603D01*
X185546492Y-133131787D01*
X184427010Y-133131787D01*
X184313100Y-133084488D01*
X184313100Y-128531865D01*
X196194282Y-128531865D01*
X196269800Y-128714634D01*
X196269800Y-137693400D01*
X196301795Y-137854248D01*
X196317832Y-137934873D01*
X196454616Y-138139584D01*
X196819567Y-138504535D01*
X196869239Y-138624752D01*
X197060641Y-138816487D01*
X197310846Y-138920382D01*
X197581765Y-138920618D01*
X197832152Y-138817161D01*
X198023887Y-138625759D01*
X198127782Y-138375554D01*
X198128018Y-138104635D01*
X198024561Y-137854248D01*
X197833159Y-137662513D01*
X197711950Y-137612182D01*
X197531800Y-137432032D01*
X197531800Y-128938265D01*
X200309082Y-128938265D01*
X200412539Y-129188652D01*
X200484200Y-129260438D01*
X200484200Y-131927600D01*
X200522717Y-132121238D01*
X200632404Y-132285396D01*
X203121604Y-134774596D01*
X203285762Y-134884283D01*
X203479400Y-134922800D01*
X211771009Y-134922800D01*
X211578777Y-135114697D01*
X211404399Y-135534646D01*
X211404002Y-135989359D01*
X211577646Y-136409612D01*
X211898897Y-136731423D01*
X212318846Y-136905801D01*
X212773559Y-136906198D01*
X213193812Y-136732554D01*
X213387400Y-136539303D01*
X213387400Y-137526809D01*
X213195503Y-137334577D01*
X212775554Y-137160199D01*
X212320841Y-137159802D01*
X211900588Y-137333446D01*
X211578777Y-137654697D01*
X211404399Y-138074646D01*
X211404002Y-138529359D01*
X211577646Y-138949612D01*
X211898897Y-139271423D01*
X212318846Y-139445801D01*
X212512860Y-139445970D01*
X212199832Y-139461638D01*
X211816057Y-139620603D01*
X211746592Y-139862787D01*
X212547200Y-140663395D01*
X212561343Y-140649253D01*
X212740948Y-140828858D01*
X212726805Y-140843000D01*
X212740948Y-140857143D01*
X212561343Y-141036748D01*
X212547200Y-141022605D01*
X211746592Y-141823213D01*
X211816057Y-142065397D01*
X212313458Y-142242852D01*
X211900588Y-142413446D01*
X211578777Y-142734697D01*
X211404399Y-143154646D01*
X211404002Y-143609359D01*
X211577646Y-144029612D01*
X211898897Y-144351423D01*
X212318846Y-144525801D01*
X212512860Y-144525970D01*
X212199832Y-144541638D01*
X211816057Y-144700603D01*
X211746592Y-144942787D01*
X212547200Y-145743395D01*
X213347808Y-144942787D01*
X213278343Y-144700603D01*
X212780942Y-144523148D01*
X213193812Y-144352554D01*
X213515623Y-144031303D01*
X213690001Y-143611354D01*
X213690398Y-143156641D01*
X213516754Y-142736388D01*
X213195503Y-142414577D01*
X212775554Y-142240199D01*
X212581540Y-142240030D01*
X212894568Y-142224362D01*
X213278343Y-142065397D01*
X213347807Y-141823215D01*
X213387400Y-141862808D01*
X213387400Y-142240000D01*
X213425917Y-142433638D01*
X213535604Y-142597796D01*
X213987839Y-143050031D01*
X213944399Y-143154646D01*
X213944002Y-143609359D01*
X214117646Y-144029612D01*
X214438897Y-144351423D01*
X214858846Y-144525801D01*
X215052860Y-144525970D01*
X214739832Y-144541638D01*
X214356057Y-144700603D01*
X214286592Y-144942787D01*
X215087200Y-145743395D01*
X215887808Y-144942787D01*
X215818343Y-144700603D01*
X215320942Y-144523148D01*
X215733812Y-144352554D01*
X216055623Y-144031303D01*
X216230001Y-143611354D01*
X216230398Y-143156641D01*
X216056754Y-142736388D01*
X215735503Y-142414577D01*
X215315554Y-142240199D01*
X215121540Y-142240030D01*
X215434568Y-142224362D01*
X215818343Y-142065397D01*
X215887808Y-141823213D01*
X215087200Y-141022605D01*
X215073058Y-141036748D01*
X214893453Y-140857143D01*
X214907595Y-140843000D01*
X215266805Y-140843000D01*
X216067413Y-141643608D01*
X216309597Y-141574143D01*
X216496344Y-141050698D01*
X216468562Y-140495632D01*
X216309597Y-140111857D01*
X216067413Y-140042392D01*
X215266805Y-140843000D01*
X214907595Y-140843000D01*
X214893453Y-140828858D01*
X215073058Y-140649253D01*
X215087200Y-140663395D01*
X215887808Y-139862787D01*
X215818343Y-139620603D01*
X215320942Y-139443148D01*
X215733812Y-139272554D01*
X216055623Y-138951303D01*
X216230001Y-138531354D01*
X216230398Y-138076641D01*
X216056754Y-137656388D01*
X215735503Y-137334577D01*
X215315554Y-137160199D01*
X214860841Y-137159802D01*
X214440588Y-137333446D01*
X214399400Y-137374562D01*
X214399400Y-136691857D01*
X214438897Y-136731423D01*
X214858846Y-136905801D01*
X215313559Y-136906198D01*
X215733812Y-136732554D01*
X216055623Y-136411303D01*
X216230001Y-135991354D01*
X216230398Y-135536641D01*
X216056754Y-135116388D01*
X215735503Y-134794577D01*
X215315554Y-134620199D01*
X214860841Y-134619802D01*
X214440588Y-134793446D01*
X214367563Y-134866344D01*
X214360883Y-134832762D01*
X214251196Y-134668604D01*
X213641596Y-134059004D01*
X213477438Y-133949317D01*
X213444113Y-133942688D01*
X213515623Y-133871303D01*
X213690001Y-133451354D01*
X213690002Y-133449359D01*
X213944002Y-133449359D01*
X214117646Y-133869612D01*
X214438897Y-134191423D01*
X214858846Y-134365801D01*
X215313559Y-134366198D01*
X215733812Y-134192554D01*
X216055623Y-133871303D01*
X216230001Y-133451354D01*
X216230398Y-132996641D01*
X216056754Y-132576388D01*
X215735503Y-132254577D01*
X215315554Y-132080199D01*
X214860841Y-132079802D01*
X214440588Y-132253446D01*
X214118777Y-132574697D01*
X213944399Y-132994646D01*
X213944002Y-133449359D01*
X213690002Y-133449359D01*
X213690398Y-132996641D01*
X213516754Y-132576388D01*
X213195503Y-132254577D01*
X212775554Y-132080199D01*
X212320841Y-132079802D01*
X211900588Y-132253446D01*
X211578777Y-132574697D01*
X211551329Y-132640800D01*
X204368323Y-132640800D01*
X204297459Y-132569813D01*
X204047254Y-132465918D01*
X203776335Y-132465682D01*
X203525948Y-132569139D01*
X203334213Y-132760541D01*
X203230318Y-133010746D01*
X203230082Y-133281665D01*
X203333539Y-133532052D01*
X203524941Y-133723787D01*
X203775146Y-133827682D01*
X204046065Y-133827918D01*
X204296452Y-133724461D01*
X204368238Y-133652800D01*
X211488062Y-133652800D01*
X211577646Y-133869612D01*
X211618762Y-133910800D01*
X203688992Y-133910800D01*
X201496200Y-131718008D01*
X201496200Y-130909359D01*
X211404002Y-130909359D01*
X211577646Y-131329612D01*
X211898897Y-131651423D01*
X212318846Y-131825801D01*
X212773559Y-131826198D01*
X213193812Y-131652554D01*
X213515623Y-131331303D01*
X213690001Y-130911354D01*
X213690002Y-130909359D01*
X213944002Y-130909359D01*
X214117646Y-131329612D01*
X214438897Y-131651423D01*
X214858846Y-131825801D01*
X215313559Y-131826198D01*
X215733812Y-131652554D01*
X216055623Y-131331303D01*
X216230001Y-130911354D01*
X216230398Y-130456641D01*
X216056754Y-130036388D01*
X215735503Y-129714577D01*
X215315554Y-129540199D01*
X214860841Y-129539802D01*
X214440588Y-129713446D01*
X214118777Y-130034697D01*
X213944399Y-130454646D01*
X213944002Y-130909359D01*
X213690002Y-130909359D01*
X213690398Y-130456641D01*
X213516754Y-130036388D01*
X213195503Y-129714577D01*
X212775554Y-129540199D01*
X212320841Y-129539802D01*
X211900588Y-129713446D01*
X211578777Y-130034697D01*
X211404399Y-130454646D01*
X211404002Y-130909359D01*
X201496200Y-130909359D01*
X201496200Y-129260523D01*
X201567187Y-129189659D01*
X201671082Y-128939454D01*
X201671318Y-128668535D01*
X201567861Y-128418148D01*
X201519157Y-128369359D01*
X211404002Y-128369359D01*
X211577646Y-128789612D01*
X211898897Y-129111423D01*
X212318846Y-129285801D01*
X212773559Y-129286198D01*
X213193812Y-129112554D01*
X213515623Y-128791303D01*
X213690001Y-128371354D01*
X213690002Y-128369359D01*
X213944002Y-128369359D01*
X214117646Y-128789612D01*
X214438897Y-129111423D01*
X214858846Y-129285801D01*
X215313559Y-129286198D01*
X215733812Y-129112554D01*
X216055623Y-128791303D01*
X216230001Y-128371354D01*
X216230398Y-127916641D01*
X216056754Y-127496388D01*
X215735503Y-127174577D01*
X215315554Y-127000199D01*
X215121540Y-127000030D01*
X215434568Y-126984362D01*
X215818343Y-126825397D01*
X215887808Y-126583213D01*
X215087200Y-125782605D01*
X214286592Y-126583213D01*
X214356057Y-126825397D01*
X214853458Y-127002852D01*
X214440588Y-127173446D01*
X214118777Y-127494697D01*
X213944399Y-127914646D01*
X213944002Y-128369359D01*
X213690002Y-128369359D01*
X213690398Y-127916641D01*
X213516754Y-127496388D01*
X213195503Y-127174577D01*
X212775554Y-127000199D01*
X212320841Y-126999802D01*
X211900588Y-127173446D01*
X211578777Y-127494697D01*
X211404399Y-127914646D01*
X211404002Y-128369359D01*
X201519157Y-128369359D01*
X201376459Y-128226413D01*
X201126254Y-128122518D01*
X200855335Y-128122282D01*
X200604948Y-128225739D01*
X200413213Y-128417141D01*
X200309318Y-128667346D01*
X200309082Y-128938265D01*
X197531800Y-128938265D01*
X197531800Y-128592013D01*
X197556282Y-128533054D01*
X197556518Y-128262135D01*
X197531800Y-128202312D01*
X197531800Y-126316382D01*
X197581682Y-126196254D01*
X197581918Y-125925335D01*
X197542262Y-125829359D01*
X211404002Y-125829359D01*
X211577646Y-126249612D01*
X211898897Y-126571423D01*
X212318846Y-126745801D01*
X212773559Y-126746198D01*
X213193812Y-126572554D01*
X213515623Y-126251303D01*
X213690001Y-125831354D01*
X213690170Y-125637340D01*
X213705838Y-125950368D01*
X213864803Y-126334143D01*
X214106987Y-126403608D01*
X214907595Y-125603000D01*
X215266805Y-125603000D01*
X216067413Y-126403608D01*
X216309597Y-126334143D01*
X216496344Y-125810698D01*
X216468562Y-125255632D01*
X216309597Y-124871857D01*
X216067413Y-124802392D01*
X215266805Y-125603000D01*
X214907595Y-125603000D01*
X214106987Y-124802392D01*
X213864803Y-124871857D01*
X213687348Y-125369258D01*
X213516754Y-124956388D01*
X213195503Y-124634577D01*
X212775554Y-124460199D01*
X212320841Y-124459802D01*
X211900588Y-124633446D01*
X211578777Y-124954697D01*
X211404399Y-125374646D01*
X211404002Y-125829359D01*
X197542262Y-125829359D01*
X197531800Y-125804039D01*
X197531800Y-124040752D01*
X197607082Y-123859454D01*
X197607318Y-123588535D01*
X197503861Y-123338148D01*
X197455157Y-123289359D01*
X211404002Y-123289359D01*
X211577646Y-123709612D01*
X211898897Y-124031423D01*
X212318846Y-124205801D01*
X212773559Y-124206198D01*
X213168015Y-124043213D01*
X214286592Y-124043213D01*
X214356057Y-124285397D01*
X214479544Y-124329453D01*
X214356057Y-124380603D01*
X214286592Y-124622787D01*
X215087200Y-125423395D01*
X215887808Y-124622787D01*
X215818343Y-124380603D01*
X215694856Y-124336547D01*
X215818343Y-124285397D01*
X215887808Y-124043213D01*
X215087200Y-123242605D01*
X214286592Y-124043213D01*
X213168015Y-124043213D01*
X213193812Y-124032554D01*
X213515623Y-123711303D01*
X213690001Y-123291354D01*
X213690170Y-123097340D01*
X213705838Y-123410368D01*
X213864803Y-123794143D01*
X214106987Y-123863608D01*
X214907595Y-123063000D01*
X215266805Y-123063000D01*
X216067413Y-123863608D01*
X216309597Y-123794143D01*
X216496344Y-123270698D01*
X216468562Y-122715632D01*
X216309597Y-122331857D01*
X216067413Y-122262392D01*
X215266805Y-123063000D01*
X214907595Y-123063000D01*
X214106987Y-122262392D01*
X213864803Y-122331857D01*
X213687348Y-122829258D01*
X213516754Y-122416388D01*
X213195503Y-122094577D01*
X212775554Y-121920199D01*
X212320841Y-121919802D01*
X211900588Y-122093446D01*
X211578777Y-122414697D01*
X211404399Y-122834646D01*
X211404002Y-123289359D01*
X197455157Y-123289359D01*
X197312459Y-123146413D01*
X197062254Y-123042518D01*
X196791335Y-123042282D01*
X196540948Y-123145739D01*
X196349213Y-123337141D01*
X196245318Y-123587346D01*
X196245082Y-123858265D01*
X196269800Y-123918088D01*
X196269800Y-125804018D01*
X196219918Y-125924146D01*
X196219682Y-126195065D01*
X196269800Y-126316361D01*
X196269800Y-128079648D01*
X196194518Y-128260946D01*
X196194282Y-128531865D01*
X184313100Y-128531865D01*
X184313100Y-128085892D01*
X185657761Y-126741231D01*
X185758065Y-126741318D01*
X186008452Y-126637861D01*
X186200187Y-126446459D01*
X186304082Y-126196254D01*
X186304318Y-125925335D01*
X186275670Y-125856000D01*
X186500000Y-125856000D01*
X186693638Y-125817483D01*
X186857796Y-125707796D01*
X188357796Y-124207796D01*
X188467483Y-124043638D01*
X188506000Y-123850000D01*
X188506000Y-120749359D01*
X211404002Y-120749359D01*
X211577646Y-121169612D01*
X211898897Y-121491423D01*
X212318846Y-121665801D01*
X212773559Y-121666198D01*
X213193812Y-121492554D01*
X213515623Y-121171303D01*
X213690001Y-120751354D01*
X213690002Y-120749359D01*
X213944002Y-120749359D01*
X214117646Y-121169612D01*
X214438897Y-121491423D01*
X214858846Y-121665801D01*
X215052860Y-121665970D01*
X214739832Y-121681638D01*
X214356057Y-121840603D01*
X214286592Y-122082787D01*
X215087200Y-122883395D01*
X215887808Y-122082787D01*
X215818343Y-121840603D01*
X215320942Y-121663148D01*
X215733812Y-121492554D01*
X216055623Y-121171303D01*
X216230001Y-120751354D01*
X216230398Y-120296641D01*
X216056754Y-119876388D01*
X215735503Y-119554577D01*
X215315554Y-119380199D01*
X214860841Y-119379802D01*
X214440588Y-119553446D01*
X214118777Y-119874697D01*
X213944399Y-120294646D01*
X213944002Y-120749359D01*
X213690002Y-120749359D01*
X213690398Y-120296641D01*
X213516754Y-119876388D01*
X213195503Y-119554577D01*
X212775554Y-119380199D01*
X212320841Y-119379802D01*
X211900588Y-119553446D01*
X211578777Y-119874697D01*
X211404399Y-120294646D01*
X211404002Y-120749359D01*
X188506000Y-120749359D01*
X188506000Y-118209359D01*
X211404002Y-118209359D01*
X211577646Y-118629612D01*
X211898897Y-118951423D01*
X212318846Y-119125801D01*
X212773559Y-119126198D01*
X213193812Y-118952554D01*
X213515623Y-118631303D01*
X213690001Y-118211354D01*
X213690002Y-118209359D01*
X213944002Y-118209359D01*
X214117646Y-118629612D01*
X214438897Y-118951423D01*
X214858846Y-119125801D01*
X215313559Y-119126198D01*
X215733812Y-118952554D01*
X216055623Y-118631303D01*
X216230001Y-118211354D01*
X216230398Y-117756641D01*
X216056754Y-117336388D01*
X215735503Y-117014577D01*
X215315554Y-116840199D01*
X214860841Y-116839802D01*
X214440588Y-117013446D01*
X214118777Y-117334697D01*
X213944399Y-117754646D01*
X213944002Y-118209359D01*
X213690002Y-118209359D01*
X213690398Y-117756641D01*
X213516754Y-117336388D01*
X213195503Y-117014577D01*
X212775554Y-116840199D01*
X212320841Y-116839802D01*
X211900588Y-117013446D01*
X211578777Y-117334697D01*
X211404399Y-117754646D01*
X211404002Y-118209359D01*
X188506000Y-118209359D01*
X188506000Y-115669359D01*
X211404002Y-115669359D01*
X211577646Y-116089612D01*
X211898897Y-116411423D01*
X212318846Y-116585801D01*
X212773559Y-116586198D01*
X213193812Y-116412554D01*
X213515623Y-116091303D01*
X213690001Y-115671354D01*
X213690002Y-115669359D01*
X213944002Y-115669359D01*
X214117646Y-116089612D01*
X214438897Y-116411423D01*
X214858846Y-116585801D01*
X215313559Y-116586198D01*
X215733812Y-116412554D01*
X216055623Y-116091303D01*
X216230001Y-115671354D01*
X216230398Y-115216641D01*
X216056754Y-114796388D01*
X215735503Y-114474577D01*
X215315554Y-114300199D01*
X214860841Y-114299802D01*
X214440588Y-114473446D01*
X214118777Y-114794697D01*
X213944399Y-115214646D01*
X213944002Y-115669359D01*
X213690002Y-115669359D01*
X213690398Y-115216641D01*
X213516754Y-114796388D01*
X213195503Y-114474577D01*
X212775554Y-114300199D01*
X212320841Y-114299802D01*
X211900588Y-114473446D01*
X211578777Y-114794697D01*
X211404399Y-115214646D01*
X211404002Y-115669359D01*
X188506000Y-115669359D01*
X188506000Y-114457123D01*
X188576987Y-114386259D01*
X188680882Y-114136054D01*
X188680970Y-114034622D01*
X189507796Y-113207796D01*
X189560205Y-113129359D01*
X211404002Y-113129359D01*
X211577646Y-113549612D01*
X211898897Y-113871423D01*
X212318846Y-114045801D01*
X212773559Y-114046198D01*
X213193812Y-113872554D01*
X213515623Y-113551303D01*
X213690001Y-113131354D01*
X213690002Y-113129359D01*
X213944002Y-113129359D01*
X214117646Y-113549612D01*
X214438897Y-113871423D01*
X214858846Y-114045801D01*
X215313559Y-114046198D01*
X215733812Y-113872554D01*
X216055623Y-113551303D01*
X216230001Y-113131354D01*
X216230398Y-112676641D01*
X216056754Y-112256388D01*
X215735503Y-111934577D01*
X215315554Y-111760199D01*
X214860841Y-111759802D01*
X214440588Y-111933446D01*
X214118777Y-112254697D01*
X213944399Y-112674646D01*
X213944002Y-113129359D01*
X213690002Y-113129359D01*
X213690398Y-112676641D01*
X213516754Y-112256388D01*
X213195503Y-111934577D01*
X212775554Y-111760199D01*
X212320841Y-111759802D01*
X211900588Y-111933446D01*
X211578777Y-112254697D01*
X211404399Y-112674646D01*
X211404002Y-113129359D01*
X189560205Y-113129359D01*
X189579823Y-113100000D01*
X189617483Y-113043638D01*
X189656000Y-112850000D01*
X189656000Y-110589359D01*
X211404002Y-110589359D01*
X211577646Y-111009612D01*
X211898897Y-111331423D01*
X212318846Y-111505801D01*
X212773559Y-111506198D01*
X213193812Y-111332554D01*
X213515623Y-111011303D01*
X213690001Y-110591354D01*
X213690002Y-110589359D01*
X213944002Y-110589359D01*
X214117646Y-111009612D01*
X214438897Y-111331423D01*
X214858846Y-111505801D01*
X215313559Y-111506198D01*
X215733812Y-111332554D01*
X216055623Y-111011303D01*
X216230001Y-110591354D01*
X216230398Y-110136641D01*
X216056754Y-109716388D01*
X215735503Y-109394577D01*
X215315554Y-109220199D01*
X214860841Y-109219802D01*
X214440588Y-109393446D01*
X214118777Y-109714697D01*
X213944399Y-110134646D01*
X213944002Y-110589359D01*
X213690002Y-110589359D01*
X213690398Y-110136641D01*
X213516754Y-109716388D01*
X213195503Y-109394577D01*
X212775554Y-109220199D01*
X212581540Y-109220030D01*
X212894568Y-109204362D01*
X213278343Y-109045397D01*
X213347808Y-108803213D01*
X212547200Y-108002605D01*
X211746592Y-108803213D01*
X211816057Y-109045397D01*
X212313458Y-109222852D01*
X211900588Y-109393446D01*
X211578777Y-109714697D01*
X211404399Y-110134646D01*
X211404002Y-110589359D01*
X189656000Y-110589359D01*
X189656000Y-109957123D01*
X189726987Y-109886259D01*
X189830882Y-109636054D01*
X189831118Y-109365135D01*
X189727661Y-109114748D01*
X189656000Y-109042962D01*
X189656000Y-107634865D01*
X191318882Y-107634865D01*
X191422339Y-107885252D01*
X191613741Y-108076987D01*
X191863946Y-108180882D01*
X192134865Y-108181118D01*
X192385252Y-108077661D01*
X192576987Y-107886259D01*
X192627318Y-107765050D01*
X192777066Y-107615302D01*
X211138056Y-107615302D01*
X211165838Y-108170368D01*
X211324803Y-108554143D01*
X211566987Y-108623608D01*
X212367595Y-107823000D01*
X212726805Y-107823000D01*
X213527413Y-108623608D01*
X213769597Y-108554143D01*
X213947052Y-108056742D01*
X214117646Y-108469612D01*
X214438897Y-108791423D01*
X214858846Y-108965801D01*
X215313559Y-108966198D01*
X215733812Y-108792554D01*
X216055623Y-108471303D01*
X216230001Y-108051354D01*
X216230398Y-107596641D01*
X216056754Y-107176388D01*
X215735503Y-106854577D01*
X215315554Y-106680199D01*
X215121540Y-106680030D01*
X215434568Y-106664362D01*
X215818343Y-106505397D01*
X215887808Y-106263213D01*
X215087200Y-105462605D01*
X214286592Y-106263213D01*
X214356057Y-106505397D01*
X214853458Y-106682852D01*
X214440588Y-106853446D01*
X214118777Y-107174697D01*
X213944399Y-107594646D01*
X213944230Y-107788660D01*
X213928562Y-107475632D01*
X213769597Y-107091857D01*
X213527413Y-107022392D01*
X212726805Y-107823000D01*
X212367595Y-107823000D01*
X211566987Y-107022392D01*
X211324803Y-107091857D01*
X211138056Y-107615302D01*
X192777066Y-107615302D01*
X193046184Y-107346184D01*
X193182968Y-107141474D01*
X193200404Y-107053816D01*
X193231000Y-106900000D01*
X193231000Y-105509359D01*
X211404002Y-105509359D01*
X211577646Y-105929612D01*
X211898897Y-106251423D01*
X212318846Y-106425801D01*
X212512860Y-106425970D01*
X212199832Y-106441638D01*
X211816057Y-106600603D01*
X211746592Y-106842787D01*
X212547200Y-107643395D01*
X213347808Y-106842787D01*
X213278343Y-106600603D01*
X212780942Y-106423148D01*
X213193812Y-106252554D01*
X213515623Y-105931303D01*
X213690001Y-105511354D01*
X213690170Y-105317340D01*
X213705838Y-105630368D01*
X213864803Y-106014143D01*
X214106987Y-106083608D01*
X214907595Y-105283000D01*
X215266805Y-105283000D01*
X216067413Y-106083608D01*
X216309597Y-106014143D01*
X216496344Y-105490698D01*
X216468562Y-104935632D01*
X216309597Y-104551857D01*
X216067413Y-104482392D01*
X215266805Y-105283000D01*
X214907595Y-105283000D01*
X214106987Y-104482392D01*
X213864803Y-104551857D01*
X213687348Y-105049258D01*
X213516754Y-104636388D01*
X213195503Y-104314577D01*
X212775554Y-104140199D01*
X212320841Y-104139802D01*
X211900588Y-104313446D01*
X211578777Y-104634697D01*
X211404399Y-105054646D01*
X211404002Y-105509359D01*
X193231000Y-105509359D01*
X193231000Y-102969359D01*
X211404002Y-102969359D01*
X211577646Y-103389612D01*
X211898897Y-103711423D01*
X212318846Y-103885801D01*
X212773559Y-103886198D01*
X213168015Y-103723213D01*
X214286592Y-103723213D01*
X214356057Y-103965397D01*
X214479544Y-104009453D01*
X214356057Y-104060603D01*
X214286592Y-104302787D01*
X215087200Y-105103395D01*
X215887808Y-104302787D01*
X215818343Y-104060603D01*
X215694856Y-104016547D01*
X215818343Y-103965397D01*
X215887808Y-103723213D01*
X215087200Y-102922605D01*
X214286592Y-103723213D01*
X213168015Y-103723213D01*
X213193812Y-103712554D01*
X213515623Y-103391303D01*
X213690001Y-102971354D01*
X213690170Y-102777340D01*
X213705838Y-103090368D01*
X213864803Y-103474143D01*
X214106987Y-103543608D01*
X214907595Y-102743000D01*
X215266805Y-102743000D01*
X216067413Y-103543608D01*
X216309597Y-103474143D01*
X216496344Y-102950698D01*
X216468562Y-102395632D01*
X216309597Y-102011857D01*
X216067413Y-101942392D01*
X215266805Y-102743000D01*
X214907595Y-102743000D01*
X214106987Y-101942392D01*
X213864803Y-102011857D01*
X213687348Y-102509258D01*
X213516754Y-102096388D01*
X213195503Y-101774577D01*
X212775554Y-101600199D01*
X212320841Y-101599802D01*
X211900588Y-101773446D01*
X211578777Y-102094697D01*
X211404399Y-102514646D01*
X211404002Y-102969359D01*
X193231000Y-102969359D01*
X193231000Y-102506182D01*
X193280882Y-102386054D01*
X193281118Y-102115135D01*
X193177661Y-101864748D01*
X192986259Y-101673013D01*
X192736054Y-101569118D01*
X192465135Y-101568882D01*
X192214748Y-101672339D01*
X192023013Y-101863741D01*
X191919118Y-102113946D01*
X191918882Y-102384865D01*
X191969000Y-102506161D01*
X191969000Y-106638632D01*
X191734965Y-106872667D01*
X191614748Y-106922339D01*
X191423013Y-107113741D01*
X191319118Y-107363946D01*
X191318882Y-107634865D01*
X189656000Y-107634865D01*
X189656000Y-105407123D01*
X189726987Y-105336259D01*
X189830882Y-105086054D01*
X189831118Y-104815135D01*
X189727661Y-104564748D01*
X189536259Y-104373013D01*
X189286054Y-104269118D01*
X189015135Y-104268882D01*
X188764748Y-104372339D01*
X188743049Y-104394000D01*
X186307123Y-104394000D01*
X186236259Y-104323013D01*
X185986054Y-104219118D01*
X185715135Y-104218882D01*
X185464748Y-104322339D01*
X185273013Y-104513741D01*
X185169118Y-104763946D01*
X185168882Y-105034865D01*
X185272339Y-105285252D01*
X185463741Y-105476987D01*
X185713946Y-105580882D01*
X185984865Y-105581118D01*
X186235252Y-105477661D01*
X186307038Y-105406000D01*
X188642964Y-105406000D01*
X188644000Y-105407038D01*
X188644000Y-109042877D01*
X188573013Y-109113741D01*
X188469118Y-109363946D01*
X188468882Y-109634865D01*
X188572339Y-109885252D01*
X188644000Y-109957038D01*
X188644000Y-111130941D01*
X188536259Y-111023013D01*
X188286054Y-110919118D01*
X188015135Y-110918882D01*
X187764748Y-111022339D01*
X187573013Y-111213741D01*
X187469118Y-111463946D01*
X187469030Y-111565378D01*
X186292204Y-112742204D01*
X186182517Y-112906362D01*
X186144000Y-113100000D01*
X186144000Y-123230344D01*
X186034859Y-123121013D01*
X185784654Y-123017118D01*
X185513735Y-123016882D01*
X185263348Y-123120339D01*
X185191562Y-123192000D01*
X172923200Y-123192000D01*
X172729562Y-123230517D01*
X172565404Y-123340204D01*
X170501039Y-125404569D01*
X170400735Y-125404482D01*
X170150348Y-125507939D01*
X169958613Y-125699341D01*
X169854718Y-125949546D01*
X169854482Y-126220465D01*
X166468127Y-126220465D01*
X168436561Y-124252031D01*
X168536865Y-124252118D01*
X168787252Y-124148661D01*
X168978987Y-123957259D01*
X169082882Y-123707054D01*
X169083118Y-123436135D01*
X168979661Y-123185748D01*
X168788259Y-122994013D01*
X168538054Y-122890118D01*
X168267135Y-122889882D01*
X168016748Y-122993339D01*
X167825013Y-123184741D01*
X167721118Y-123434946D01*
X167721030Y-123536378D01*
X158288512Y-132968896D01*
X158180741Y-132968802D01*
X157760488Y-133142446D01*
X157438677Y-133463697D01*
X157264299Y-133883646D01*
X157263902Y-134338359D01*
X121487000Y-134338359D01*
X121487000Y-131534865D01*
X123218882Y-131534865D01*
X123322339Y-131785252D01*
X123513741Y-131976987D01*
X123634949Y-132027317D01*
X124323816Y-132716185D01*
X124528527Y-132852968D01*
X124770000Y-132901000D01*
X151050000Y-132901000D01*
X151291473Y-132852968D01*
X151496184Y-132716184D01*
X166571368Y-117641000D01*
X175800000Y-117641000D01*
X176041473Y-117592968D01*
X176246184Y-117456184D01*
X182821369Y-110881000D01*
X182843818Y-110881000D01*
X182963946Y-110930882D01*
X183234865Y-110931118D01*
X183485252Y-110827661D01*
X183676987Y-110636259D01*
X183780882Y-110386054D01*
X183781118Y-110115135D01*
X183677661Y-109864748D01*
X183531000Y-109717832D01*
X183531000Y-107356182D01*
X183580882Y-107236054D01*
X183581118Y-106965135D01*
X183531000Y-106843839D01*
X183531000Y-104961368D01*
X185615036Y-102877333D01*
X185735252Y-102827661D01*
X185926987Y-102636259D01*
X186030882Y-102386054D01*
X186031118Y-102115135D01*
X185927661Y-101864748D01*
X185736259Y-101673013D01*
X185486054Y-101569118D01*
X185215135Y-101568882D01*
X184964748Y-101672339D01*
X184773013Y-101863741D01*
X184722683Y-101984948D01*
X182453816Y-104253816D01*
X182317032Y-104458527D01*
X182269000Y-104700000D01*
X182269000Y-106843818D01*
X182219118Y-106963946D01*
X182218882Y-107234865D01*
X182269000Y-107356161D01*
X182269000Y-109700125D01*
X182113816Y-109803815D01*
X175538632Y-116379000D01*
X166310000Y-116379000D01*
X166068527Y-116427032D01*
X165863816Y-116563816D01*
X150788632Y-131639000D01*
X125031369Y-131639000D01*
X124527333Y-131134965D01*
X124477661Y-131014748D01*
X124286259Y-130823013D01*
X124036054Y-130719118D01*
X123765135Y-130718882D01*
X123514748Y-130822339D01*
X123323013Y-131013741D01*
X123219118Y-131263946D01*
X123218882Y-131534865D01*
X121487000Y-131534865D01*
X121487000Y-117934865D01*
X125718882Y-117934865D01*
X125822339Y-118185252D01*
X125894000Y-118257038D01*
X125894000Y-119600000D01*
X125932517Y-119793638D01*
X126042204Y-119957796D01*
X131786226Y-125701818D01*
X131635774Y-125639345D01*
X130847684Y-125638657D01*
X130119320Y-125939611D01*
X129561569Y-126496389D01*
X129259345Y-127224226D01*
X129258657Y-128012316D01*
X129559611Y-128740680D01*
X130116389Y-129298431D01*
X130844226Y-129600655D01*
X131632316Y-129601343D01*
X132360680Y-129300389D01*
X132918431Y-128743611D01*
X133220655Y-128015774D01*
X133221343Y-127227684D01*
X133135618Y-127020213D01*
X133206362Y-127067483D01*
X133400000Y-127106000D01*
X137660000Y-127106000D01*
X137853638Y-127067483D01*
X138017796Y-126957796D01*
X138853808Y-126121784D01*
X139044065Y-126200786D01*
X139533787Y-126201213D01*
X139986395Y-126014200D01*
X140332983Y-125668216D01*
X140520786Y-125215935D01*
X140521213Y-124726213D01*
X140334200Y-124273605D01*
X139988216Y-123927017D01*
X139535935Y-123739214D01*
X139046213Y-123738787D01*
X138593605Y-123925800D01*
X138247017Y-124271784D01*
X138183843Y-124423923D01*
X138085259Y-124185920D01*
X137833958Y-124105647D01*
X136969605Y-124970000D01*
X136983748Y-124984143D01*
X136804143Y-125163748D01*
X136790000Y-125149605D01*
X135925647Y-126013958D01*
X135951215Y-126094000D01*
X134793263Y-126094000D01*
X134986395Y-126014200D01*
X135332983Y-125668216D01*
X135396157Y-125516077D01*
X135494741Y-125754080D01*
X135746042Y-125834353D01*
X136610395Y-124970000D01*
X135746042Y-124105647D01*
X135494741Y-124185920D01*
X135402750Y-124439510D01*
X135334200Y-124273605D01*
X134988216Y-123927017D01*
X134535935Y-123739214D01*
X134046213Y-123738787D01*
X133593605Y-123925800D01*
X133247017Y-124271784D01*
X133059214Y-124724065D01*
X133058787Y-125213787D01*
X133245800Y-125666395D01*
X133591784Y-126012983D01*
X133786895Y-126094000D01*
X133609592Y-126094000D01*
X130229379Y-122713787D01*
X133058787Y-122713787D01*
X133245800Y-123166395D01*
X133591784Y-123512983D01*
X134044065Y-123700786D01*
X134533787Y-123701213D01*
X134986395Y-123514200D01*
X135332983Y-123168216D01*
X135520786Y-122715935D01*
X135520787Y-122713787D01*
X135558787Y-122713787D01*
X135745800Y-123166395D01*
X136091784Y-123512983D01*
X136243923Y-123576157D01*
X136005920Y-123674741D01*
X135925647Y-123926042D01*
X136790000Y-124790395D01*
X137654353Y-123926042D01*
X137574080Y-123674741D01*
X137320490Y-123582750D01*
X137486395Y-123514200D01*
X137832983Y-123168216D01*
X138020786Y-122715935D01*
X138020787Y-122713787D01*
X138058787Y-122713787D01*
X138245800Y-123166395D01*
X138591784Y-123512983D01*
X139044065Y-123700786D01*
X139533787Y-123701213D01*
X139986395Y-123514200D01*
X140332983Y-123168216D01*
X140520786Y-122715935D01*
X140520787Y-122713787D01*
X140558787Y-122713787D01*
X140745800Y-123166395D01*
X141091784Y-123512983D01*
X141544065Y-123700786D01*
X142033787Y-123701213D01*
X142288397Y-123596011D01*
X142113137Y-123771271D01*
X142035935Y-123739214D01*
X141546213Y-123738787D01*
X141093605Y-123925800D01*
X140747017Y-124271784D01*
X140559214Y-124724065D01*
X140558787Y-125213787D01*
X140745800Y-125666395D01*
X141091784Y-126012983D01*
X141544065Y-126200786D01*
X142033787Y-126201213D01*
X142486395Y-126014200D01*
X142832983Y-125668216D01*
X143020786Y-125215935D01*
X143021213Y-124726213D01*
X142894953Y-124420639D01*
X143109592Y-124206000D01*
X143312916Y-124206000D01*
X143247017Y-124271784D01*
X143059214Y-124724065D01*
X143058787Y-125213787D01*
X143245800Y-125666395D01*
X143591784Y-126012983D01*
X144044065Y-126200786D01*
X144533787Y-126201213D01*
X144986395Y-126014200D01*
X144986637Y-126013958D01*
X145925647Y-126013958D01*
X146005920Y-126265259D01*
X146561279Y-126466718D01*
X147151458Y-126440315D01*
X147574080Y-126265259D01*
X147654353Y-126013958D01*
X146790000Y-125149605D01*
X145925647Y-126013958D01*
X144986637Y-126013958D01*
X145332983Y-125668216D01*
X145396157Y-125516077D01*
X145494741Y-125754080D01*
X145746042Y-125834353D01*
X146610395Y-124970000D01*
X146969605Y-124970000D01*
X147833958Y-125834353D01*
X148085259Y-125754080D01*
X148286718Y-125198721D01*
X148260315Y-124608542D01*
X148085259Y-124185920D01*
X147833958Y-124105647D01*
X146969605Y-124970000D01*
X146610395Y-124970000D01*
X146596253Y-124955858D01*
X146775858Y-124776253D01*
X146790000Y-124790395D01*
X147654353Y-123926042D01*
X147574080Y-123674741D01*
X147320490Y-123582750D01*
X147486395Y-123514200D01*
X147832983Y-123168216D01*
X148020786Y-122715935D01*
X148021213Y-122226213D01*
X147834200Y-121773605D01*
X147488216Y-121427017D01*
X147035935Y-121239214D01*
X146546213Y-121238787D01*
X146093605Y-121425800D01*
X145747017Y-121771784D01*
X145559214Y-122224065D01*
X145558787Y-122713787D01*
X145638266Y-122906142D01*
X145350408Y-123194000D01*
X145307154Y-123194000D01*
X145332983Y-123168216D01*
X145520786Y-122715935D01*
X145521213Y-122226213D01*
X145334200Y-121773605D01*
X144988216Y-121427017D01*
X144535935Y-121239214D01*
X144046213Y-121238787D01*
X143593605Y-121425800D01*
X143247017Y-121771784D01*
X143059214Y-122224065D01*
X143058787Y-122713787D01*
X143245800Y-123166395D01*
X143273357Y-123194000D01*
X142900000Y-123194000D01*
X142784050Y-123217064D01*
X142832983Y-123168216D01*
X143020786Y-122715935D01*
X143021213Y-122226213D01*
X142834200Y-121773605D01*
X142488216Y-121427017D01*
X142035935Y-121239214D01*
X141546213Y-121238787D01*
X141093605Y-121425800D01*
X140747017Y-121771784D01*
X140559214Y-122224065D01*
X140558787Y-122713787D01*
X140520787Y-122713787D01*
X140521213Y-122226213D01*
X140334200Y-121773605D01*
X139988216Y-121427017D01*
X139535935Y-121239214D01*
X139046213Y-121238787D01*
X138593605Y-121425800D01*
X138247017Y-121771784D01*
X138059214Y-122224065D01*
X138058787Y-122713787D01*
X138020787Y-122713787D01*
X138021213Y-122226213D01*
X137834200Y-121773605D01*
X137488216Y-121427017D01*
X137035935Y-121239214D01*
X136546213Y-121238787D01*
X136093605Y-121425800D01*
X135747017Y-121771784D01*
X135559214Y-122224065D01*
X135558787Y-122713787D01*
X135520787Y-122713787D01*
X135521213Y-122226213D01*
X135334200Y-121773605D01*
X134988216Y-121427017D01*
X134535935Y-121239214D01*
X134046213Y-121238787D01*
X133593605Y-121425800D01*
X133247017Y-121771784D01*
X133059214Y-122224065D01*
X133058787Y-122713787D01*
X130229379Y-122713787D01*
X127727908Y-120212316D01*
X129258657Y-120212316D01*
X129559611Y-120940680D01*
X130116389Y-121498431D01*
X130844226Y-121800655D01*
X131632316Y-121801343D01*
X132360680Y-121500389D01*
X132918431Y-120943611D01*
X133220655Y-120215774D01*
X133221343Y-119427684D01*
X132920389Y-118699320D01*
X132363611Y-118141569D01*
X131635774Y-117839345D01*
X130847684Y-117838657D01*
X130119320Y-118139611D01*
X129561569Y-118696389D01*
X129259345Y-119424226D01*
X129258657Y-120212316D01*
X127727908Y-120212316D01*
X126906000Y-119390408D01*
X126906000Y-118257123D01*
X126976987Y-118186259D01*
X127080882Y-117936054D01*
X127081118Y-117665135D01*
X126977661Y-117414748D01*
X126786259Y-117223013D01*
X126536054Y-117119118D01*
X126265135Y-117118882D01*
X126014748Y-117222339D01*
X125823013Y-117413741D01*
X125719118Y-117663946D01*
X125718882Y-117934865D01*
X121487000Y-117934865D01*
X121487000Y-100048925D01*
X130782400Y-100048925D01*
X131015358Y-100430038D01*
X132023184Y-100840087D01*
X133111214Y-100833245D01*
X134084642Y-100430038D01*
X134085057Y-100429359D01*
X211404002Y-100429359D01*
X211577646Y-100849612D01*
X211898897Y-101171423D01*
X212318846Y-101345801D01*
X212773559Y-101346198D01*
X213168015Y-101183213D01*
X214286592Y-101183213D01*
X214356057Y-101425397D01*
X214479544Y-101469453D01*
X214356057Y-101520603D01*
X214286592Y-101762787D01*
X215087200Y-102563395D01*
X215887808Y-101762787D01*
X215818343Y-101520603D01*
X215694856Y-101476547D01*
X215818343Y-101425397D01*
X215887808Y-101183213D01*
X215087200Y-100382605D01*
X214286592Y-101183213D01*
X213168015Y-101183213D01*
X213193812Y-101172554D01*
X213515623Y-100851303D01*
X213690001Y-100431354D01*
X213690170Y-100237340D01*
X213705838Y-100550368D01*
X213864803Y-100934143D01*
X214106987Y-101003608D01*
X214907595Y-100203000D01*
X215266805Y-100203000D01*
X216067413Y-101003608D01*
X216309597Y-100934143D01*
X216496344Y-100410698D01*
X216468562Y-99855632D01*
X216309597Y-99471857D01*
X216067413Y-99402392D01*
X215266805Y-100203000D01*
X214907595Y-100203000D01*
X214106987Y-99402392D01*
X213864803Y-99471857D01*
X213687348Y-99969258D01*
X213516754Y-99556388D01*
X213195503Y-99234577D01*
X212775554Y-99060199D01*
X212320841Y-99059802D01*
X211900588Y-99233446D01*
X211578777Y-99554697D01*
X211404399Y-99974646D01*
X211404002Y-100429359D01*
X134085057Y-100429359D01*
X134317600Y-100048925D01*
X132550000Y-98281325D01*
X130782400Y-100048925D01*
X121487000Y-100048925D01*
X121487000Y-97574904D01*
X129811633Y-97574904D01*
X129818475Y-98662934D01*
X130221682Y-99636362D01*
X130602795Y-99869320D01*
X132370395Y-98101720D01*
X132729605Y-98101720D01*
X134497205Y-99869320D01*
X134878318Y-99636362D01*
X135288367Y-98628536D01*
X135281525Y-97540506D01*
X134878318Y-96567078D01*
X134497205Y-96334120D01*
X132729605Y-98101720D01*
X132370395Y-98101720D01*
X130602795Y-96334120D01*
X130221682Y-96567078D01*
X129811633Y-97574904D01*
X121487000Y-97574904D01*
X121487000Y-96154515D01*
X130782400Y-96154515D01*
X132550000Y-97922115D01*
X134317600Y-96154515D01*
X134084642Y-95773402D01*
X133076816Y-95363353D01*
X131988786Y-95370195D01*
X131015358Y-95773402D01*
X130782400Y-96154515D01*
X121487000Y-96154515D01*
X121487000Y-92171479D01*
X131649446Y-92171479D01*
X131735852Y-92427963D01*
X132309336Y-92637778D01*
X132919460Y-92612159D01*
X133364148Y-92427963D01*
X133450554Y-92171479D01*
X132550000Y-91270925D01*
X131649446Y-92171479D01*
X121487000Y-92171479D01*
X121487000Y-81027529D01*
X128728778Y-81027529D01*
X128923388Y-81498520D01*
X129283425Y-81859185D01*
X129428164Y-81919286D01*
X129285320Y-81978308D01*
X128924655Y-82338345D01*
X128729223Y-82808996D01*
X128728778Y-83318609D01*
X128923388Y-83789600D01*
X129283425Y-84150265D01*
X129428164Y-84210366D01*
X129285320Y-84269388D01*
X128924655Y-84629425D01*
X128729223Y-85100076D01*
X128728778Y-85609689D01*
X128923388Y-86080680D01*
X129283425Y-86441345D01*
X129428164Y-86501446D01*
X129285320Y-86560468D01*
X128924655Y-86920505D01*
X128729223Y-87391156D01*
X128728778Y-87900769D01*
X128923388Y-88371760D01*
X129283425Y-88732425D01*
X129428164Y-88792526D01*
X129285320Y-88851548D01*
X128924655Y-89211585D01*
X128729223Y-89682236D01*
X128728778Y-90191849D01*
X128923388Y-90662840D01*
X129283425Y-91023505D01*
X129754076Y-91218937D01*
X130263689Y-91219382D01*
X130734680Y-91024772D01*
X131057880Y-90702135D01*
X131003542Y-90850656D01*
X131029161Y-91460780D01*
X131213357Y-91905468D01*
X131469841Y-91991874D01*
X132370395Y-91091320D01*
X131469841Y-90190766D01*
X131263256Y-90260362D01*
X131290777Y-90194084D01*
X131291050Y-89880399D01*
X131649446Y-89880399D01*
X131671472Y-89945780D01*
X131649446Y-90011161D01*
X131715878Y-90077593D01*
X131735852Y-90136883D01*
X131797851Y-90159566D01*
X132550000Y-90911715D01*
X133297031Y-90164684D01*
X133364148Y-90136883D01*
X133384122Y-90077593D01*
X133450554Y-90011161D01*
X133428528Y-89945780D01*
X133450554Y-89880399D01*
X133384122Y-89813967D01*
X133364148Y-89754677D01*
X133302149Y-89731994D01*
X132550000Y-88979845D01*
X131802969Y-89726876D01*
X131735852Y-89754677D01*
X131715878Y-89813967D01*
X131649446Y-89880399D01*
X131291050Y-89880399D01*
X131291222Y-89684471D01*
X131270173Y-89633529D01*
X131469841Y-89700794D01*
X132370395Y-88800240D01*
X131469841Y-87899686D01*
X131263256Y-87969282D01*
X131290777Y-87903004D01*
X131291050Y-87589319D01*
X131649446Y-87589319D01*
X131671472Y-87654700D01*
X131649446Y-87720081D01*
X131715878Y-87786513D01*
X131735852Y-87845803D01*
X131797851Y-87868486D01*
X132550000Y-88620635D01*
X133297031Y-87873604D01*
X133364148Y-87845803D01*
X133384122Y-87786513D01*
X133450554Y-87720081D01*
X133428528Y-87654700D01*
X133450554Y-87589319D01*
X133384122Y-87522887D01*
X133364148Y-87463597D01*
X133302149Y-87440914D01*
X132550000Y-86688765D01*
X131802969Y-87435796D01*
X131735852Y-87463597D01*
X131715878Y-87522887D01*
X131649446Y-87589319D01*
X131291050Y-87589319D01*
X131291222Y-87393391D01*
X131270173Y-87342449D01*
X131469841Y-87409714D01*
X132370395Y-86509160D01*
X131469841Y-85608606D01*
X131263256Y-85678202D01*
X131290777Y-85611924D01*
X131291050Y-85298239D01*
X131649446Y-85298239D01*
X131671472Y-85363620D01*
X131649446Y-85429001D01*
X131715878Y-85495433D01*
X131735852Y-85554723D01*
X131797851Y-85577406D01*
X132550000Y-86329555D01*
X133297031Y-85582524D01*
X133364148Y-85554723D01*
X133384122Y-85495433D01*
X133450554Y-85429001D01*
X133428528Y-85363620D01*
X133450554Y-85298239D01*
X133384122Y-85231807D01*
X133364148Y-85172517D01*
X133302149Y-85149834D01*
X132550000Y-84397685D01*
X131802969Y-85144716D01*
X131735852Y-85172517D01*
X131715878Y-85231807D01*
X131649446Y-85298239D01*
X131291050Y-85298239D01*
X131291222Y-85102311D01*
X131270173Y-85051369D01*
X131469841Y-85118634D01*
X132370395Y-84218080D01*
X131469841Y-83317526D01*
X131263256Y-83387122D01*
X131290777Y-83320844D01*
X131291050Y-83007159D01*
X131649446Y-83007159D01*
X131671472Y-83072540D01*
X131649446Y-83137921D01*
X131715878Y-83204353D01*
X131735852Y-83263643D01*
X131797851Y-83286326D01*
X132550000Y-84038475D01*
X133297031Y-83291444D01*
X133364148Y-83263643D01*
X133384122Y-83204353D01*
X133450554Y-83137921D01*
X133428528Y-83072540D01*
X133450554Y-83007159D01*
X133384122Y-82940727D01*
X133364148Y-82881437D01*
X133302149Y-82858754D01*
X132550000Y-82106605D01*
X131802969Y-82853636D01*
X131735852Y-82881437D01*
X131715878Y-82940727D01*
X131649446Y-83007159D01*
X131291050Y-83007159D01*
X131291222Y-82811231D01*
X131270173Y-82760289D01*
X131469841Y-82827554D01*
X132370395Y-81927000D01*
X132729605Y-81927000D01*
X133630159Y-82827554D01*
X133829387Y-82760437D01*
X133809223Y-82808996D01*
X133808778Y-83318609D01*
X133837142Y-83387256D01*
X133630159Y-83317526D01*
X132729605Y-84218080D01*
X133630159Y-85118634D01*
X133829387Y-85051517D01*
X133809223Y-85100076D01*
X133808778Y-85609689D01*
X133837142Y-85678336D01*
X133630159Y-85608606D01*
X132729605Y-86509160D01*
X133630159Y-87409714D01*
X133829387Y-87342597D01*
X133809223Y-87391156D01*
X133808778Y-87900769D01*
X133837142Y-87969416D01*
X133630159Y-87899686D01*
X132729605Y-88800240D01*
X133630159Y-89700794D01*
X133829387Y-89633677D01*
X133809223Y-89682236D01*
X133808778Y-90191849D01*
X133837142Y-90260496D01*
X133630159Y-90190766D01*
X132729605Y-91091320D01*
X133630159Y-91991874D01*
X133886643Y-91905468D01*
X134096458Y-91331984D01*
X134071214Y-90730784D01*
X134363425Y-91023505D01*
X134834076Y-91218937D01*
X135343689Y-91219382D01*
X135814680Y-91024772D01*
X136175345Y-90664735D01*
X136370777Y-90194084D01*
X136371222Y-89684471D01*
X136176612Y-89213480D01*
X135816575Y-88852815D01*
X135671836Y-88792714D01*
X135814680Y-88733692D01*
X136175345Y-88373655D01*
X136266936Y-88153080D01*
X137387488Y-88153080D01*
X142594000Y-93359592D01*
X142594000Y-97660000D01*
X142632517Y-97853638D01*
X142742204Y-98017796D01*
X144058969Y-99334561D01*
X144058882Y-99434865D01*
X144162339Y-99685252D01*
X144353741Y-99876987D01*
X144603946Y-99980882D01*
X144874865Y-99981118D01*
X145125252Y-99877661D01*
X145316987Y-99686259D01*
X145420882Y-99436054D01*
X145421118Y-99165135D01*
X145317661Y-98914748D01*
X145126259Y-98723013D01*
X144916867Y-98636065D01*
X198073882Y-98636065D01*
X198177339Y-98886452D01*
X198368741Y-99078187D01*
X198618946Y-99182082D01*
X198889865Y-99182318D01*
X199140252Y-99078861D01*
X199331987Y-98887459D01*
X199382318Y-98766250D01*
X200259209Y-97889359D01*
X211404002Y-97889359D01*
X211577646Y-98309612D01*
X211898897Y-98631423D01*
X212318846Y-98805801D01*
X212773559Y-98806198D01*
X213168015Y-98643213D01*
X214286592Y-98643213D01*
X214356057Y-98885397D01*
X214479544Y-98929453D01*
X214356057Y-98980603D01*
X214286592Y-99222787D01*
X215087200Y-100023395D01*
X215887808Y-99222787D01*
X215818343Y-98980603D01*
X215694856Y-98936547D01*
X215818343Y-98885397D01*
X215887808Y-98643213D01*
X215087200Y-97842605D01*
X214286592Y-98643213D01*
X213168015Y-98643213D01*
X213193812Y-98632554D01*
X213515623Y-98311303D01*
X213690001Y-97891354D01*
X213690170Y-97697340D01*
X213705838Y-98010368D01*
X213864803Y-98394143D01*
X214106987Y-98463608D01*
X214907595Y-97663000D01*
X215266805Y-97663000D01*
X216067413Y-98463608D01*
X216309597Y-98394143D01*
X216496344Y-97870698D01*
X216468562Y-97315632D01*
X216309597Y-96931857D01*
X216067413Y-96862392D01*
X215266805Y-97663000D01*
X214907595Y-97663000D01*
X214106987Y-96862392D01*
X213864803Y-96931857D01*
X213687348Y-97429258D01*
X213516754Y-97016388D01*
X213195503Y-96694577D01*
X212775554Y-96520199D01*
X212320841Y-96519802D01*
X211900588Y-96693446D01*
X211578777Y-97014697D01*
X211404399Y-97434646D01*
X211404002Y-97889359D01*
X200259209Y-97889359D01*
X202799209Y-95349359D01*
X211404002Y-95349359D01*
X211577646Y-95769612D01*
X211898897Y-96091423D01*
X212318846Y-96265801D01*
X212773559Y-96266198D01*
X213168015Y-96103213D01*
X214286592Y-96103213D01*
X214356057Y-96345397D01*
X214479544Y-96389453D01*
X214356057Y-96440603D01*
X214286592Y-96682787D01*
X215087200Y-97483395D01*
X215887808Y-96682787D01*
X215818343Y-96440603D01*
X215694856Y-96396547D01*
X215818343Y-96345397D01*
X215887808Y-96103213D01*
X215087200Y-95302605D01*
X214286592Y-96103213D01*
X213168015Y-96103213D01*
X213193812Y-96092554D01*
X213515623Y-95771303D01*
X213690001Y-95351354D01*
X213690170Y-95157340D01*
X213705838Y-95470368D01*
X213864803Y-95854143D01*
X214106987Y-95923608D01*
X214907595Y-95123000D01*
X215266805Y-95123000D01*
X216067413Y-95923608D01*
X216309597Y-95854143D01*
X216496344Y-95330698D01*
X216468562Y-94775632D01*
X216309597Y-94391857D01*
X216067413Y-94322392D01*
X215266805Y-95123000D01*
X214907595Y-95123000D01*
X214106987Y-94322392D01*
X213864803Y-94391857D01*
X213687348Y-94889258D01*
X213516754Y-94476388D01*
X213195503Y-94154577D01*
X212775554Y-93980199D01*
X212320841Y-93979802D01*
X211900588Y-94153446D01*
X211578777Y-94474697D01*
X211404399Y-94894646D01*
X211404002Y-95349359D01*
X202799209Y-95349359D01*
X205339209Y-92809359D01*
X211404002Y-92809359D01*
X211577646Y-93229612D01*
X211898897Y-93551423D01*
X212318846Y-93725801D01*
X212773559Y-93726198D01*
X213168015Y-93563213D01*
X214286592Y-93563213D01*
X214356057Y-93805397D01*
X214479544Y-93849453D01*
X214356057Y-93900603D01*
X214286592Y-94142787D01*
X215087200Y-94943395D01*
X215887808Y-94142787D01*
X215818343Y-93900603D01*
X215694856Y-93856547D01*
X215818343Y-93805397D01*
X215887808Y-93563213D01*
X215087200Y-92762605D01*
X214286592Y-93563213D01*
X213168015Y-93563213D01*
X213193812Y-93552554D01*
X213515623Y-93231303D01*
X213690001Y-92811354D01*
X213690170Y-92617340D01*
X213705838Y-92930368D01*
X213864803Y-93314143D01*
X214106987Y-93383608D01*
X214907595Y-92583000D01*
X215266805Y-92583000D01*
X216067413Y-93383608D01*
X216309597Y-93314143D01*
X216496344Y-92790698D01*
X216468562Y-92235632D01*
X216309597Y-91851857D01*
X216067413Y-91782392D01*
X215266805Y-92583000D01*
X214907595Y-92583000D01*
X214106987Y-91782392D01*
X213864803Y-91851857D01*
X213687348Y-92349258D01*
X213516754Y-91936388D01*
X213195503Y-91614577D01*
X212775554Y-91440199D01*
X212320841Y-91439802D01*
X211900588Y-91613446D01*
X211578777Y-91934697D01*
X211404399Y-92354646D01*
X211404002Y-92809359D01*
X205339209Y-92809359D01*
X207879209Y-90269359D01*
X211404002Y-90269359D01*
X211577646Y-90689612D01*
X211898897Y-91011423D01*
X212318846Y-91185801D01*
X212773559Y-91186198D01*
X213168015Y-91023213D01*
X214286592Y-91023213D01*
X214356057Y-91265397D01*
X214479544Y-91309453D01*
X214356057Y-91360603D01*
X214286592Y-91602787D01*
X215087200Y-92403395D01*
X215887808Y-91602787D01*
X215818343Y-91360603D01*
X215694856Y-91316547D01*
X215818343Y-91265397D01*
X215887808Y-91023213D01*
X215087200Y-90222605D01*
X214286592Y-91023213D01*
X213168015Y-91023213D01*
X213193812Y-91012554D01*
X213515623Y-90691303D01*
X213690001Y-90271354D01*
X213690170Y-90077340D01*
X213705838Y-90390368D01*
X213864803Y-90774143D01*
X214106987Y-90843608D01*
X214907595Y-90043000D01*
X215266805Y-90043000D01*
X216067413Y-90843608D01*
X216309597Y-90774143D01*
X216496344Y-90250698D01*
X216468562Y-89695632D01*
X216309597Y-89311857D01*
X216067413Y-89242392D01*
X215266805Y-90043000D01*
X214907595Y-90043000D01*
X214106987Y-89242392D01*
X213864803Y-89311857D01*
X213687348Y-89809258D01*
X213516754Y-89396388D01*
X213195503Y-89074577D01*
X212775554Y-88900199D01*
X212320841Y-88899802D01*
X211900588Y-89073446D01*
X211578777Y-89394697D01*
X211404399Y-89814646D01*
X211404002Y-90269359D01*
X207879209Y-90269359D01*
X207913384Y-90235185D01*
X208050168Y-90030474D01*
X208058137Y-89990411D01*
X208098200Y-89789000D01*
X208098200Y-87729359D01*
X211404002Y-87729359D01*
X211577646Y-88149612D01*
X211898897Y-88471423D01*
X212318846Y-88645801D01*
X212773559Y-88646198D01*
X213168015Y-88483213D01*
X214286592Y-88483213D01*
X214356057Y-88725397D01*
X214479544Y-88769453D01*
X214356057Y-88820603D01*
X214286592Y-89062787D01*
X215087200Y-89863395D01*
X215887808Y-89062787D01*
X215818343Y-88820603D01*
X215694856Y-88776547D01*
X215818343Y-88725397D01*
X215887808Y-88483213D01*
X215087200Y-87682605D01*
X214286592Y-88483213D01*
X213168015Y-88483213D01*
X213193812Y-88472554D01*
X213515623Y-88151303D01*
X213690001Y-87731354D01*
X213690170Y-87537340D01*
X213705838Y-87850368D01*
X213864803Y-88234143D01*
X214106987Y-88303608D01*
X214907595Y-87503000D01*
X215266805Y-87503000D01*
X216067413Y-88303608D01*
X216309597Y-88234143D01*
X216496344Y-87710698D01*
X216468562Y-87155632D01*
X216309597Y-86771857D01*
X216067413Y-86702392D01*
X215266805Y-87503000D01*
X214907595Y-87503000D01*
X214106987Y-86702392D01*
X213864803Y-86771857D01*
X213687348Y-87269258D01*
X213516754Y-86856388D01*
X213195503Y-86534577D01*
X212775554Y-86360199D01*
X212320841Y-86359802D01*
X211900588Y-86533446D01*
X211578777Y-86854697D01*
X211404399Y-87274646D01*
X211404002Y-87729359D01*
X208098200Y-87729359D01*
X208098200Y-85224368D01*
X208133209Y-85189359D01*
X211404002Y-85189359D01*
X211577646Y-85609612D01*
X211898897Y-85931423D01*
X212318846Y-86105801D01*
X212773559Y-86106198D01*
X213168015Y-85943213D01*
X214286592Y-85943213D01*
X214356057Y-86185397D01*
X214479544Y-86229453D01*
X214356057Y-86280603D01*
X214286592Y-86522787D01*
X215087200Y-87323395D01*
X215887808Y-86522787D01*
X215818343Y-86280603D01*
X215694856Y-86236547D01*
X215818343Y-86185397D01*
X215887808Y-85943213D01*
X215087200Y-85142605D01*
X214286592Y-85943213D01*
X213168015Y-85943213D01*
X213193812Y-85932554D01*
X213515623Y-85611303D01*
X213690001Y-85191354D01*
X213690170Y-84997340D01*
X213705838Y-85310368D01*
X213864803Y-85694143D01*
X214106987Y-85763608D01*
X214907595Y-84963000D01*
X215266805Y-84963000D01*
X216067413Y-85763608D01*
X216309597Y-85694143D01*
X216496344Y-85170698D01*
X216468562Y-84615632D01*
X216309597Y-84231857D01*
X216067413Y-84162392D01*
X215266805Y-84963000D01*
X214907595Y-84963000D01*
X214106987Y-84162392D01*
X213864803Y-84231857D01*
X213687348Y-84729258D01*
X213516754Y-84316388D01*
X213195503Y-83994577D01*
X212775554Y-83820199D01*
X212320841Y-83819802D01*
X211900588Y-83993446D01*
X211578777Y-84314697D01*
X211404399Y-84734646D01*
X211404002Y-85189359D01*
X208133209Y-85189359D01*
X210673209Y-82649359D01*
X211404002Y-82649359D01*
X211577646Y-83069612D01*
X211898897Y-83391423D01*
X212318846Y-83565801D01*
X212773559Y-83566198D01*
X213193812Y-83392554D01*
X213515623Y-83071303D01*
X213690001Y-82651354D01*
X213690002Y-82649359D01*
X213944002Y-82649359D01*
X214117646Y-83069612D01*
X214438897Y-83391423D01*
X214858846Y-83565801D01*
X215052860Y-83565970D01*
X214739832Y-83581638D01*
X214356057Y-83740603D01*
X214286592Y-83982787D01*
X215087200Y-84783395D01*
X215887808Y-83982787D01*
X215818343Y-83740603D01*
X215320942Y-83563148D01*
X215733812Y-83392554D01*
X216055623Y-83071303D01*
X216230001Y-82651354D01*
X216230398Y-82196641D01*
X216056754Y-81776388D01*
X215735503Y-81454577D01*
X215315554Y-81280199D01*
X214860841Y-81279802D01*
X214440588Y-81453446D01*
X214118777Y-81774697D01*
X213944399Y-82194646D01*
X213944002Y-82649359D01*
X213690002Y-82649359D01*
X213690398Y-82196641D01*
X213516754Y-81776388D01*
X213195503Y-81454577D01*
X212775554Y-81280199D01*
X212320841Y-81279802D01*
X211900588Y-81453446D01*
X211578777Y-81774697D01*
X211404399Y-82194646D01*
X211404002Y-82649359D01*
X210673209Y-82649359D01*
X212303245Y-81019323D01*
X212318846Y-81025801D01*
X212773559Y-81026198D01*
X213193812Y-80852554D01*
X213515623Y-80531303D01*
X213549175Y-80450500D01*
X214084958Y-80450500D01*
X214117646Y-80529612D01*
X214438897Y-80851423D01*
X214858846Y-81025801D01*
X215313559Y-81026198D01*
X215733812Y-80852554D01*
X216055623Y-80531303D01*
X216230001Y-80111354D01*
X216230398Y-79656641D01*
X216056754Y-79236388D01*
X215735503Y-78914577D01*
X215315554Y-78740199D01*
X214860841Y-78739802D01*
X214440588Y-78913446D01*
X214165055Y-79188500D01*
X213468949Y-79188500D01*
X213195503Y-78914577D01*
X212775554Y-78740199D01*
X212320841Y-78739802D01*
X211900588Y-78913446D01*
X211578777Y-79234697D01*
X211404399Y-79654646D01*
X211404002Y-80109359D01*
X211411157Y-80126675D01*
X207021016Y-84516816D01*
X206884232Y-84721527D01*
X206836200Y-84963000D01*
X206836200Y-89527631D01*
X198489965Y-97873867D01*
X198369748Y-97923539D01*
X198178013Y-98114941D01*
X198074118Y-98365146D01*
X198073882Y-98636065D01*
X144916867Y-98636065D01*
X144876054Y-98619118D01*
X144774622Y-98619030D01*
X143606000Y-97450408D01*
X143606000Y-93150000D01*
X143567483Y-92956362D01*
X143457796Y-92792204D01*
X137954876Y-87289284D01*
X137790718Y-87179597D01*
X137597080Y-87141080D01*
X136266969Y-87141080D01*
X136176612Y-86922400D01*
X135816575Y-86561735D01*
X135671836Y-86501634D01*
X135814680Y-86442612D01*
X136175345Y-86082575D01*
X136370777Y-85611924D01*
X136371222Y-85102311D01*
X136176612Y-84631320D01*
X135816575Y-84270655D01*
X135671836Y-84210554D01*
X135814680Y-84151532D01*
X136175345Y-83791495D01*
X136370777Y-83320844D01*
X136371222Y-82811231D01*
X136176612Y-82340240D01*
X135816575Y-81979575D01*
X135671836Y-81919474D01*
X135814680Y-81860452D01*
X136175345Y-81500415D01*
X136370777Y-81029764D01*
X136371222Y-80520151D01*
X136176612Y-80049160D01*
X135816575Y-79688495D01*
X135345924Y-79493063D01*
X134836311Y-79492618D01*
X134365320Y-79687228D01*
X134004655Y-80047265D01*
X133809223Y-80517916D01*
X133808778Y-81027529D01*
X133837142Y-81096176D01*
X133630159Y-81026446D01*
X132729605Y-81927000D01*
X132370395Y-81927000D01*
X131469841Y-81026446D01*
X131263256Y-81096042D01*
X131290777Y-81029764D01*
X131290936Y-80846841D01*
X131649446Y-80846841D01*
X132550000Y-81747395D01*
X133450554Y-80846841D01*
X133364148Y-80590357D01*
X132790664Y-80380542D01*
X132180540Y-80406161D01*
X131735852Y-80590357D01*
X131649446Y-80846841D01*
X131290936Y-80846841D01*
X131291222Y-80520151D01*
X131096612Y-80049160D01*
X130736575Y-79688495D01*
X130265924Y-79493063D01*
X129756311Y-79492618D01*
X129285320Y-79687228D01*
X128924655Y-80047265D01*
X128729223Y-80517916D01*
X128728778Y-81027529D01*
X121487000Y-81027529D01*
X121487000Y-77569359D01*
X211404002Y-77569359D01*
X211577646Y-77989612D01*
X211898897Y-78311423D01*
X212318846Y-78485801D01*
X212773559Y-78486198D01*
X213193812Y-78312554D01*
X213515623Y-77991303D01*
X213690001Y-77571354D01*
X213690002Y-77569359D01*
X213944002Y-77569359D01*
X214117646Y-77989612D01*
X214438897Y-78311423D01*
X214858846Y-78485801D01*
X215313559Y-78486198D01*
X215733812Y-78312554D01*
X216055623Y-77991303D01*
X216230001Y-77571354D01*
X216230398Y-77116641D01*
X216056754Y-76696388D01*
X215735503Y-76374577D01*
X215315554Y-76200199D01*
X214860841Y-76199802D01*
X214440588Y-76373446D01*
X214118777Y-76694697D01*
X213944399Y-77114646D01*
X213944002Y-77569359D01*
X213690002Y-77569359D01*
X213690398Y-77116641D01*
X213516754Y-76696388D01*
X213195503Y-76374577D01*
X212775554Y-76200199D01*
X212320841Y-76199802D01*
X211900588Y-76373446D01*
X211578777Y-76694697D01*
X211404399Y-77114646D01*
X211404002Y-77569359D01*
X121487000Y-77569359D01*
X121487000Y-75065485D01*
X130782400Y-75065485D01*
X131015358Y-75446598D01*
X132023184Y-75856647D01*
X133111214Y-75849805D01*
X134084642Y-75446598D01*
X134317600Y-75065485D01*
X134281474Y-75029359D01*
X211404002Y-75029359D01*
X211577646Y-75449612D01*
X211898897Y-75771423D01*
X212318846Y-75945801D01*
X212773559Y-75946198D01*
X213193812Y-75772554D01*
X213515623Y-75451303D01*
X213690001Y-75031354D01*
X213690002Y-75029359D01*
X213944002Y-75029359D01*
X214117646Y-75449612D01*
X214438897Y-75771423D01*
X214858846Y-75945801D01*
X215313559Y-75946198D01*
X215733812Y-75772554D01*
X216055623Y-75451303D01*
X216230001Y-75031354D01*
X216230398Y-74576641D01*
X216056754Y-74156388D01*
X215735503Y-73834577D01*
X215315554Y-73660199D01*
X215121540Y-73660030D01*
X215434568Y-73644362D01*
X215818343Y-73485397D01*
X215887808Y-73243213D01*
X215087200Y-72442605D01*
X214286592Y-73243213D01*
X214356057Y-73485397D01*
X214853458Y-73662852D01*
X214440588Y-73833446D01*
X214118777Y-74154697D01*
X213944399Y-74574646D01*
X213944002Y-75029359D01*
X213690002Y-75029359D01*
X213690398Y-74576641D01*
X213516754Y-74156388D01*
X213195503Y-73834577D01*
X212775554Y-73660199D01*
X212581540Y-73660030D01*
X212894568Y-73644362D01*
X213278343Y-73485397D01*
X213347808Y-73243213D01*
X212547200Y-72442605D01*
X211746592Y-73243213D01*
X211816057Y-73485397D01*
X212313458Y-73662852D01*
X211900588Y-73833446D01*
X211578777Y-74154697D01*
X211404399Y-74574646D01*
X211404002Y-75029359D01*
X134281474Y-75029359D01*
X132550000Y-73297885D01*
X130782400Y-75065485D01*
X121487000Y-75065485D01*
X121487000Y-72591464D01*
X129811633Y-72591464D01*
X129818475Y-73679494D01*
X130221682Y-74652922D01*
X130602795Y-74885880D01*
X132370395Y-73118280D01*
X132729605Y-73118280D01*
X134497205Y-74885880D01*
X134878318Y-74652922D01*
X135288367Y-73645096D01*
X135281525Y-72557066D01*
X135073688Y-72055302D01*
X211138056Y-72055302D01*
X211165838Y-72610368D01*
X211324803Y-72994143D01*
X211566987Y-73063608D01*
X212367595Y-72263000D01*
X212726805Y-72263000D01*
X213527413Y-73063608D01*
X213769597Y-72994143D01*
X213813653Y-72870656D01*
X213864803Y-72994143D01*
X214106987Y-73063608D01*
X214907595Y-72263000D01*
X215266805Y-72263000D01*
X216067413Y-73063608D01*
X216309597Y-72994143D01*
X216496344Y-72470698D01*
X216468562Y-71915632D01*
X216309597Y-71531857D01*
X216067413Y-71462392D01*
X215266805Y-72263000D01*
X214907595Y-72263000D01*
X214106987Y-71462392D01*
X213864803Y-71531857D01*
X213820747Y-71655344D01*
X213769597Y-71531857D01*
X213527413Y-71462392D01*
X212726805Y-72263000D01*
X212367595Y-72263000D01*
X211566987Y-71462392D01*
X211324803Y-71531857D01*
X211138056Y-72055302D01*
X135073688Y-72055302D01*
X134878318Y-71583638D01*
X134497205Y-71350680D01*
X132729605Y-73118280D01*
X132370395Y-73118280D01*
X130602795Y-71350680D01*
X130221682Y-71583638D01*
X129811633Y-72591464D01*
X121487000Y-72591464D01*
X121487000Y-71171075D01*
X130782400Y-71171075D01*
X132550000Y-72938675D01*
X134317600Y-71171075D01*
X134084642Y-70789962D01*
X133076816Y-70379913D01*
X131988786Y-70386755D01*
X131015358Y-70789962D01*
X130782400Y-71171075D01*
X121487000Y-71171075D01*
X121487000Y-69949359D01*
X211404002Y-69949359D01*
X211577646Y-70369612D01*
X211898897Y-70691423D01*
X212318846Y-70865801D01*
X212512860Y-70865970D01*
X212199832Y-70881638D01*
X211816057Y-71040603D01*
X211746592Y-71282787D01*
X212547200Y-72083395D01*
X213347808Y-71282787D01*
X213278343Y-71040603D01*
X212780942Y-70863148D01*
X213193812Y-70692554D01*
X213515623Y-70371303D01*
X213690001Y-69951354D01*
X213690002Y-69949359D01*
X213944002Y-69949359D01*
X214117646Y-70369612D01*
X214438897Y-70691423D01*
X214858846Y-70865801D01*
X215052860Y-70865970D01*
X214739832Y-70881638D01*
X214356057Y-71040603D01*
X214286592Y-71282787D01*
X215087200Y-72083395D01*
X215887808Y-71282787D01*
X215818343Y-71040603D01*
X215320942Y-70863148D01*
X215733812Y-70692554D01*
X216055623Y-70371303D01*
X216230001Y-69951354D01*
X216230398Y-69496641D01*
X216056754Y-69076388D01*
X215735503Y-68754577D01*
X215315554Y-68580199D01*
X215121540Y-68580030D01*
X215434568Y-68564362D01*
X215818343Y-68405397D01*
X215887808Y-68163213D01*
X215087200Y-67362605D01*
X214286592Y-68163213D01*
X214356057Y-68405397D01*
X214853458Y-68582852D01*
X214440588Y-68753446D01*
X214118777Y-69074697D01*
X213944399Y-69494646D01*
X213944002Y-69949359D01*
X213690002Y-69949359D01*
X213690398Y-69496641D01*
X213516754Y-69076388D01*
X213195503Y-68754577D01*
X212775554Y-68580199D01*
X212581540Y-68580030D01*
X212894568Y-68564362D01*
X213278343Y-68405397D01*
X213347808Y-68163213D01*
X212547200Y-67362605D01*
X211746592Y-68163213D01*
X211816057Y-68405397D01*
X212313458Y-68582852D01*
X211900588Y-68753446D01*
X211578777Y-69074697D01*
X211404399Y-69494646D01*
X211404002Y-69949359D01*
X121487000Y-69949359D01*
X121487000Y-66975302D01*
X211138056Y-66975302D01*
X211165838Y-67530368D01*
X211324803Y-67914143D01*
X211566987Y-67983608D01*
X212367595Y-67183000D01*
X212726805Y-67183000D01*
X213527413Y-67983608D01*
X213769597Y-67914143D01*
X213813653Y-67790656D01*
X213864803Y-67914143D01*
X214106987Y-67983608D01*
X214907595Y-67183000D01*
X215266805Y-67183000D01*
X216067413Y-67983608D01*
X216309597Y-67914143D01*
X216496344Y-67390698D01*
X216468562Y-66835632D01*
X216309597Y-66451857D01*
X216067413Y-66382392D01*
X215266805Y-67183000D01*
X214907595Y-67183000D01*
X214106987Y-66382392D01*
X213864803Y-66451857D01*
X213820747Y-66575344D01*
X213769597Y-66451857D01*
X213527413Y-66382392D01*
X212726805Y-67183000D01*
X212367595Y-67183000D01*
X211566987Y-66382392D01*
X211324803Y-66451857D01*
X211138056Y-66975302D01*
X121487000Y-66975302D01*
X121487000Y-66202787D01*
X211746592Y-66202787D01*
X212547200Y-67003395D01*
X213347808Y-66202787D01*
X214286592Y-66202787D01*
X215087200Y-67003395D01*
X215887808Y-66202787D01*
X215818343Y-65960603D01*
X215294898Y-65773856D01*
X214739832Y-65801638D01*
X214356057Y-65960603D01*
X214286592Y-66202787D01*
X213347808Y-66202787D01*
X213278343Y-65960603D01*
X212754898Y-65773856D01*
X212199832Y-65801638D01*
X211816057Y-65960603D01*
X211746592Y-66202787D01*
X121487000Y-66202787D01*
X121487000Y-62305000D01*
X225540500Y-62305000D01*
X225540500Y-150674000D01*
M02*
