M48
;DRILL file {KiCad 4.0.7-e2-6376~61~ubuntu18.04.1} date Sat Nov  7 22:51:57 2020
;FORMAT={-:-/ absolute / inch / decimal}
FMAT,2
INCH,TZ
T1C0.016
T2C0.030
T3C0.035
T4C0.039
T5C0.071
T6C0.122
%
G90
G05
M72
T1
X4.878Y-5.1732
X4.9764Y-4.6378
X5.5157Y-5.313
X5.6984Y-3.9094
X6.206Y-4.256
X6.438Y-4.281
X6.516Y-3.831
X6.63Y-4.865
X6.659Y-5.1225
X6.714Y-4.964
X6.714Y-5.076
X6.787Y-5.148
X6.839Y-5.015
X7.Y-4.0571
X7.Y-4.1457
X7.002Y-4.2362
X7.2008Y-4.2165
X7.2087Y-4.3406
X7.2972Y-4.0256
X7.308Y-4.963
X7.309Y-4.87
X7.3169Y-4.1299
X7.4016Y-4.4882
X7.4075Y-4.3937
X7.4469Y-4.1319
X7.4469Y-4.311
X7.5492Y-4.1988
X7.5591Y-4.2323
X7.5827Y-4.0256
X7.751Y-5.055
X7.752Y-4.963
X7.753Y-4.871
X7.7735Y-5.4425
X7.825Y-3.878
X7.913Y-5.071
X8.028Y-5.242
T2
X6.2365Y-5.28
X6.2365Y-5.88
X6.3365Y-5.28
X6.3365Y-5.88
X6.4365Y-5.28
X6.4365Y-5.88
X6.5365Y-5.28
X6.5365Y-5.88
X6.6365Y-5.28
X6.6365Y-5.88
X6.7365Y-5.28
X6.7365Y-5.88
X6.8365Y-5.28
X6.8365Y-5.88
X6.9365Y-5.28
X6.9365Y-5.88
X7.0365Y-5.28
X7.0365Y-5.88
X7.1365Y-5.28
X7.1365Y-5.88
X7.2365Y-5.28
X7.2365Y-5.88
X7.3365Y-5.28
X7.3365Y-5.88
X7.4365Y-5.28
X7.4365Y-5.88
X7.5365Y-5.28
X7.5365Y-5.88
X7.6365Y-5.28
X7.6365Y-5.88
X8.368Y-2.645
X8.368Y-2.745
X8.368Y-2.845
X8.368Y-2.945
X8.368Y-3.045
X8.368Y-3.145
X8.368Y-3.245
X8.368Y-3.345
X8.368Y-3.445
X8.368Y-3.545
X8.368Y-3.645
X8.368Y-3.745
X8.368Y-3.845
X8.368Y-3.945
X8.368Y-4.045
X8.368Y-4.145
X8.368Y-4.245
X8.368Y-4.345
X8.368Y-4.445
X8.368Y-4.545
X8.368Y-4.645
X8.368Y-4.745
X8.368Y-4.845
X8.368Y-4.945
X8.368Y-5.045
X8.368Y-5.145
X8.368Y-5.245
X8.368Y-5.345
X8.368Y-5.445
X8.368Y-5.545
X8.368Y-5.645
X8.368Y-5.745
X8.468Y-2.645
X8.468Y-2.745
X8.468Y-2.845
X8.468Y-2.945
X8.468Y-3.045
X8.468Y-3.145
X8.468Y-3.245
X8.468Y-3.345
X8.468Y-3.445
X8.468Y-3.545
X8.468Y-3.645
X8.468Y-3.745
X8.468Y-3.845
X8.468Y-3.945
X8.468Y-4.045
X8.468Y-4.145
X8.468Y-4.245
X8.468Y-4.345
X8.468Y-4.445
X8.468Y-4.545
X8.468Y-4.645
X8.468Y-4.745
X8.468Y-4.845
X8.468Y-4.945
X8.468Y-5.045
X8.468Y-5.145
X8.468Y-5.245
X8.468Y-5.345
X8.468Y-5.445
X8.468Y-5.545
X8.468Y-5.645
X8.468Y-5.745
T3
X5.287Y-4.8217
X5.287Y-4.9201
X5.3854Y-4.8217
X5.3854Y-4.9201
X5.4839Y-4.8217
X5.4839Y-4.9201
X5.5823Y-4.8217
X5.5823Y-4.9201
X5.6807Y-4.8217
X5.6807Y-4.9201
X5.7791Y-4.8217
X5.7791Y-4.9201
T4
X5.1185Y-3.1801
X5.1185Y-3.2703
X5.1185Y-3.3605
X5.1185Y-3.4507
X5.1185Y-3.5409
X5.2185Y-3.2255
X5.2185Y-3.3157
X5.2185Y-3.4059
X5.2185Y-3.4961
X5.2185Y-3.5863
X5.3185Y-3.1801
X5.3185Y-3.2703
X5.3185Y-3.3605
X5.3185Y-3.4507
X5.3185Y-3.5409
T5
X5.1669Y-4.7173
X5.1669Y-5.0244
T6
X5.2185Y-2.8787
X5.2185Y-3.8623
T0
M30
